<?xml version="1.0" encoding="UTF-8" standalone="no"?>
<svg
   xmlns:dc="http://purl.org/dc/elements/1.1/"
   xmlns:cc="http://creativecommons.org/ns#"
   xmlns:rdf="http://www.w3.org/1999/02/22-rdf-syntax-ns#"
   xmlns:svg="http://www.w3.org/2000/svg"
   xmlns="http://www.w3.org/2000/svg"
   viewBox="0 0 160 53.333332"
   height="53.333332"
   width="160"
   xml:space="preserve"
   id="svg2"
   version="1.1"><metadata
     id="metadata8"><rdf:RDF><cc:Work
         rdf:about=""><dc:format>image/svg+xml</dc:format><dc:type
           rdf:resource="http://purl.org/dc/dcmitype/StillImage" /></cc:Work></rdf:RDF></metadata><defs
     id="defs6"><clipPath
       id="clipPath18"
       clipPathUnits="userSpaceOnUse"><path
         id="path16"
         d="M 0,40 H 120 V 0 H 0 Z" /></clipPath><clipPath
       id="clipPath38"
       clipPathUnits="userSpaceOnUse"><path
         id="path36"
         d="M 0,40 H 120 V 0 H 0 Z" /></clipPath></defs><g
     transform="matrix(1.3333333,0,0,-1.3333333,0,53.333333)"
     id="g10"><g
       id="g12"><g
         clip-path="url(#clipPath18)"
         id="g14"><g
           transform="translate(119,20)"
           id="g20"><path
             id="path22"
             style="fill:#ffffff;fill-opacity:1;fill-rule:nonzero;stroke:none"
             d="m 0,0 c 0,-10.493 -8.507,-19 -19,-19 -10.493,0 -19,8.507 -19,19 0,10.494 8.507,19 19,19 C -8.507,19 0,10.494 0,0" /></g></g></g><text
       id="text26"
       style="font-variant:normal;font-weight:600;font-stretch:normal;font-size:12px;font-family:'PF BeauSans Pro SemiBold';-inkscape-font-specification:PFBeauSansPro-SemiBold;writing-mode:lr-tb;fill:#ffffff;fill-opacity:1;fill-rule:nonzero;stroke:none"
       transform="matrix(1,0,0,-1,16,19.8516)"><tspan
         id="tspan24"
         y="0"
         x="0 7.7519999 15.06 21.804001 26.304001 34.043999 42.672001">ЧАТ-БОТ</tspan></text>
<text
       id="text30"
       style="font-variant:normal;font-weight:normal;font-stretch:normal;font-size:9px;font-family:'PF BeauSans Pro';-inkscape-font-specification:PFBeauSansPro-Regular;writing-mode:lr-tb;fill:#ffffff;fill-opacity:1;fill-rule:nonzero;stroke:none"
       transform="matrix(1,0,0,-1,17,10.8516)"><tspan
         id="tspan28"
         y="0"
         x="0 4.9229999 10.134 15.102 20.313 26.181 31.815001 37.376999">TELEGRAM</tspan></text>
<g
       id="g32"><g
         clip-path="url(#clipPath38)"
         id="g34"><g
           transform="translate(100,1.5)"
           id="g40"><path
             id="path42"
             style="fill:none;stroke:#ffffff;stroke-width:3;stroke-linecap:butt;stroke-linejoin:miter;stroke-miterlimit:10;stroke-dasharray:none;stroke-opacity:1"
             d="m 0,0 h -80 c -10.217,0 -18.5,8.283 -18.5,18.5 0,10.217 8.283,18.5 18.5,18.5 H 0 C 10.217,37 18.5,28.717 18.5,18.5 18.5,8.283 10.217,0 0,0 Z" /></g><g
           transform="translate(105.0439,24.1792)"
           id="g44"><path
             id="path46"
             style="fill:#61a8de;fill-opacity:1;fill-rule:nonzero;stroke:none"
             d="m 0,0 -8.496,-7.513 c -0.085,-0.075 -0.139,-0.179 -0.151,-0.291 l -0.328,-2.908 c -0.01,-0.095 -0.143,-0.107 -0.171,-0.016 l -1.346,4.337 c -0.062,0.198 0.018,0.413 0.195,0.522 L -0.264,0.354 C -0.033,0.498 0.203,0.18 0,0 m 2.293,3.314 -18.291,-7.128 c -0.593,-0.231 -0.557,-1.082 0.053,-1.262 l 4.648,-1.372 1.734,-5.505 c 0.182,-0.574 0.911,-0.749 1.333,-0.318 l 2.403,2.454 4.715,-3.461 c 0.577,-0.424 1.398,-0.109 1.545,0.592 L 3.556,2.244 C 3.709,2.976 2.989,3.585 2.293,3.314" /></g></g></g></g></svg>