<?xml version="1.0" encoding="utf-8"?>
<!-- Generator: Adobe Illustrator 22.0.1, SVG Export Plug-In . SVG Version: 6.00 Build 0)  -->
<svg version="1.1" id="Слой_1" xmlns="http://www.w3.org/2000/svg" xmlns:xlink="http://www.w3.org/1999/xlink" x="0px" y="0px"
	 viewBox="0 0 20 16.8" style="enable-background:new 0 0 20 16.8;" xml:space="preserve">
<style type="text/css">
	.st0{fill:#61A8DE;}
</style>
<path class="st0" d="M18.7,0.1L0.4,7.2c-0.6,0.2-0.6,1.1,0.1,1.3l4.6,1.4l1.7,5.5c0.2,0.6,0.9,0.7,1.3,0.3l2.4-2.5l4.7,3.5
	c0.6,0.4,1.4,0.1,1.5-0.6L20,1.1C20.1,0.4,19.4-0.2,18.7,0.1 M16.4,3.4l-8.5,7.5c-0.1,0.1-0.1,0.2-0.2,0.3l-0.3,2.9
	c0,0.1-0.1,0.1-0.2,0L5.9,9.8c-0.1-0.2,0-0.4,0.2-0.5l10-6.2C16.4,2.9,16.6,3.2,16.4,3.4"/>
</svg>
