<?xml version="1.0" encoding="utf-8"?>
<!-- Generator: Adobe Illustrator 22.0.1, SVG Export Plug-In . SVG Version: 6.00 Build 0)  -->
<svg version="1.1" id="Слой_1" xmlns="http://www.w3.org/2000/svg" xmlns:xlink="http://www.w3.org/1999/xlink" x="0px" y="0px"
	 viewBox="0 0 20 20.5" style="enable-background:new 0 0 20 20.5;" xml:space="preserve">
<style type="text/css">
	.st0{fill:#7F40BD;}
</style>
<path class="st0" d="M17.3,8.6c0-2.9-2.4-5.5-5.5-5.9c-0.1,0-0.1,0-0.2,0c-0.2,0-0.3-0.1-0.5-0.1c-0.6,0-0.8,0.4-0.8,0.7
	c0,0.3,0,0.5,0.1,0.6c0.2,0.3,0.6,0.3,0.9,0.4c0.1,0,0.2,0,0.2,0c2.7,0.6,3.7,1.6,4.1,4.3c0,0.1,0,0.1,0,0.2c0,0.3,0.1,1,0.8,1
	c0.1,0,0.1,0,0.2,0c0.7-0.1,0.7-0.7,0.6-1C17.3,8.8,17.3,8.7,17.3,8.6C17.3,8.6,17.3,8.6,17.3,8.6"/>
<path class="st0" d="M11,1.6c0.1,0,0.2,0,0.2,0c4.5,0.7,6.6,2.8,7.2,7.4c0,0.1,0,0.2,0,0.3c0,0.4,0,1.1,0.8,1.1l0,0
	c0.2,0,0.4-0.1,0.6-0.2C20,9.9,20,9.5,20,9.2c0-0.1,0-0.1,0-0.2c0.1-4.6-4-8.9-8.6-9c0,0,0,0-0.1,0c0,0,0,0-0.1,0c0,0-0.1,0-0.2,0
	c-0.1,0-0.2,0-0.2,0C10.1,0,10,0.5,10,0.8C9.9,1.6,10.6,1.6,11,1.6"/>
<path class="st0" d="M18.1,14.9c-0.1-0.1-0.2-0.1-0.3-0.2c-0.5-0.4-1-0.8-1.5-1.1c-0.1-0.1-0.2-0.1-0.3-0.2
	c-0.6-0.5-1.2-0.7-1.8-0.7c-0.7,0-1.4,0.4-1.9,1.2c-0.2,0.4-0.5,0.5-0.9,0.5c-0.2,0-0.4-0.1-0.7-0.2c-2.1-0.9-3.6-2.4-4.4-4.3
	C5.9,9,6,8.4,6.7,7.9c0.4-0.3,1.2-0.8,1.1-1.8C7.8,4.9,5.3,1.5,4.2,1.1C3.8,1,3.3,1,2.8,1.1C1.6,1.6,0.7,2.3,0.3,3.2
	c-0.4,0.9-0.4,2,0.1,3.1c1.3,3.2,3.2,6,5.5,8.4c2.3,2.3,5.1,4.1,8.3,5.5c0.3,0.1,0.6,0.2,0.8,0.2c0.1,0,0.1,0,0.2,0c0,0,0.1,0,0.1,0
	h0c1.5,0,3.4-1.4,3.9-3C19.8,16.2,18.8,15.5,18.1,14.9"/>
<path class="st0" d="M11.6,5.3c-0.3,0-0.8,0-1,0.6c-0.1,0.3-0.1,0.5,0,0.7c0.2,0.3,0.5,0.4,0.8,0.4c1,0.2,1.6,0.7,1.7,1.8
	c0,0.5,0.4,0.8,0.8,0.8c0,0,0.1,0,0.1,0c0.5-0.1,0.8-0.4,0.7-1.1c0-0.7-0.4-1.5-1-2.2C13.1,5.7,12.3,5.3,11.6,5.3"/>
</svg>
