<?xml version="1.0" encoding="UTF-8" standalone="no"?>
<svg
   xmlns:dc="http://purl.org/dc/elements/1.1/"
   xmlns:cc="http://creativecommons.org/ns#"
   xmlns:rdf="http://www.w3.org/1999/02/22-rdf-syntax-ns#"
   xmlns:svg="http://www.w3.org/2000/svg"
   xmlns="http://www.w3.org/2000/svg"
   viewBox="0 0 160 53.333332"
   height="53.333332"
   width="160"
   xml:space="preserve"
   id="svg2"
   version="1.1"><metadata
     id="metadata8"><rdf:RDF><cc:Work
         rdf:about=""><dc:format>image/svg+xml</dc:format><dc:type
           rdf:resource="http://purl.org/dc/dcmitype/StillImage" /></cc:Work></rdf:RDF></metadata><defs
     id="defs6"><clipPath
       id="clipPath18"
       clipPathUnits="userSpaceOnUse"><path
         id="path16"
         d="M 0,40 H 120 V 0 H 0 Z" /></clipPath><clipPath
       id="clipPath38"
       clipPathUnits="userSpaceOnUse"><path
         id="path36"
         d="M 0,40 H 120 V 0 H 0 Z" /></clipPath></defs><g
     transform="matrix(1.3333333,0,0,-1.3333333,0,53.333333)"
     id="g10"><g
       id="g12"><g
         clip-path="url(#clipPath18)"
         id="g14"><g
           transform="translate(119,20)"
           id="g20"><path
             id="path22"
             style="fill:#ffffff;fill-opacity:1;fill-rule:nonzero;stroke:none"
             d="m 0,0 c 0,-10.493 -8.507,-19 -19,-19 -10.493,0 -19,8.507 -19,19 0,10.494 8.507,19 19,19 C -8.507,19 0,10.494 0,0" /></g></g></g><text
       id="text26"
       style="font-variant:normal;font-weight:600;font-stretch:normal;font-size:12px;font-family:'PF BeauSans Pro SemiBold';-inkscape-font-specification:PFBeauSansPro-SemiBold;writing-mode:lr-tb;fill:#ffffff;fill-opacity:1;fill-rule:nonzero;stroke:none"
       transform="matrix(1,0,0,-1,16,19.8516)"><tspan
         id="tspan24"
         y="0"
         x="0 7.7519999 15.06 21.804001 26.304001 34.043999 42.672001">ЧАТ-БОТ</tspan></text>
<text
       id="text30"
       style="font-variant:normal;font-weight:normal;font-stretch:normal;font-size:9px;font-family:'PF BeauSans Pro';-inkscape-font-specification:PFBeauSansPro-Regular;writing-mode:lr-tb;fill:#ffffff;fill-opacity:1;fill-rule:nonzero;stroke:none"
       transform="matrix(1,0,0,-1,17,10.8516)"><tspan
         id="tspan28"
         y="0"
         x="0 5.6609998 8.073 13.878 19.089001">VIBER</tspan></text>
<g
       id="g32"><g
         clip-path="url(#clipPath38)"
         id="g34"><g
           transform="translate(100,1.5)"
           id="g40"><path
             id="path42"
             style="fill:none;stroke:#ffffff;stroke-width:3;stroke-linecap:butt;stroke-linejoin:miter;stroke-miterlimit:10;stroke-dasharray:none;stroke-opacity:1"
             d="m 0,0 h -80 c -10.217,0 -18.5,8.283 -18.5,18.5 0,10.217 8.283,18.5 18.5,18.5 H 0 C 10.217,37 18.5,28.717 18.5,18.5 18.5,8.283 10.217,0 0,0 Z" /></g><g
           transform="translate(107.3008,20.6499)"
           id="g44"><path
             id="path46"
             style="fill:#7f40bd;fill-opacity:1;fill-rule:nonzero;stroke:none"
             d="m 0,0 c 0.024,2.896 -2.441,5.55 -5.498,5.917 -0.061,0.008 -0.127,0.019 -0.197,0.03 -0.152,0.025 -0.308,0.051 -0.465,0.051 -0.627,0 -0.794,-0.44 -0.838,-0.703 C -7.041,5.041 -7,4.826 -6.877,4.659 -6.67,4.376 -6.305,4.327 -6.012,4.286 c 0.086,-0.012 0.167,-0.023 0.236,-0.038 2.745,-0.613 3.67,-1.578 4.122,-4.3 0.01,-0.067 0.015,-0.149 0.02,-0.236 0.021,-0.325 0.062,-1.002 0.789,-1.002 0.061,0 0.126,0.005 0.194,0.015 0.677,0.103 0.657,0.722 0.646,1.02 -0.003,0.083 -0.006,0.163 0.002,0.215 C -0.001,-0.026 0,-0.013 0,0" /></g><g
           transform="translate(100.9629,27.6304)"
           id="g48"><path
             id="path50"
             style="fill:#7f40bd;fill-opacity:1;fill-rule:nonzero;stroke:none"
             d="m 0,0 c 0.081,-0.006 0.158,-0.012 0.222,-0.021 4.508,-0.694 6.583,-2.83 7.157,-7.374 0.01,-0.078 0.012,-0.171 0.013,-0.272 0.005,-0.354 0.017,-1.093 0.81,-1.108 l 0.026,-10e-4 c 0.248,0 0.446,0.075 0.587,0.224 0.248,0.258 0.23,0.641 0.216,0.95 C 9.027,-7.526 9.024,-7.455 9.025,-7.393 9.083,-2.746 5.06,1.469 0.417,1.625 0.397,1.626 0.379,1.625 0.36,1.623 0.352,1.621 0.334,1.62 0.306,1.62 0.259,1.62 0.202,1.624 0.142,1.627 0.068,1.632 -0.014,1.638 -0.098,1.638 -0.838,1.638 -0.979,1.113 -0.996,0.799 -1.037,0.075 -0.337,0.024 0,0" /></g><g
           transform="translate(108.124,14.3623)"
           id="g52"><path
             id="path54"
             style="fill:#7f40bd;fill-opacity:1;fill-rule:nonzero;stroke:none"
             d="m 0,0 c -0.096,0.073 -0.194,0.149 -0.287,0.224 -0.493,0.396 -1.017,0.761 -1.524,1.114 -0.104,0.073 -0.21,0.146 -0.314,0.221 -0.648,0.455 -1.232,0.676 -1.783,0.676 -0.742,0 -1.39,-0.41 -1.924,-1.218 -0.236,-0.359 -0.523,-0.534 -0.877,-0.534 -0.209,0 -0.447,0.061 -0.707,0.178 -2.094,0.95 -3.589,2.406 -4.444,4.328 -0.413,0.929 -0.28,1.536 0.448,2.031 0.413,0.28 1.182,0.802 1.128,1.801 -0.063,1.136 -2.567,4.551 -3.622,4.939 -0.448,0.164 -0.916,0.166 -1.398,0.004 -1.214,-0.408 -2.084,-1.124 -2.518,-2.072 -0.419,-0.915 -0.401,-1.989 0.054,-3.107 1.317,-3.231 3.168,-6.049 5.501,-8.374 2.286,-2.276 5.093,-4.141 8.346,-5.541 0.293,-0.126 0.601,-0.195 0.825,-0.245 0.077,-0.018 0.143,-0.032 0.192,-0.045 0.026,-0.008 0.053,-0.012 0.081,-0.012 h 0.025 c 1.53,0 3.367,1.399 3.932,2.992 C 1.628,-1.244 0.726,-0.555 0,0" /></g><g
           transform="translate(101.6396,23.9385)"
           id="g56"><path
             id="path58"
             style="fill:#7f40bd;fill-opacity:1;fill-rule:nonzero;stroke:none"
             d="m 0,0 c -0.263,-0.006 -0.808,-0.02 -0.999,-0.575 -0.089,-0.259 -0.078,-0.485 0.032,-0.67 0.162,-0.271 0.474,-0.354 0.757,-0.4 1.026,-0.165 1.553,-0.732 1.658,-1.786 0.049,-0.491 0.38,-0.834 0.805,-0.834 0.031,0 0.063,0.002 0.096,0.006 0.51,0.06 0.758,0.436 0.736,1.115 C 3.093,-2.435 2.722,-1.63 2.091,-0.988 1.457,-0.345 0.694,0.017 0,0" /></g></g></g></g></svg>