<svg version="1.1" id="Layer_5" xmlns="http://www.w3.org/2000/svg" xmlns:xlink="http://www.w3.org/1999/xlink" x="0px" y="0px"
	 viewBox="0 0 52 58" style="enable-background:new 0 0 52 58;" xml:space="preserve">
<style type="text/css">
	.st0{fill:none;stroke:#000000;stroke-width:2;stroke-miterlimit:10;}
	.st1{fill:none;stroke:#000000;stroke-width:2;stroke-linejoin:round;stroke-miterlimit:10;}
	.st2{fill:none;stroke:#000000;stroke-width:2;stroke-linecap:round;stroke-linejoin:round;stroke-miterlimit:10;}
</style>
<path class="st0" d="M33,31v22c0,2.2-1.8,4-4,4H5c-2.2,0-4-1.8-4-4V15c0-2.2,1.8-4,4-4h13"/>
<rect x="7" y="31" class="st1" width="4" height="20"/>
<rect x="15" y="35" class="st1" width="4" height="16"/>
<rect x="23" y="41" class="st1" width="4" height="10"/>
<line class="st2" x1="7" y1="17" x2="16" y2="17"/>
<line class="st2" x1="7" y1="21" x2="13" y2="21"/>
<line class="st2" x1="7" y1="25" x2="11" y2="25"/>
<circle class="st2" cx="32" cy="16" r="11"/>
<circle class="st2" cx="32" cy="16" r="15"/>
<polyline class="st2" points="45,25 51,31 48,34 42,28 "/>
</svg>
