<svg version="1.1" id="Layer_3" xmlns="http://www.w3.org/2000/svg" xmlns:xlink="http://www.w3.org/1999/xlink" x="0px" y="0px"
	 viewBox="0 0 56.1 54" style="enable-background:new 0 0 56.1 54;" xml:space="preserve">
<style type="text/css">
	.st0{fill:none;stroke:#000000;stroke-width:2;stroke-linecap:round;stroke-linejoin:round;stroke-miterlimit:10;}
</style>
<g>
	<path class="st0" d="M28.1,43h22c2.8,0,5,2.2,5,5v0c0,2.8-2.2,5-5,5h-22c-2.8,0-5-2.2-5-5v0C23.1,45.2,25.4,43,28.1,43z"/>
	<line class="st0" x1="29.1" y1="42" x2="29.1" y2="39"/>
	<line class="st0" x1="35.1" y1="42" x2="35.1" y2="39"/>
	<line class="st0" x1="28.1" y1="39" x2="36.1" y2="39"/>
	<line class="st0" x1="43.1" y1="42" x2="43.1" y2="39"/>
	<line class="st0" x1="49.1" y1="42" x2="49.1" y2="39"/>
	<line class="st0" x1="42.1" y1="39" x2="50.1" y2="39"/>
	<line class="st0" x1="39.1" y1="43" x2="39.1" y2="53"/>
	<circle cx="29.1" cy="51" r="1"/>
	<circle cx="30.1" cy="49" r="1"/>
	<circle cx="33.1" cy="49" r="1"/>
	<circle cx="32.1" cy="51" r="1"/>
	<circle cx="35.1" cy="51" r="1"/>
</g>
<line class="st0" x1="16.1" y1="18.7" x2="33.3" y2="35.9"/>
<line class="st0" x1="20.1" y1="15" x2="41.1" y2="36"/>
<line class="st0" x1="28.1" y1="23" x2="35.1" y2="16"/>
<line class="st0" x1="31.1" y1="26" x2="38.1" y2="19"/>
<line class="st0" x1="13.1" y1="38" x2="24.1" y2="27"/>
<path class="st0" d="M16.7,45.4l-2.5,2.5c-1.2,1.2-3.1,1.2-4.2,0l-3.8-3.8c-1.2-1.2-1.2-3.1,0-4.2l2.5-2.5c0.8-0.8,2-0.8,2.8,0
	l5.2,5.2C17.5,43.4,17.5,44.6,16.7,45.4z"/>
<line class="st0" x1="27.1" y1="30" x2="16.1" y2="41"/>
<path class="st0" d="M8.9,41.3l1.3-1.3l4,4l-1.3,1.3c-0.4,0.4-1,0.4-1.4,0l-2.6-2.6C8.5,42.3,8.5,41.7,8.9,41.3z"/>
<path class="st0" d="M31.6,11.4l11.2,11.2c0.8,0.8,2,0.8,2.8,0l5.2-5.2c1.5-1.5,2.3-3.5,2.3-5.7V7c0-3.3-2.7-6-6-6h-4.7
	c-2.1,0-4.2,0.8-5.7,2.3l-5.2,5.2C30.8,9.4,30.8,10.6,31.6,11.4z"/>
<path class="st0" d="M35.1,16l4.6-4.6c0.8-0.8,2-0.8,2.8,0l0.2,0.2c0.8,0.8,0.8,2,0,2.8L38.1,19"/>
<path class="st0" d="M7.6,10.6l5.2-5.2c0.8-0.8,2-0.8,2.8,0l5.2,5.2c0.8,0.8,0.8,2,0,2.8l-5.2,5.2c-0.8,0.8-2,0.8-2.8,0l-5.2-5.2
	C6.8,12.6,6.8,11.4,7.6,10.6z"/>
<polyline class="st0" points="8,13.8 6,15.8 10.6,20.5 12.6,18.5 "/>
<path class="st0" d="M5.5,15.3l5.2,5.2c0.8,0.8,0.8,2,0,2.8L9.1,25L1,16.9l1.7-1.6C3.5,14.6,4.7,14.6,5.5,15.3z"/>
<path class="st0" d="M16.1,6l3.2-3.2C20.5,1.6,22,1,23.6,1h7.5c-3,1-7,5-7,5l-4,4"/>
<line class="st0" x1="33.1" y1="19" x2="35.1" y2="21"/>
</svg>
