<svg version="1.1" id="Слой_1" xmlns="http://www.w3.org/2000/svg" xmlns:xlink="http://www.w3.org/1999/xlink" x="0px" y="0px"
	 viewBox="0 0 126.4 79" style="enable-background:new 0 0 126.4 79;" xml:space="preserve">
<style type="text/css">
	.st0{clip-path:url(#SVGID_2_);fill:#64A8DF;}
	.st1{clip-path:url(#SVGID_2_);fill:#FFFFFF;}
	.st2{clip-path:url(#SVGID_2_);fill:none;stroke:#64A8DF;stroke-width:4;}
	.st3{clip-path:url(#SVGID_2_);fill:#7FBFA8;}
</style>
<g>
	<defs>
		<rect id="SVGID_1_" y="0" width="126.4" height="79"/>
	</defs>
	<clipPath id="SVGID_2_">
		<use xlink:href="#SVGID_1_"  style="overflow:visible;"/>
	</clipPath>
	<path class="st0" d="M126.4,33.3c0,18.4-19.4,33.3-43.3,33.3c-23.9,0-43.3-14.9-43.3-33.3C39.9,14.9,59.2,0,83.1,0
		C107,0,126.4,14.9,126.4,33.3"/>
	<path class="st0" d="M67.9,34.7C67.9,48.1,52.7,59,33.9,59C15.2,59,0,48.1,0,34.7c0-13.4,15.2-24.3,33.9-24.3
		C52.7,10.3,67.9,21.2,67.9,34.7"/>
	<path class="st1" d="M24.5,41.7c0,0.5-0.2,0.9-0.5,1.3c-0.3,0.3-0.7,0.5-1.2,0.5c-0.4,0-0.7-0.1-1-0.3c-0.3-0.2-0.5-0.5-0.7-0.9
		l-1.6-3.6h-8.9l-1.6,3.7C9,42.7,8.8,43,8.5,43.2c-0.3,0.2-0.6,0.3-0.9,0.3c-0.5,0-0.9-0.1-1.2-0.4c-0.3-0.3-0.4-0.7-0.4-1.1
		c0-0.2,0-0.4,0.1-0.6l7.5-17.9c0.2-0.4,0.4-0.7,0.7-0.9s0.7-0.3,1.1-0.3c0.4,0,0.7,0.1,1,0.3c0.3,0.2,0.5,0.5,0.7,0.9L24.4,41
		C24.5,41.3,24.5,41.5,24.5,41.7 M12.2,35.2h6l-3-7L12.2,35.2z"/>
	<path class="st1" d="M30,43.1c-1.1-0.4-2.2-1-3.2-1.8c-0.5-0.5-0.8-1-0.8-1.6c0-0.5,0.2-0.9,0.5-1.2c0.3-0.3,0.8-0.5,1.2-0.5
		c0.4,0,0.7,0.1,1,0.4c0.8,0.7,1.6,1.1,2.3,1.4c0.8,0.3,1.7,0.4,2.7,0.4c1.1,0,2.1-0.3,2.9-0.8c0.8-0.5,1.2-1.1,1.2-1.9
		c0-0.9-0.4-1.6-1.2-2.1c-0.8-0.5-2.1-0.9-3.8-1.2c-4.4-0.6-6.6-2.7-6.6-6.1c0-1.3,0.3-2.4,1-3.3s1.6-1.6,2.7-2.1
		c1.1-0.5,2.4-0.7,3.8-0.7c1.3,0,2.4,0.2,3.6,0.6c1.1,0.4,2,0.9,2.8,1.5c0.6,0.5,0.9,1,0.9,1.6c0,0.5-0.2,0.9-0.5,1.2
		c-0.3,0.4-0.7,0.5-1.2,0.5c-0.3,0-0.6-0.1-0.8-0.3c-0.5-0.4-1.2-0.8-2.2-1.2c-0.9-0.3-1.8-0.5-2.5-0.5c-1.3,0-2.2,0.2-2.9,0.7
		c-0.7,0.5-1,1.1-1,1.8c0,0.9,0.4,1.5,1.1,2c0.7,0.4,1.8,0.8,3.3,1.1c1.7,0.3,3.1,0.7,4.1,1.2c1,0.5,1.8,1.1,2.3,1.9
		c0.5,0.8,0.8,1.9,0.8,3.2c0,1.3-0.4,2.4-1.1,3.3c-0.7,1-1.7,1.7-2.8,2.2c-1.2,0.5-2.5,0.8-3.8,0.8C32.4,43.6,31.1,43.5,30,43.1"/>
	<path class="st1" d="M61.4,40.8c0.1,0.2,0.1,0.4,0.1,0.6c0,0.5-0.2,1-0.6,1.4s-0.9,0.5-1.4,0.5c-0.3,0-0.5-0.1-0.8-0.2
		c-0.2-0.1-0.4-0.3-0.6-0.5l-6.5-8.6l-2.8,2.7v4.7c0,0.5-0.2,1-0.5,1.3c-0.3,0.3-0.8,0.5-1.4,0.5c-0.5,0-1-0.2-1.3-0.5
		C45.2,42.5,45,42,45,41.5V24.2c0-0.5,0.2-1,0.5-1.3c0.4-0.4,0.8-0.5,1.4-0.5c0.5,0,1,0.2,1.3,0.5c0.3,0.3,0.5,0.8,0.5,1.3v8.2
		l9.6-9.5c0.5-0.5,1-0.7,1.5-0.7c0.5,0,0.8,0.2,1.2,0.6c0.3,0.4,0.5,0.8,0.5,1.2c0,0.4-0.2,0.8-0.5,1.2l-6.5,6.2l6.7,8.8
		C61.2,40.4,61.3,40.6,61.4,40.8"/>
	<path class="st1" d="M94.7,23.7c1.3,0.9,2.4,2.2,3.1,3.8c0.7,1.6,1.1,3.4,1.1,5.3c0,2-0.4,3.7-1.1,5.3c-0.7,1.6-1.7,2.9-3.1,3.8
		c-1.4,0.9-3,1.4-4.8,1.4h-7.2c-0.5,0-1-0.2-1.3-0.5c-0.3-0.3-0.5-0.8-0.5-1.3V24.2c0-0.5,0.2-1,0.5-1.3c0.4-0.3,0.8-0.5,1.3-0.5
		h7.2C91.8,22.3,93.4,22.8,94.7,23.7 M93.6,37.9c0.9-1.3,1.3-3,1.3-5.1c0-2-0.5-3.7-1.4-5.1c-0.9-1.3-2.3-2-4-2h-4.9v14.1h4.9
		C91.4,39.9,92.7,39.2,93.6,37.9"/>
	<path class="st1" d="M120.3,38.3c-0.9,1.7-2.1,3-3.6,3.9c-1.6,1-3.3,1.4-5.2,1.4c-1.9,0-3.7-0.5-5.2-1.4c-1.5-1-2.8-2.3-3.6-3.9
		c-0.9-1.6-1.3-3.5-1.3-5.4s0.4-3.8,1.3-5.4c0.9-1.6,2.1-3,3.6-3.9c1.6-1,3.3-1.4,5.2-1.4c1.9,0,3.7,0.5,5.2,1.4
		c1.6,1,2.8,2.3,3.6,3.9c0.9,1.7,1.3,3.5,1.3,5.4S121.2,36.6,120.3,38.3 M117,29.2c-0.5-1.1-1.3-2-2.3-2.6c-1-0.6-2-1-3.2-1
		c-1.2,0-2.3,0.3-3.3,0.9c-0.9,0.6-1.7,1.5-2.2,2.6c-0.5,1.1-0.8,2.3-0.8,3.7s0.3,2.6,0.8,3.7c0.5,1.1,1.3,2,2.2,2.6s2,0.9,3.3,0.9
		c1.2,0,2.3-0.3,3.2-1c1-0.6,1.7-1.5,2.3-2.6c0.5-1.1,0.8-2.3,0.8-3.6S117.5,30.3,117,29.2"/>
	<path class="st2" d="M81.2,35.5c0,6-4.9,10.8-10.8,10.8c-6,0-10.8-4.8-10.8-10.8c0-6,4.9-10.8,10.8-10.8
		C76.3,24.7,81.2,29.5,81.2,35.5z"/>
	<path class="st1" d="M81.2,35.5c0,6-4.9,10.8-10.8,10.8c-6,0-10.8-4.8-10.8-10.8c0-6,4.9-10.8,10.8-10.8
		C76.3,24.7,81.2,29.5,81.2,35.5"/>
	<path class="st3" d="M77.2,35.7c-0.3,0.3-0.6,0.4-1,0.4H65.6c0.1,1.5,0.7,2.6,1.7,3.5c1,0.9,2.2,1.3,3.6,1.3c1,0,1.7-0.1,2.3-0.4
		c0.6-0.3,1.1-0.6,1.6-1.1c0.3-0.2,0.6-0.3,0.9-0.3c0.3,0,0.6,0.1,0.9,0.4c0.2,0.2,0.3,0.5,0.3,0.8c0,0.4-0.2,0.8-0.6,1.1
		c-0.6,0.6-1.3,1.1-2.3,1.5c-1,0.4-1.9,0.6-2.9,0.6c-1.6,0-3-0.3-4.3-1c-1.2-0.7-2.2-1.6-2.8-2.8c-0.7-1.2-1-2.6-1-4.1
		c0-1.7,0.3-3.2,1-4.4c0.7-1.3,1.6-2.2,2.7-2.9c1.1-0.7,2.3-1,3.6-1c1.3,0,2.5,0.3,3.6,1c1.1,0.7,2,1.6,2.7,2.7c0.7,1.2,1,2.5,1,3.9
		C77.6,35.2,77.4,35.5,77.2,35.7 M67.4,30.8c-0.8,0.6-1.4,1.6-1.6,2.9h8.8v-0.2c-0.1-1.1-0.6-1.9-1.4-2.6c-0.8-0.7-1.8-1-2.9-1
		C69.1,29.8,68.2,30.1,67.4,30.8"/>
	<path class="st0" d="M56.2,70.3c0,4.8-3.9,8.7-8.7,8.7c-4.8,0-8.7-3.9-8.7-8.7c0-4.8,3.9-8.7,8.7-8.7
		C52.3,61.6,56.2,65.5,56.2,70.3"/>
	<path class="st0" d="M34.9,74.3c0,2.2-1.8,4-4,4c-2.2,0-4-1.8-4-4c0-2.2,1.8-4,4-4C33.1,70.3,34.9,72.1,34.9,74.3"/>
</g>
</svg>
