<svg version="1.1" id="Layer_1" xmlns="http://www.w3.org/2000/svg" xmlns:xlink="http://www.w3.org/1999/xlink" x="0px" y="0px"
	 viewBox="0 0 40 54" style="enable-background:new 0 0 40 54;" xml:space="preserve">
<style type="text/css">
	.st0{fill:none;stroke:#000000;stroke-width:2;stroke-linecap:round;stroke-linejoin:round;stroke-miterlimit:10;}
	.st1{fill:none;stroke:#000000;stroke-width:2;stroke-miterlimit:10;}
	.st2{fill:none;stroke:#000000;stroke-width:2;stroke-linecap:round;stroke-miterlimit:10;}
</style>
<path class="st0" d="M39,53H1V5c0-2.2,1.8-4,4-4h30c2.2,0,4,1.8,4,4V53z"/>
<path class="st0" d="M34,5H6C5.4,5,5,5.4,5,6v22c0,0.6,0.4,1,1,1h28c0.6,0,1-0.4,1-1V6C35,5.4,34.6,5,34,5z"/>
<rect x="9" y="9" class="st0" width="14" height="12"/>
<line class="st0" x1="27" y1="11" x2="31" y2="11"/>
<line class="st0" x1="27" y1="15" x2="31" y2="15"/>
<line class="st0" x1="27" y1="19" x2="31" y2="19"/>
<line class="st0" x1="9" y1="25" x2="23" y2="25"/>
<line class="st0" x1="27" y1="25" x2="31" y2="25"/>
<path class="st1" d="M13,43H9c-1.1,0-2-0.9-2-2v-4c0-1.1,0.9-2,2-2h4c1.1,0,2,0.9,2,2v4C15,42.1,14.1,43,13,43z"/>
<line class="st2" x1="19" y1="37" x2="33" y2="37"/>
<line class="st2" x1="19" y1="41" x2="27" y2="41"/>
</svg>
