<svg version="1.1" id="Layer_5" xmlns="http://www.w3.org/2000/svg" xmlns:xlink="http://www.w3.org/1999/xlink" x="0px" y="0px"
	 viewBox="0 0 54.3 49.2" style="enable-background:new 0 0 54.3 49.2;" xml:space="preserve">
<style type="text/css">
	.st0{fill:none;stroke:#000000;stroke-width:2;stroke-miterlimit:10;}
	.st1{fill:none;stroke:#000000;stroke-width:2;stroke-linecap:round;stroke-miterlimit:10;}
</style>
<g>
	<path class="st0" d="M27.2,1c-1.1,0-2.1,0.6-2.6,1.5L1.4,43.7c-0.5,0.9-0.5,2.1,0,3C2,47.6,2.9,48.2,4,48.2h46.3
		c1.1,0,2-0.6,2.6-1.5c0.5-0.9,0.6-2,0-3L29.8,2.5C29.2,1.6,28.3,1,27.2,1z"/>
</g>
<path class="st0" d="M8.3,41.7l18-32.1c0.4-0.7,1.4-0.7,1.7,0l18,32.1c0.4,0.7-0.1,1.5-0.9,1.5H9.1C8.4,43.2,7.9,42.4,8.3,41.7z"/>
<circle cx="27.2" cy="36.2" r="2"/>
<line class="st1" x1="27.2" y1="19.2" x2="27.2" y2="31.2"/>
</svg>
