<svg version="1.1" id="Layer_1" xmlns="http://www.w3.org/2000/svg" xmlns:xlink="http://www.w3.org/1999/xlink" x="0px" y="0px"
	 viewBox="0 0 20 20" style="enable-background:new 0 0 20 20;" xml:space="preserve">
<path d="M17,2h-2V1c0-0.6-0.4-1-1-1c-0.6,0-1,0.4-1,1v1H7V1c0-0.6-0.4-1-1-1S5,0.4,5,1v1H3C1.3,2,0,3.3,0,5v12c0,1.7,1.3,3,3,3h14
	c1.7,0,3-1.3,3-3V5C20,3.3,18.7,2,17,2 M18,17c0,0.6-0.4,1-1,1H3c-0.6,0-1-0.4-1-1V5c0-0.6,0.4-1,1-1h2v1c0,0.6,0.4,1,1,1s1-0.4,1-1
	V4h6v1c0,0.6,0.4,1,1,1c0.6,0,1-0.4,1-1V4h2c0.6,0,1,0.4,1,1V17z"/>
<path d="M6,8c0.6,0,1,0.4,1,1c0,0.6-0.4,1-1,1c-0.6,0-1-0.4-1-1C5,8.4,5.4,8,6,8"/>
<path d="M10,8c0.6,0,1,0.4,1,1c0,0.6-0.4,1-1,1c-0.6,0-1-0.4-1-1C9,8.4,9.4,8,10,8"/>
<path d="M14,8c0.6,0,1,0.4,1,1c0,0.6-0.4,1-1,1c-0.6,0-1-0.4-1-1C13,8.4,13.4,8,14,8"/>
<path d="M6,11c0.6,0,1,0.4,1,1c0,0.6-0.4,1-1,1c-0.6,0-1-0.4-1-1C5,11.4,5.4,11,6,11"/>
<path d="M10,11c0.6,0,1,0.4,1,1c0,0.6-0.4,1-1,1c-0.6,0-1-0.4-1-1C9,11.4,9.4,11,10,11"/>
<path d="M14,11c0.6,0,1,0.4,1,1c0,0.6-0.4,1-1,1c-0.6,0-1-0.4-1-1C13,11.4,13.4,11,14,11"/>
<path d="M6,14c0.6,0,1,0.4,1,1s-0.4,1-1,1c-0.6,0-1-0.4-1-1S5.4,14,6,14"/>
<path d="M10,14c0.6,0,1,0.4,1,1s-0.4,1-1,1c-0.6,0-1-0.4-1-1S9.4,14,10,14"/>
<path d="M14,14c0.6,0,1,0.4,1,1s-0.4,1-1,1c-0.6,0-1-0.4-1-1S13.4,14,14,14"/>
</svg>
