<?xml version="1.0" encoding="utf-8"?>
<!-- Generator: Adobe Illustrator 23.0.3, SVG Export Plug-In . SVG Version: 6.00 Build 0)  -->
<svg version="1.1" id="Layer_1" xmlns="http://www.w3.org/2000/svg" xmlns:xlink="http://www.w3.org/1999/xlink" x="0px" y="0px"
	 viewBox="0 0 48 58" style="enable-background:new 0 0 48 58;" xml:space="preserve">
<style type="text/css">
	.st0{fill:none;stroke:#000000;stroke-width:2;stroke-linecap:round;stroke-linejoin:round;stroke-miterlimit:10;}
</style>
<path class="st0" d="M13,37C6.9,37,1,41.9,1,48v9h46v-9c0-6.1-5.9-11-12-11"/>
<path class="st0" d="M24,35L24,35c-7.2,0-13-5.8-13-13v-5c0-6.6,5.4-12,12-12h2c6.6,0,12,5.4,12,12v5C37,29.2,31.2,35,24,35z"/>
<line class="st0" x1="17" y1="33" x2="13" y2="37"/>
<line class="st0" x1="31" y1="33" x2="35" y2="37"/>
<path class="st0" d="M12,17.6c5,0,10-5.6,10-5.6s6.2,7.3,14.7,8.8"/>
<path class="st0" d="M13,37c0,0,3,7,11,7s11-7,11-7"/>
<path class="st0" d="M11,25H9c-1.1,0-2-0.9-2-2v-5C7,8.6,14.6,1,24,1s17,7.6,17,17v5c0,1.1-0.9,2-2,2h-2"/>
<line class="st0" x1="11" y1="15" x2="8" y2="15"/>
<line class="st0" x1="40" y1="15" x2="37" y2="15"/>
<path class="st0" d="M9,25L9,25c0,2.2,1.8,4,4,4h8"/>
<path class="st0" d="M25,31h-2c-1.1,0-2-0.9-2-2s0.9-2,2-2h2c1.1,0,2,0.9,2,2S26.1,31,25,31z"/>
<path d="M20,22c0,0.6-0.4,1-1,1c-0.6,0-1-0.4-1-1c0-0.6,0.4-1,1-1C19.6,21,20,21.4,20,22"/>
<path d="M30,22c0,0.6-0.4,1-1,1c-0.6,0-1-0.4-1-1c0-0.6,0.4-1,1-1C29.6,21,30,21.4,30,22"/>
</svg>
