<?xml version="1.0" encoding="utf-8"?>
<!-- Generator: Adobe Illustrator 23.0.3, SVG Export Plug-In . SVG Version: 6.00 Build 0)  -->
<svg version="1.1" id="Layer_3" xmlns="http://www.w3.org/2000/svg" xmlns:xlink="http://www.w3.org/1999/xlink" x="0px" y="0px"
	 viewBox="0 0 60 50" style="enable-background:new 0 0 60 50;" xml:space="preserve">
<style type="text/css">
	.st0{fill:none;stroke:#000000;stroke-width:2;stroke-linecap:round;stroke-linejoin:round;stroke-miterlimit:10;}
	.st1{fill:none;stroke:#000000;stroke-width:2;stroke-miterlimit:10;}
</style>
<path class="st0" d="M43,1H17c-1.1,0-2,0.9-2,2v8h30V3C45,1.9,44.1,1,43,1z"/>
<circle cx="42" cy="5" r="1"/>
<circle cx="42" cy="8" r="1"/>
<circle cx="39" cy="8" r="1"/>
<circle cx="25" cy="39" r="1"/>
<circle cx="35" cy="39" r="1"/>
<path class="st1" d="M30,49L30,49c-4.97,0-9-4.03-9-9V11h18v29C39,44.97,34.97,49,30,49z"/>
<line class="st0" x1="29" y1="39" x2="31" y2="39"/>
<path class="st0" d="M34,29c0,2.21-1.79,4-4,4s-4-1.79-4-4c0-3,4-10,4-10S34,26,34,29z"/>
<g>
	<path class="st0" d="M7,27H5V15h2c1.1,0,2,0.9,2,2v8C9,26.1,8.1,27,7,27z"/>
	<rect x="13" y="15" class="st0" width="4" height="12"/>
	<line class="st0" x1="10" y1="17" x2="12" y2="17"/>
	<line class="st0" x1="10" y1="25" x2="12" y2="25"/>
	<line class="st0" x1="18" y1="17" x2="20" y2="17"/>
	<line class="st0" x1="18" y1="25" x2="20" y2="25"/>
</g>
<g>
	<path class="st0" d="M53,33h2v12h-2c-1.1,0-2-0.9-2-2v-8C51,33.9,51.9,33,53,33z"/>
	<rect x="43" y="33" transform="matrix(-1 -1.224647e-16 1.224647e-16 -1 90 78)" class="st0" width="4" height="12"/>
	<line class="st0" x1="50" y1="43" x2="48" y2="43"/>
	<line class="st0" x1="50" y1="35" x2="48" y2="35"/>
	<line class="st0" x1="42" y1="43" x2="39" y2="43"/>
	<line class="st0" x1="42" y1="35" x2="40" y2="35"/>
</g>
<g>
	<path class="st0" d="M59,22.22l-1.84,0.46c-0.31,0.08-0.56,0.29-0.68,0.59c-0.12,0.29-0.1,0.63,0.07,0.9l0.98,1.63l-1.72,1.72
		l-1.63-0.98c-0.27-0.16-0.6-0.19-0.9-0.07c-0.29,0.12-0.51,0.37-0.59,0.68L52.22,29h-2.44l-0.46-1.84
		c-0.08-0.31-0.29-0.56-0.59-0.68c-0.29-0.12-0.63-0.1-0.9,0.07l-1.63,0.98l-1.72-1.72l0.98-1.63c0.16-0.27,0.19-0.6,0.07-0.9
		c-0.12-0.29-0.37-0.51-0.68-0.59L43,22.22v-2.44l1.84-0.46c0.31-0.08,0.56-0.29,0.68-0.59c0.12-0.29,0.1-0.63-0.07-0.9l-0.98-1.63
		l1.72-1.72l1.63,0.98c0.27,0.16,0.6,0.19,0.9,0.07c0.29-0.12,0.51-0.37,0.59-0.68L49.78,13h2.44l0.46,1.84
		c0.08,0.31,0.29,0.56,0.59,0.68c0.29,0.12,0.63,0.1,0.9-0.07l1.63-0.98l1.72,1.72l-0.98,1.63c-0.16,0.27-0.19,0.6-0.07,0.9
		c0.12,0.29,0.37,0.51,0.68,0.59L59,19.78V22.22z"/>
	<circle class="st0" cx="51" cy="20.77" r="2"/>
</g>
<g>
	<path class="st0" d="M17,40.22l-1.84,0.46c-0.31,0.08-0.56,0.29-0.68,0.59c-0.12,0.29-0.1,0.63,0.07,0.9l0.98,1.63l-1.72,1.72
		l-1.63-0.98c-0.27-0.16-0.6-0.19-0.9-0.07c-0.29,0.12-0.51,0.37-0.59,0.68L10.22,47H7.78l-0.46-1.84
		c-0.08-0.31-0.29-0.56-0.59-0.68c-0.29-0.12-0.63-0.1-0.9,0.07l-1.63,0.98L2.48,43.8l0.98-1.63c0.16-0.27,0.19-0.6,0.07-0.9
		c-0.12-0.29-0.37-0.51-0.68-0.59L1,40.22v-2.44l1.84-0.46c0.31-0.08,0.56-0.29,0.68-0.59c0.12-0.29,0.1-0.63-0.07-0.9l-0.98-1.63
		l1.72-1.72l1.63,0.98c0.27,0.16,0.6,0.19,0.9,0.07c0.29-0.12,0.51-0.37,0.59-0.68L7.78,31h2.44l0.46,1.84
		c0.08,0.31,0.29,0.56,0.59,0.68c0.29,0.12,0.63,0.1,0.9-0.07l1.63-0.98l1.72,1.72l-0.98,1.63c-0.16,0.27-0.19,0.6-0.07,0.9
		c0.12,0.29,0.37,0.51,0.68,0.59L17,37.78V40.22z"/>
	<circle class="st0" cx="9" cy="38.77" r="2"/>
</g>
</svg>
