<svg version="1.1" id="Capa_1" xmlns="http://www.w3.org/2000/svg" xmlns:xlink="http://www.w3.org/1999/xlink" x="0px" y="0px"
	 viewBox="0 0 93.5 98.4" style="enable-background:new 0 0 93.5 98.4;" xml:space="preserve">
<style type="text/css">
	.st0{fill:#030104;}
</style>
<path class="st0" d="M24.4,98.4c-6.6,0-12.7-2.8-17.2-7.2c-8.6-8.6-11-23.6,1.1-35.7C15.4,48.4,43.7,20,57.8,5.9
	c5-5,11.4-7,17.5-5.3c6,1.6,10.9,6.5,12.5,12.5c1.6,6.1-0.3,12.5-5.3,17.5L35.2,78c-2.7,2.7-5.8,4.3-8.8,4.6c-3,0.3-5.9-0.7-8-2.7
	c-3.7-3.7-4.2-10.6,1.9-16.7l33.3-33.3c1.4-1.4,3.6-1.4,4.9,0s1.4,3.6,0,4.9L25.3,68.2c-2.9,2.9-3.1,5.6-1.9,6.8
	c0.5,0.5,1.4,0.8,2.3,0.7c1.4-0.2,3.1-1.1,4.6-2.6l47.4-47.4c3.3-3.3,4.5-7.1,3.5-10.8c-1-3.6-4-6.6-7.6-7.6
	c-3.7-1-7.5,0.3-10.8,3.5C48.6,25,20.3,53.3,13.2,60.4c-9.2,9.2-7,19.8-1.1,25.8s16.6,8.2,25.8-1.1l49.5-49.5c1.4-1.4,3.6-1.4,4.9,0
	s1.4,3.6,0,4.9L42.9,90.1C37.1,95.9,30.6,98.4,24.4,98.4z"/>
</svg>
