<svg version="1.1" id="Layer_2" xmlns="http://www.w3.org/2000/svg" xmlns:xlink="http://www.w3.org/1999/xlink" x="0px" y="0px"
	 viewBox="0 0 52.6 55" style="enable-background:new 0 0 52.6 55;" xml:space="preserve">
<style type="text/css">
	.st0{fill:none;stroke:#000000;stroke-width:2;stroke-linejoin:round;stroke-miterlimit:10;}
	.st1{fill:none;stroke:#000000;stroke-width:2;stroke-linecap:round;stroke-linejoin:round;stroke-miterlimit:10;}
</style>
<path class="st0" d="M44,38v-8h-6v8l-7.7,11.8c-0.9,2,0.5,4.2,2.7,4.2h15.7c2.2,0,3.6-2.3,2.7-4.2L44,38z"/>
<path class="st1" d="M8.7,15.4L17,4.3L30.3,22c1.7,2.6,2.7,5.6,2.7,9c0,8.8-7.2,16-16,16S1,39.8,1,31c0-3.3,1-6.4,2.7-8.9l0.9-1.1"
	/>
<path class="st1" d="M35,14c0,2.2-1.8,4-4,4"/>
<path class="st1" d="M23.1,12.6c0.2-1.4,0.8-2.6,1.7-3.7L31,1l6.2,7.9c1.1,1.4,1.8,3.1,1.8,5.1c0,4.4-3.6,8-8,8"/>
<path class="st1" d="M27.9,32.5c-0.5,3.9-3.1,7.2-6.6,8.7"/>
<circle cx="6.5" cy="18.1" r="1"/>
<circle cx="16" cy="18" r="1"/>
<line class="st1" x1="33" y1="46" x2="49" y2="46"/>
<circle class="st1" cx="11" cy="33" r="3"/>
<circle class="st1" cx="13.5" cy="24.5" r="1.5"/>
</svg>
