<svg version="1.1" id="Layer_3" xmlns="http://www.w3.org/2000/svg" xmlns:xlink="http://www.w3.org/1999/xlink" x="0px" y="0px"
	 viewBox="0 0 56 55" style="enable-background:new 0 0 56 55;" xml:space="preserve">
<style type="text/css">
	.st0{fill:none;stroke:#000000;stroke-width:2;stroke-linecap:round;stroke-linejoin:round;stroke-miterlimit:10;}
</style>
<path class="st0" d="M19.7,22.4L28,11.3L41.3,29c1.7,2.6,2.7,5.6,2.7,9c0,8.8-7.2,16-16,16s-16-7.2-16-16c0-3.3,1-6.4,2.7-8.9
	l0.9-1.1"/>
<path class="st0" d="M13,14c0,2.2-1.8,4-4,4"/>
<path class="st0" d="M15.2,8.9c1.1,1.4,1.8,3.1,1.8,5.1c0,4.4-3.6,8-8,8s-8-3.6-8-8c0-1.9,0.7-3.7,1.8-5.1L9,1L15.2,8.9z"/>
<path class="st0" d="M51,14c0,2.2-1.8,4-4,4"/>
<path class="st0" d="M53.2,8.9c1.1,1.4,1.8,3.1,1.8,5.1c0,4.4-3.6,8-8,8s-8-3.6-8-8c0-1.9,0.7-3.7,1.8-5.1L47,1L53.2,8.9z"/>
<path class="st0" d="M38.9,39.5c-0.5,3.9-3.1,7.2-6.6,8.7"/>
<circle cx="39" cy="36" r="1"/>
<circle cx="17.5" cy="25.1" r="1"/>
</svg>
