<?xml version="1.0" encoding="utf-8"?>
<!-- Generator: Adobe Illustrator 23.0.3, SVG Export Plug-In . SVG Version: 6.00 Build 0)  -->
<svg version="1.1" id="Isolation_Mode" xmlns="http://www.w3.org/2000/svg" xmlns:xlink="http://www.w3.org/1999/xlink" x="0px"
	 y="0px" viewBox="0 0 46.15 29.77" style="enable-background:new 0 0 46.15 29.77;" xml:space="preserve">
<g>
	<g>
		<g>
			<polygon points="28.69,0 23.35,1.36 23.35,3.89 0,10.68 0,11.49 8.24,20.45 26.16,15.75 27.06,3.53 28.69,1.45 			"/>
		</g>
		<g>
			<path d="M21.09,3.53c-0.36,0-17.74,5.18-17.74,5.18L5.7,4.98l2.9-0.72L10.68,0L21.09,3.53z"/>
		</g>
		<g>
			<g>
				<g>
					<g>
						<path d="M36.59,21.39c-2.31,0-4.19,1.88-4.19,4.19s1.88,4.19,4.19,4.19c2.31,0,4.19-1.88,4.19-4.19S38.91,21.39,36.59,21.39z
							 M37.44,26.5c-0.22,0.2-0.52,0.33-0.85,0.33c-0.33,0-0.62-0.13-0.85-0.33c-0.25-0.23-0.41-0.56-0.41-0.92
							c0-0.08,0.01-0.15,0.02-0.23c0.11-0.58,0.62-1.02,1.23-1.02s1.12,0.44,1.23,1.02c0.01,0.07,0.02,0.15,0.02,0.23
							C37.84,25.94,37.69,26.27,37.44,26.5z"/>
					</g>
					<g>
						<path d="M13.18,21.39h-0.02c-2.07,0-3.78,1.51-4.12,3.48C9,25.1,8.98,25.34,8.98,25.58c0,2.32,1.88,4.19,4.19,4.19
							c2.31,0,4.19-1.88,4.19-4.19c0-0.24-0.02-0.48-0.06-0.71C16.96,22.89,15.25,21.39,13.18,21.39z M14.02,26.5
							c-0.22,0.2-0.52,0.33-0.85,0.33c-0.33,0-0.62-0.13-0.85-0.33c-0.25-0.23-0.41-0.56-0.41-0.92c0-0.08,0.01-0.15,0.02-0.23
							c0.03-0.18,0.1-0.34,0.2-0.49c0.23-0.32,0.6-0.54,1.03-0.54c0.43,0,0.8,0.21,1.03,0.54c0.1,0.14,0.17,0.31,0.2,0.49
							c0.01,0.07,0.02,0.15,0.02,0.23C14.42,25.94,14.26,26.27,14.02,26.5z"/>
					</g>
					<g>
						<path d="M11.66,21.39H8.13v3.48h0.65c0-0.01,0-0.03,0.01-0.04C9.06,23.2,10.19,21.92,11.66,21.39z"/>
					</g>
					<g>
						<g>
							<path d="M45.27,22.69c-0.02-1.91,0.04-3.81-0.04-5.72c-0.61-0.28-1.23-0.56-1.84-0.85c-0.43-0.2-0.86-0.4-1.28-0.61
								c-0.06-0.02-0.11-0.05-0.16-0.08c-0.87-0.47-0.84-1.64-1.17-2.47c-0.34-1.41-0.91-2.78-1.25-4.18
								c-0.22-0.89-0.35-1.8-0.27-2.73c-2.5-0.04-4.99-0.02-7.47,0c-0.01,0-0.02,0-0.02,0c0,0,0,0,0,0l-0.01-0.01v3.08l0.01,0.01
								c-0.01,4.08-0.04,8.17,0,12.25l-17.08,0c1.48,0.53,2.6,1.81,2.88,3.43c0,0.01,0,0.03,0.01,0.04l14.25,0
								c0.61-1.95,2.14-3.83,4.34-3.95c2.42-0.35,4.67,1.51,5.19,3.83c1.6,0.02,3.19,0.02,4.79,0.02c0-0.67,0.02-1.35,0.02-2.02
								C45.85,22.72,45.57,22.71,45.27,22.69z M35.06,15.18c-0.02-1.86-0.05-3.72,0.02-5.58c1.25,0,2.51-0.02,3.76,0.03
								c0.49,1.84,1.09,3.67,1.58,5.53C38.62,15.19,36.85,15.18,35.06,15.18z M45.07,22.83c-1.08,0.04-2.19,0.04-3.27,0.02
								c-0.02-0.65-0.02-1.29,0-1.94c1.08-0.02,2.17-0.02,3.25,0C45.09,21.56,45.09,22.19,45.07,22.83z"/>
						</g>
					</g>
				</g>
			</g>
		</g>
	</g>
	<g>
		<rect x="24.45" y="15.77" transform="matrix(0.9659 -0.2588 0.2588 0.9659 -4.0391 7.0559)" width="0.67" height="6.2"/>
	</g>
	<g>
		<rect x="24.13" y="17.12" transform="matrix(0.9659 -0.2589 0.2589 0.9659 -4.0548 7.0643)" width="1.34" height="3.62"/>
	</g>
</g>
</svg>
