<svg xmlns="http://www.w3.org/2000/svg" xmlns:xlink="http://www.w3.org/1999/xlink" version="1.1" x="0px" y="0px"
  viewBox="0 0 60 60" style="enable-background:new 0 0 60 60;" xml:space="preserve">
  
  <g id="Layer_1">
    <rect y="0" class="st0" width="60" height="60" />
  </g>
  <g id="Layer_3_copy">
    <g>
      <path
        d="M16,19c3.86,0,7-3.14,7-7s-3.14-7-7-7s-7,3.14-7,7S12.14,19,16,19z M16,7c2.76,0,5,2.24,5,5s-2.24,5-5,5s-5-2.24-5-5    S13.24,7,16,7z" />
      <path
        d="M44,21c3.86,0,7-3.14,7-7c0-1.91-0.77-3.65-2.02-4.91C48.98,9.06,49,9.03,49,9c0-2.76-2.24-5-5-5s-5,2.24-5,5    c0,0.03,0.02,0.06,0.02,0.09C37.77,10.35,37,12.09,37,14C37,17.86,40.14,21,44,21z M44,19c-2.76,0-5-2.24-5-5s2.24-5,5-5    s5,2.24,5,5S46.76,19,44,19z M44,6c1.11,0,2.06,0.61,2.58,1.5C45.78,7.18,44.91,7,44,7s-1.78,0.18-2.58,0.5    C41.94,6.61,42.89,6,44,6z" />
      <path
        d="M48,22h-8c-2.88,0-5.54,1.59-6.95,4.07C32.21,25.41,31.16,25,30,25c-0.86,0-1.66,0.24-2.36,0.62    C26.63,22.33,23.59,20,20,20h-8c-4.41,0-8,3.59-8,8v12c0,0.55,0.45,1,1,1h3.1l1.91,18.1C10.06,59.61,10.49,60,11,60h10    c0.51,0,0.93-0.38,0.99-0.88l0.95-8.01c0.06-0.55-0.33-1.04-0.88-1.11c-0.55-0.07-1.05,0.33-1.11,0.88L20.11,58H11.9L9.99,39.9    C9.94,39.39,9.51,39,9,39H6V28c0-3.31,2.69-6,6-6h8c3.01,0,5.49,2.19,5.92,5.13C25.34,27.95,25,28.93,25,30c0,2.76,2.24,5,5,5    s5-2.24,5-5c0-0.84-0.23-1.63-0.6-2.32c0.06-0.07,0.13-0.14,0.17-0.23C35.55,25.35,37.69,24,40,24h8c3.31,0,6,2.69,6,6v9h-3    c-0.51,0-0.94,0.39-0.99,0.9L48.1,58h-8.21l-0.78-6.48c-0.07-0.55-0.55-0.94-1.11-0.87c-0.55,0.07-0.94,0.56-0.87,1.11l0.88,7.36    C38.07,59.62,38.49,60,39,60h10c0.51,0,0.94-0.39,0.99-0.9L51.9,41H55c0.55,0,1-0.45,1-1V30C56,25.59,52.41,22,48,22z M30,33    c-1.65,0-3-1.35-3-3s1.35-3,3-3s3,1.35,3,3S31.65,33,30,33z" />
      <path
        d="M39,48v-5c0-3.86-3.14-7-7-7h-4c-3.86,0-7,3.14-7,7v5c0,0.55,0.45,1,1,1h2.17l1.85,10.18C26.1,59.65,26.52,60,27,60h6    c0.48,0,0.9-0.35,0.98-0.82L35.83,49H38C38.55,49,39,48.55,39,48z M37,47h-2c-0.48,0-0.9,0.35-0.98,0.82L32.17,58h-4.33    l-1.85-10.18C25.9,47.35,25.48,47,25,47h-2v-4c0-2.76,2.24-5,5-5h4c2.76,0,5,2.24,5,5V47z" />
    </g>
  </g>
</svg>