<?xml version="1.0" encoding="utf-8"?>
<!-- Generator: Adobe Illustrator 23.0.3, SVG Export Plug-In . SVG Version: 6.00 Build 0)  -->
<svg version="1.1" id="Layer_1" xmlns="http://www.w3.org/2000/svg" xmlns:xlink="http://www.w3.org/1999/xlink" x="0px" y="0px"
	 viewBox="0 0 57.8 59.1" style="enable-background:new 0 0 57.8 59.1;" xml:space="preserve">
<style type="text/css">
	.st0{fill-rule:evenodd;clip-rule:evenodd;fill:#1074B9;}
</style>
<path class="st0" d="M11.9,0H46c6.5,0,11.9,5.4,11.9,12v35.1c0,6.6-5.3,12-11.9,12H11.9C5.3,59.1,0,53.7,0,47.1V12
	C0,5.4,5.3,0,11.9,0 M54.8,28.4H29.3v27.5h14.8c5.8,0,10.6-4.8,10.6-10.7V28.4z M28.6,28.4H3.1v16.8c0,5.9,4.8,10.7,10.6,10.7h14.9
	V28.4z M29.3,27.7h25.4V13.9C54.7,8,50,3.2,44.2,3.2H29.3V27.7L29.3,27.7z M3.1,27.7h25.5V3.2H13.7C7.9,3.2,3.1,8,3.1,13.9V27.7
	L3.1,27.7z"/>
<path class="st0" d="M9.5,7.4c1.2,0,2.2,1,2.2,2.2c0,1.2-1,2.2-2.2,2.2s-2.2-1-2.2-2.2C7.4,8.4,8.4,7.4,9.5,7.4"/>
<path class="st0" d="M14.5,7.4c1.2,0,2.2,1,2.2,2.2c0,1.2-1,2.2-2.2,2.2s-2.2-1-2.2-2.2C12.3,8.4,13.3,7.4,14.5,7.4"/>
<path class="st0" d="M19.4,7.4c1.2,0,2.2,1,2.2,2.2c0,1.2-1,2.2-2.2,2.2c-1.2,0-2.2-1-2.2-2.2C17.2,8.4,18.2,7.4,19.4,7.4"/>
<rect x="9.8" y="9.2" class="st0" width="8.6" height="1.2"/>
<rect x="14.2" y="6.8" class="st0" width="1.8" height="0.6"/>
<rect x="14.2" y="11.7" class="st0" width="1.8" height="1.8"/>
<path class="st0" d="M13,14.2h4.3c0.7,0,1.3,0.6,1.3,1.3v4.3c0,0.7-0.6,1.3-1.3,1.3H13c-0.7,0-1.3-0.6-1.3-1.3v-4.3
	C11.7,14.7,12.3,14.2,13,14.2"/>
<path class="st0" d="M8.6,14.8h12.2c3.5,0,6.3,3,6.3,6.6v2h-4.3v-1.8c0-1.5-1.1-2.6-2.5-2.6H8.6L8.6,14.8L8.6,14.8z"/>
<path class="st0" d="M9.7,31.6c0.7,0.2,1.2,0.8,1.2,1.6v12.2h0.8v2.7h-0.8c0,0.8-0.5,1.4-1.2,1.6v0.2c0,0.3-0.2,0.6-0.4,0.6
	c-0.2,0-0.4-0.3-0.4-0.6v-0.2c-0.8-0.1-1.3-0.8-1.3-1.6V35.9H6.8v-2.7h0.8c0-0.8,0.6-1.4,1.3-1.6v-0.3c0-0.3,0.2-0.6,0.4-0.6
	c0.2,0,0.4,0.3,0.4,0.6V31.6L9.7,31.6z"/>
<path class="st0" d="M14.6,31.6c0.7,0.2,1.2,0.8,1.2,1.6v12.2h0.8v2.7h-0.8c0,0.8-0.5,1.4-1.2,1.6v0.2c0,0.3-0.2,0.6-0.4,0.6
	c-0.2,0-0.4-0.3-0.4-0.6v-0.2c-0.8-0.1-1.3-0.8-1.3-1.6V35.9h-0.8v-2.7h0.8c0-0.8,0.6-1.4,1.3-1.6v-0.3c0-0.3,0.2-0.6,0.4-0.6
	c0.2,0,0.4,0.3,0.4,0.6V31.6L14.6,31.6z"/>
<path class="st0" d="M19.5,31.6c0.7,0.2,1.2,0.8,1.2,1.6v12.2h0.8v2.7h-0.8c0,0.8-0.5,1.4-1.2,1.6v0.2c0,0.3-0.2,0.6-0.4,0.6
	c-0.2,0-0.4-0.3-0.4-0.6v-0.2c-0.8-0.1-1.3-0.8-1.3-1.6V35.9h-0.8v-2.7h0.8c0-0.8,0.6-1.4,1.3-1.6v-0.3c0-0.3,0.2-0.6,0.4-0.6
	c0.2,0,0.4,0.3,0.4,0.6V31.6L19.5,31.6z"/>
<path class="st0" d="M24.4,31.6c0.7,0.2,1.2,0.8,1.2,1.6v12.2h0.8v2.7h-0.8c0,0.8-0.5,1.4-1.2,1.6v0.2c0,0.3-0.2,0.6-0.4,0.6
	c-0.2,0-0.4-0.3-0.4-0.6v-0.2c-0.8-0.1-1.3-0.8-1.3-1.6V35.9h-0.8v-2.7h0.8c0-0.8,0.6-1.4,1.3-1.6v-0.3c0-0.3,0.2-0.6,0.4-0.6
	c0.2,0,0.4,0.3,0.4,0.6V31.6L24.4,31.6z"/>
<path class="st0" d="M38.3,36.4c-0.7,0.3-0.4,1.6-0.7,2.3c-1.1,2.2-3.1,3.9-3.6,6.4c-1,4.4,3.3,7.9,7,7.8c2.1,0,4-0.7,5.4-1.9
	c1.1-1,2-2.5,2.2-4.5c0.1-1.8-0.9-3.7-2.4-5.8c-0.7-1-1.1-1.7-1.3-2.5c-0.1-0.6,0-1.3-0.5-1.9L38.3,36.4z M39.9,40.6l-1,4.9l0.1-0.2
	l0.2-0.4l0.2,0.4l0.5,1.2l0.5-1.2l0.2-0.4l0.2,0.4l0.5,1.2l0.5-1.2l0.2-0.4l0.2,0.4l0.5,1.2l0.5-1.2l0.2-0.4l0.2,0.4l0.2,0.4l-1-5.2
	l0.4-0.1l1.3,6.5l0,0.2l-0.2,0l-0.1,0l-0.1,0l-0.1-0.1l-0.6-1.2l-0.5,1.2l-0.2,0.4l-0.2-0.4l-0.5-1.2l-0.5,1.2l-0.2,0.4l-0.2-0.4
	l-0.5-1.2L40,47l-0.2,0.4L39.7,47l-0.5-1.2l-0.5,1.2l0,0.1h-0.1h-0.1l-0.2,0l0.1-0.2l1.4-6.5L39.9,40.6L39.9,40.6z"/>
<path class="st0" d="M37.5,35.6c0,0.1,0,0.1,0.2,0.1l7.6,0.1c0.2,0,0.2-0.1,0.2-0.1l-0.2-0.4l-7.5-0.4L37.5,35.6L37.5,35.6z
	 M45.3,34.8l0-0.5l-7.4-0.3l0,0.5L45.3,34.8z M45.3,33.8l0-0.5L37.9,33l0,0.5L45.3,33.8z M45.3,32.9l0-0.5L37.9,32l0,0.5L45.3,32.9
	L45.3,32.9z M45.3,32c-0.1-0.7-0.7-0.9-1.4-0.9c-0.2,0-0.4,0-0.6,0c-0.1-0.6-1.1-0.9-1.7-0.9c-0.6,0-1.4,0.2-1.8,0.9h-1
	c-0.4,0-0.7,0.3-0.9,0.6L45.3,32L45.3,32z"/>
<path class="st0" d="M33.8,23.9l16,0.1c0.1-1.6,0.1-3-0.2-4.3c-0.9-2-2.3-3.9-3.6-6l0-2h-2.4v1.4h-3.2v-1.4h-2.5v2
	c-1.3,2.1-2.8,4-3.7,6C33.7,21,33.9,22.4,33.8,23.9 M41.9,14.3c1.9,0,3.4,1.5,3.4,3.4c0,1.9-1.5,3.4-3.4,3.4c-1.9,0-3.4-1.5-3.4-3.4
	C38.5,15.8,40,14.3,41.9,14.3"/>
<path class="st0" d="M32,12.3l4.9,0c0,1,0,1.8-0.5,1.8h-3.9C31.8,14,32.1,13,32,12.3"/>
<path class="st0" d="M47.4,12.3l4.9,0c0,1,0,1.8-0.5,1.8h-3.9C47.2,14,47.4,13,47.4,12.3L47.4,12.3z"/>
<path class="st0" d="M32,12.8c0.2-0.9,0.5-1.8,1-2.7c5.8-2,11.7-2.1,17.7,0c0.5,0.9,0.8,1.8,1,2.8h-5c0.2-1.7-3.4-1.8-4.9-1.8
	c-1.7,0-4.9,0.1-4.8,1.8L32,12.8L32,12.8z"/>
</svg>
