<svg version="1.1" id="Layer_5" xmlns="http://www.w3.org/2000/svg" xmlns:xlink="http://www.w3.org/1999/xlink" x="0px" y="0px"
	 viewBox="0 0 40 56" style="enable-background:new 0 0 40 56;" xml:space="preserve">
<style type="text/css">
	.st0{fill:none;stroke:#000000;stroke-width:2;stroke-miterlimit:10;}
	.st1{fill:none;stroke:#000000;stroke-width:2;stroke-linecap:round;stroke-miterlimit:10;}
	.st2{fill:none;stroke:#000000;stroke-width:2;stroke-linecap:round;stroke-linejoin:round;stroke-miterlimit:10;}
</style>
<path class="st0" d="M1,51V3c0-1.1,0.9-2,2-2h34c1.1,0,2,0.9,2,2v46"/>
<path class="st0" d="M37,47H5c-2.2,0-4,1.8-4,4v0c0,2.2,1.8,4,4,4h32c1.1,0,2-0.9,2-2v-4C39,47.9,38.1,47,37,47z"/>
<line class="st1" x1="39" y1="51" x2="5" y2="51"/>
<circle class="st1" cx="19" cy="10" r="3"/>
<polygon class="st2" points="29,41 11,41 11,37 15,37 15,21 11,21 11,17 25,17 25,37 29,37 "/>
</svg>
