<svg version="1.1" id="Layer_3_copy" xmlns="http://www.w3.org/2000/svg" xmlns:xlink="http://www.w3.org/1999/xlink" x="0px"
	 y="0px" viewBox="0 0 54 46" style="enable-background:new 0 0 54 46;" xml:space="preserve">
<style type="text/css">
	.st0{fill:none;stroke:#000000;stroke-width:2;stroke-linejoin:round;stroke-miterlimit:10;}
</style>
<path class="st0" d="M44.95,23.99l0.08,16c0,0.55-0.44,1-0.99,1.01l-4,0.02"/>
<g>
	<g>
		<g>
			<path d="M51.04,20c0.26,0,0.51,0.1,0.69,0.28c0.1,0.1,0.27,0.31,0.27,0.62c0,0.22-0.09,0.44-0.25,0.6l-2.96,2.72
				c-0.41,0.38-0.64,0.91-0.64,1.47V40c0,2.24-1.74,4-3.95,4h-8.07C33.86,44,32,42.2,32,40V22.8c0-1.54,1.3-2.8,2.9-2.8H51.04
				 M51.04,18H34.9c-2.71,0-4.9,2.15-4.9,4.8V40c0,3.31,2.75,6,6.13,6h8.07c3.38,0,5.95-2.69,5.95-6V25.7l2.99-2.75
				C53.69,22.4,54,21.67,54,20.9C54,19.3,52.68,18,51.04,18L51.04,18z"/>
		</g>
	</g>
</g>
<polyline class="st0" points="14,26 5,41 14,41 "/>
<circle class="st0" cx="6.5" cy="3.5" r="2.5"/>
<circle class="st0" cx="48" cy="12" r="3"/>
<circle class="st0" cx="43" cy="3" r="2"/>
<circle class="st0" cx="3" cy="14.5" r="2"/>
<rect y="19" width="2" height="2"/>
<rect x="4" y="25" width="2" height="2"/>
<rect x="22" y="14" width="2" height="2"/>
<rect x="24" y="18" width="2" height="2"/>
<rect x="26" y="23" width="2" height="2"/>
<rect x="20" y="34" width="2" height="2"/>
<rect x="22" y="38" width="2" height="2"/>
<rect x="34" y="40" width="2" height="2"/>
<rect x="34" y="36" width="4" height="2"/>
<rect x="34" y="32" width="2" height="2"/>
<rect x="34" y="28" width="4" height="2"/>
<path class="st0" d="M19,20V9h-6v11L1.75,39.27C0.48,41.92,2.41,45,5.36,45h21.29c2.95,0,4.88-3.08,3.61-5.73L19,20z"/>
<path class="st0" d="M39.43,16c-2.31-2.21-5.21-3.8-8.43-4.54V1h-8v10.46c-1.4,0.32-2.74,0.8-4,1.43"/>
</svg>
