<?xml version="1.0" encoding="utf-8"?>
<!-- Generator: Adobe Illustrator 23.0.3, SVG Export Plug-In . SVG Version: 6.00 Build 0)  -->
<svg version="1.1" id="Layer_1" xmlns="http://www.w3.org/2000/svg" xmlns:xlink="http://www.w3.org/1999/xlink" x="0px" y="0px"
	 viewBox="0 0 151.3 50.9" enable-background="new 0 0 151.3 50.9" xml:space="preserve">
<path fill="#233772" d="M48.9,30c0,0.2,0,0.2-0.1,0.3c0,0-0.1,0.1-0.3,0.1h-1.2c-0.1,0-0.2,0-0.3-0.1C47,30.2,47,30.2,47,30V19.9
	c0-0.3,0.1-0.5,0.2-0.7c0.1-0.2,0.4-0.2,0.7-0.2h3.9c0.5,0,1,0.1,1.5,0.3c0.4,0.2,0.8,0.4,1.2,0.7c0.3,0.3,0.6,0.7,0.7,1.1
	c0.2,0.4,0.3,0.9,0.3,1.4c0,0.3,0,0.6-0.1,1c-0.1,0.4-0.3,0.8-0.6,1.2c-0.3,0.4-0.7,0.7-1.2,1c-0.5,0.3-1.2,0.4-2,0.4h-2.6V30z
	 M53.4,22.6c0-0.2,0-0.4-0.1-0.6c-0.1-0.2-0.2-0.4-0.3-0.6c-0.1-0.2-0.3-0.3-0.6-0.4s-0.6-0.2-1-0.2H49v3.6h2.4
	c0.7,0,1.2-0.2,1.5-0.5C53.2,23.5,53.4,23.1,53.4,22.6"/>
<path fill="#233772" d="M63.7,26.1c0,1.4-0.3,2.5-1,3.3c-0.7,0.8-1.7,1.2-3,1.2c-1.3,0-2.3-0.4-2.9-1.1c-0.6-0.8-1-1.9-1-3.3
	c0-0.7,0.1-1.3,0.3-1.9c0.2-0.5,0.5-1,0.8-1.4c0.3-0.4,0.8-0.7,1.2-0.9c0.5-0.2,1-0.3,1.6-0.3c1.3,0,2.3,0.4,2.9,1.2
	C63.4,23.6,63.7,24.7,63.7,26.1 M61.8,26.1c0-0.4,0-0.8-0.1-1.1c-0.1-0.3-0.2-0.7-0.3-0.9c-0.1-0.3-0.3-0.5-0.6-0.6
	c-0.3-0.2-0.6-0.2-1-0.2c-0.3,0-0.6,0.1-0.9,0.2c-0.3,0.1-0.5,0.3-0.6,0.6c-0.2,0.3-0.3,0.5-0.4,0.9c-0.1,0.3-0.1,0.7-0.1,1.1
	c0,0.9,0.1,1.6,0.4,2.1c0.3,0.5,0.8,0.8,1.6,0.8c0.4,0,0.7-0.1,1-0.2c0.3-0.2,0.5-0.4,0.6-0.6c0.2-0.3,0.3-0.6,0.3-0.9
	C61.7,26.8,61.8,26.5,61.8,26.1"/>
<path fill="#233772" d="M68.9,28.9c0.3,0,0.7,0,1-0.1c0.3-0.1,0.6-0.2,0.9-0.3c0.1-0.1,0.2-0.1,0.3,0c0,0,0.1,0.1,0.1,0.2l0.4,0.9
	c0.1,0.2,0.1,0.3-0.1,0.4c-0.4,0.2-0.9,0.4-1.4,0.5c-0.5,0.1-1,0.1-1.4,0.1c-1.2,0-2.1-0.4-2.8-1.1c-0.6-0.7-1-1.8-1-3.3
	c0-0.7,0.1-1.3,0.3-1.9c0.2-0.6,0.4-1,0.8-1.4c0.3-0.4,0.8-0.7,1.2-0.9c0.5-0.2,1-0.3,1.6-0.3c0.4,0,0.9,0,1.3,0.1
	c0.4,0.1,0.8,0.2,1.2,0.4c0.1,0.1,0.2,0.1,0.2,0.2c0,0.1,0,0.1,0,0.2l-0.4,1c0,0.1-0.1,0.1-0.1,0.2c0,0-0.1,0-0.3,0
	c-0.3-0.1-0.5-0.2-0.8-0.3c-0.3-0.1-0.6-0.1-0.9-0.1c-0.4,0-0.7,0.1-0.9,0.2c-0.3,0.2-0.5,0.4-0.6,0.6c-0.2,0.3-0.3,0.6-0.4,0.9
	c-0.1,0.3-0.1,0.7-0.1,1.1c0,0.4,0,0.7,0.1,1.1c0.1,0.3,0.2,0.6,0.3,0.9c0.2,0.2,0.4,0.4,0.6,0.6C68.1,28.8,68.5,28.9,68.9,28.9"/>
<path fill="#233772" d="M79.1,25.8c0.5,0.2,0.8,0.5,1,0.8c0.2,0.4,0.3,0.8,0.3,1.2c0,0.4-0.1,0.7-0.2,1.1c-0.2,0.3-0.4,0.6-0.6,0.8
	c-0.3,0.2-0.6,0.4-0.9,0.5c-0.4,0.1-0.7,0.2-1.2,0.2h-3.8c-0.3,0-0.5-0.1-0.6-0.2c-0.1-0.1-0.2-0.3-0.2-0.5v-7
	c0-0.2,0.1-0.4,0.2-0.6c0.1-0.1,0.3-0.2,0.6-0.2h3.7c0.3,0,0.7,0,1,0.1c0.3,0.1,0.6,0.2,0.9,0.4c0.2,0.2,0.4,0.4,0.6,0.7
	c0.1,0.3,0.2,0.6,0.2,1c0,0.4-0.1,0.7-0.3,1C79.6,25.3,79.4,25.5,79.1,25.8L79.1,25.8z M74.8,25.1h2.4c0.1,0,0.2,0,0.3,0
	c0.1,0,0.2-0.1,0.3-0.1c0.1-0.1,0.2-0.2,0.2-0.3c0.1-0.1,0.1-0.3,0.1-0.4c0-0.2-0.1-0.4-0.2-0.6c-0.1-0.2-0.4-0.2-0.6-0.2h-2.4V25.1
	z M78.5,27.7c0-0.3-0.1-0.6-0.3-0.8c-0.2-0.2-0.5-0.3-1-0.3h-2.4v2.3h2.3c0.3,0,0.5,0,0.7-0.1c0.2-0.1,0.3-0.2,0.4-0.3
	c0.1-0.1,0.2-0.2,0.2-0.4C78.5,27.9,78.5,27.8,78.5,27.7"/>
<path fill="#233772" d="M89.3,26.1c0,1.4-0.3,2.5-1,3.3c-0.7,0.8-1.7,1.2-3,1.2c-1.3,0-2.3-0.4-2.9-1.1c-0.6-0.8-1-1.9-1-3.3
	c0-0.7,0.1-1.3,0.3-1.9c0.2-0.5,0.5-1,0.8-1.4c0.3-0.4,0.8-0.7,1.2-0.9c0.5-0.2,1-0.3,1.6-0.3c1.3,0,2.3,0.4,2.9,1.2
	C89,23.6,89.3,24.7,89.3,26.1 M87.4,26.1c0-0.4,0-0.8-0.1-1.1c-0.1-0.3-0.2-0.7-0.3-0.9c-0.1-0.3-0.3-0.5-0.6-0.6
	c-0.3-0.2-0.6-0.2-1-0.2c-0.3,0-0.6,0.1-0.9,0.2c-0.3,0.1-0.5,0.3-0.6,0.6c-0.2,0.3-0.3,0.5-0.4,0.9c-0.1,0.3-0.1,0.7-0.1,1.1
	c0,0.9,0.1,1.6,0.4,2.1c0.3,0.5,0.8,0.8,1.6,0.8c0.4,0,0.7-0.1,1-0.2c0.3-0.2,0.5-0.4,0.6-0.6c0.2-0.3,0.3-0.6,0.3-0.9
	C87.4,26.8,87.4,26.5,87.4,26.1"/>
<path fill="#233772" d="M90.7,28.8c0.1-0.1,0.3-0.3,0.3-0.4c0.1-0.2,0.2-0.3,0.2-0.5c0.1-0.2,0.1-0.4,0.2-0.6c0-0.2,0.1-0.5,0.1-0.8
	l0.6-3.7c0-0.3,0.1-0.5,0.3-0.7c0.2-0.1,0.4-0.2,0.8-0.2h4.1c0.4,0,0.7,0.1,0.8,0.2c0.1,0.2,0.2,0.4,0.2,0.7v6.1l0.5,0
	c0.2,0,0.4,0.1,0.4,0.2c0.1,0.1,0.1,0.2,0.1,0.4L99,32.7c0,0.2-0.1,0.2-0.2,0.2h-1.2c-0.1,0-0.2-0.1-0.2-0.2l-0.1-2.3h-5.7
	c0,0.4,0,0.8-0.1,1.1c0,0.4-0.1,0.8-0.1,1.2c0,0.2-0.1,0.2-0.2,0.2h-1.1c-0.1,0-0.2-0.1-0.2-0.2l-0.2-3.1c0-0.2,0-0.3,0.1-0.4
	c0.1-0.1,0.2-0.2,0.4-0.2L90.7,28.8z M96.4,23.4h-2.6l-0.3,2.4c-0.1,0.5-0.1,0.9-0.2,1.2c-0.1,0.3-0.1,0.6-0.2,0.8
	c-0.1,0.2-0.1,0.4-0.2,0.5c-0.1,0.1-0.1,0.3-0.2,0.4h3.7V23.4z"/>
<path fill="#233772" d="M107.8,26.1c0,1.4-0.3,2.5-1,3.3c-0.7,0.8-1.7,1.2-3,1.2c-1.3,0-2.3-0.4-2.9-1.1c-0.6-0.8-1-1.9-1-3.3
	c0-0.7,0.1-1.3,0.3-1.9c0.2-0.5,0.5-1,0.8-1.4c0.3-0.4,0.8-0.7,1.2-0.9c0.5-0.2,1-0.3,1.6-0.3c1.3,0,2.3,0.4,2.9,1.2
	C107.5,23.6,107.8,24.7,107.8,26.1 M105.9,26.1c0-0.4,0-0.8-0.1-1.1c-0.1-0.3-0.2-0.7-0.3-0.9c-0.1-0.3-0.3-0.5-0.6-0.6
	c-0.3-0.2-0.6-0.2-1-0.2c-0.3,0-0.6,0.1-0.9,0.2c-0.3,0.1-0.5,0.3-0.6,0.6c-0.2,0.3-0.3,0.5-0.4,0.9c-0.1,0.3-0.1,0.7-0.1,1.1
	c0,0.9,0.1,1.6,0.4,2.1c0.3,0.5,0.8,0.8,1.6,0.8c0.4,0,0.7-0.1,1-0.2c0.3-0.2,0.5-0.4,0.6-0.6c0.2-0.3,0.3-0.6,0.3-0.9
	C105.8,26.8,105.9,26.5,105.9,26.1"/>
<path fill="#233772" d="M111,30.3c0,0-0.1,0-0.2,0h-1.3c-0.1,0-0.2,0-0.2,0c0,0-0.1-0.1-0.1-0.2v-8c0-0.1,0-0.2,0.1-0.2
	c0,0,0.1,0,0.2,0h1.3c0.1,0,0.2,0,0.2,0c0,0,0.1,0.1,0.1,0.2v3h1c0.3,0,0.6-0.1,0.8-0.2c0.3-0.1,0.5-0.4,0.6-0.9l0.6-1.9
	c0-0.1,0.1-0.2,0.1-0.2c0.1,0,0.1,0,0.2,0h1.3c0.1,0,0.2,0,0.2,0.1s0,0.1,0,0.2l-0.6,2.1c-0.1,0.3-0.2,0.6-0.4,0.9
	c-0.2,0.3-0.4,0.5-0.7,0.6l0,0c0.2,0.1,0.4,0.1,0.6,0.2c0.1,0.1,0.3,0.2,0.4,0.3c0.1,0.1,0.2,0.3,0.2,0.4c0.1,0.2,0.1,0.3,0.2,0.5
	l0.8,2.8c0,0.1,0,0.1,0,0.2c0,0.1-0.1,0.1-0.2,0.1h-1.4c0,0-0.1,0-0.2,0c-0.1,0-0.1-0.1-0.1-0.2l-0.8-2.6c-0.1-0.4-0.3-0.6-0.6-0.8
	c-0.3-0.2-0.6-0.2-0.9-0.2h-1.2v3.5C111.1,30.2,111,30.3,111,30.3"/>
<path fill="#233772" d="M124.6,29.4c0,0.3-0.1,0.4-0.3,0.5c-0.2,0.1-0.5,0.2-0.8,0.3c-0.3,0.1-0.6,0.1-0.9,0.2s-0.6,0.1-0.9,0.1
	c-0.3,0-0.6,0-0.8,0c-0.7,0-1.3-0.1-1.8-0.2c-0.5-0.1-0.8-0.3-1.1-0.6c-0.3-0.2-0.5-0.5-0.6-0.9c-0.1-0.3-0.2-0.7-0.2-1
	c0-0.4,0.1-0.7,0.2-1.1c0.1-0.4,0.3-0.7,0.6-0.9c0.3-0.3,0.6-0.5,1.1-0.6c0.4-0.2,1-0.2,1.6-0.2h1.8v-0.3c0-0.2,0-0.4-0.1-0.6
	c0-0.2-0.1-0.3-0.3-0.5c-0.1-0.1-0.3-0.2-0.5-0.3c-0.2-0.1-0.5-0.1-0.8-0.1c-0.4,0-0.8,0-1.2,0.1s-0.8,0.1-1.1,0.2
	c-0.1,0-0.2,0-0.3,0c-0.1,0-0.1-0.1-0.1-0.2l-0.2-0.9c0-0.2,0-0.3,0.1-0.3c0.5-0.2,1-0.3,1.5-0.4c0.5-0.1,1-0.1,1.5-0.1
	c1.1,0,1.9,0.2,2.5,0.7c0.5,0.5,0.8,1.2,0.8,2.2V29.4z M122.7,26.4h-1.6c-0.2,0-0.4,0-0.6,0c-0.2,0-0.4,0.1-0.6,0.2
	c-0.2,0.1-0.3,0.2-0.5,0.4c-0.1,0.2-0.2,0.4-0.2,0.8c0,0.5,0.2,0.8,0.5,1c0.3,0.2,0.7,0.3,1.2,0.3c0.1,0,0.2,0,0.3,0
	c0.1,0,0.3,0,0.4,0c0.2,0,0.3,0,0.5-0.1s0.3-0.1,0.5-0.1V26.4z"/>
<path fill="#233772" d="M128.2,30.3c-0.1,0-0.1,0.1-0.3,0.1h-1.2c-0.1,0-0.2,0-0.3-0.1c-0.1,0-0.1-0.1-0.1-0.3v-7.9
	c0-0.1,0-0.2,0.1-0.2c0.1,0,0.1-0.1,0.3-0.1h1.2c0.1,0,0.2,0,0.3,0.1c0.1,0,0.1,0.1,0.1,0.3V25h3.6v-2.9c0-0.1,0-0.2,0.1-0.2
	c0.1,0,0.1-0.1,0.3-0.1h1.2c0.1,0,0.2,0,0.3,0.1c0,0,0.1,0.1,0.1,0.3V30c0,0.1,0,0.2-0.1,0.3c0,0-0.1,0.1-0.3,0.1h-1.2
	c-0.1,0-0.2,0-0.3-0.1c-0.1,0-0.1-0.1-0.1-0.3v-3.5h-3.6V30C128.3,30.2,128.2,30.3,128.2,30.3"/>
<path fill="#233772" d="M142.2,29.4c0,0.3-0.1,0.4-0.3,0.5c-0.2,0.1-0.5,0.2-0.8,0.3c-0.3,0.1-0.6,0.1-0.9,0.2
	c-0.3,0-0.6,0.1-0.9,0.1c-0.3,0-0.6,0-0.8,0c-0.7,0-1.3-0.1-1.8-0.2c-0.5-0.1-0.8-0.3-1.1-0.6c-0.3-0.2-0.5-0.5-0.6-0.9
	c-0.1-0.3-0.2-0.7-0.2-1c0-0.4,0.1-0.7,0.2-1.1c0.1-0.4,0.3-0.7,0.6-0.9c0.3-0.3,0.6-0.5,1.1-0.6c0.4-0.2,1-0.2,1.6-0.2h1.8v-0.3
	c0-0.2,0-0.4-0.1-0.6c0-0.2-0.1-0.3-0.3-0.5c-0.1-0.1-0.3-0.2-0.5-0.3c-0.2-0.1-0.5-0.1-0.8-0.1c-0.4,0-0.8,0-1.2,0.1
	c-0.4,0.1-0.8,0.1-1.1,0.2c-0.1,0-0.2,0-0.3,0c-0.1,0-0.1-0.1-0.1-0.2l-0.2-0.9c0-0.2,0-0.3,0.1-0.3c0.5-0.2,1-0.3,1.5-0.4
	c0.5-0.1,1-0.1,1.5-0.1c1.1,0,1.9,0.2,2.5,0.7c0.5,0.5,0.8,1.2,0.8,2.2V29.4z M140.3,26.4h-1.6c-0.2,0-0.4,0-0.6,0
	c-0.2,0-0.4,0.1-0.6,0.2c-0.2,0.1-0.3,0.2-0.5,0.4c-0.1,0.2-0.2,0.4-0.2,0.8c0,0.5,0.2,0.8,0.5,1c0.3,0.2,0.7,0.3,1.2,0.3
	c0.1,0,0.2,0,0.3,0c0.1,0,0.3,0,0.4,0c0.2,0,0.3,0,0.5-0.1c0.2,0,0.3-0.1,0.5-0.1V26.4z"/>
<path fill="#233772" d="M150.4,21.8c0.4,0,0.6,0.1,0.7,0.2c0.1,0.1,0.2,0.4,0.2,0.7V30c0,0.1,0,0.2-0.1,0.2c-0.1,0-0.1,0.1-0.3,0.1
	h-1.2c-0.1,0-0.2,0-0.3-0.1c-0.1,0-0.1-0.1-0.1-0.2v-6.6h-2.5l-0.1,1c-0.1,1-0.1,1.9-0.2,2.6c-0.1,0.7-0.2,1.3-0.4,1.8
	c-0.2,0.5-0.5,0.8-0.8,1.1c-0.3,0.3-0.8,0.5-1.3,0.7c-0.1,0-0.2,0.1-0.3,0c-0.1,0-0.1-0.1-0.1-0.2l-0.3-0.9c0-0.1-0.1-0.2,0-0.3
	c0,0,0.1-0.1,0.2-0.2c0.3-0.1,0.5-0.3,0.7-0.4c0.2-0.2,0.3-0.4,0.4-0.7c0.1-0.3,0.2-0.8,0.3-1.3c0.1-0.6,0.1-1.3,0.2-2.2l0.1-1.7
	c0-0.3,0.1-0.6,0.3-0.7c0.2-0.1,0.4-0.2,0.7-0.2H150.4z"/>
<path fill="#233772" d="M47.5,41.5c-0.2,0-0.3,0-0.4-0.1C47,41.3,47,41.2,47,41v-5.8c0-0.2,0.1-0.4,0.2-0.5c0.1-0.1,0.2-0.1,0.4-0.1
	h3.6c0.1,0,0.1,0,0.1,0c0,0,0,0.1,0,0.1v0.5c0,0.1,0,0.1,0,0.1c0,0-0.1,0-0.1,0h-3.3v1.8h1.8c0.5,0,1,0.1,1.3,0.2
	c0.3,0.2,0.5,0.3,0.7,0.6c0.2,0.2,0.3,0.5,0.3,0.7c0,0.2,0.1,0.5,0.1,0.6c0,0.3-0.1,0.6-0.2,0.9c-0.1,0.3-0.3,0.5-0.5,0.7
	c-0.2,0.2-0.4,0.3-0.7,0.4s-0.6,0.2-0.9,0.2H47.5z M51.1,39.4c0-0.2,0-0.4-0.1-0.5s-0.2-0.3-0.3-0.4c-0.1-0.1-0.3-0.2-0.4-0.3
	c-0.2-0.1-0.4-0.1-0.6-0.1h-1.8v2.7h1.8c0.3,0,0.5,0,0.7-0.1c0.2-0.1,0.3-0.2,0.4-0.3c0.1-0.1,0.2-0.3,0.2-0.4
	C51.1,39.6,51.1,39.5,51.1,39.4"/>
<path fill="#233772" d="M57,41.1c0,0.1,0,0.2-0.1,0.3c-0.3,0.1-0.6,0.2-1,0.3c-0.3,0-0.7,0.1-1,0.1c-0.4,0-0.8,0-1-0.1
	c-0.3-0.1-0.5-0.2-0.6-0.4c-0.2-0.2-0.3-0.3-0.3-0.5s-0.1-0.4-0.1-0.6c0-0.2,0-0.4,0.1-0.7c0.1-0.2,0.2-0.4,0.4-0.6
	c0.2-0.2,0.4-0.3,0.7-0.4c0.3-0.1,0.6-0.1,1-0.1h1.2V38c0-0.2,0-0.3,0-0.4c0-0.1-0.1-0.2-0.2-0.3c-0.1-0.1-0.2-0.2-0.4-0.2
	C55.4,37,55.2,37,55,37c-0.2,0-0.5,0-0.7,0.1c-0.3,0-0.5,0.1-0.6,0.1c-0.1,0-0.1,0-0.1,0c0,0-0.1,0-0.1-0.1l-0.1-0.4
	c0,0,0-0.1,0-0.1c0,0,0-0.1,0.1-0.1c0.2-0.1,0.5-0.2,0.9-0.2c0.3,0,0.6-0.1,0.9-0.1c0.7,0,1.1,0.1,1.4,0.4C56.9,37,57,37.4,57,38
	V41.1z M56.2,39H55c-0.1,0-0.3,0-0.4,0c-0.2,0-0.3,0.1-0.4,0.1c-0.1,0.1-0.3,0.2-0.3,0.3c-0.1,0.1-0.1,0.3-0.1,0.6
	c0,0.2,0,0.3,0.1,0.4c0.1,0.1,0.2,0.2,0.3,0.3c0.1,0.1,0.2,0.1,0.4,0.1c0.2,0,0.3,0,0.5,0c0.1,0,0.1,0,0.2,0c0.1,0,0.2,0,0.3,0
	c0.1,0,0.2,0,0.3-0.1c0.1,0,0.2-0.1,0.3-0.1V39z"/>
<path fill="#233772" d="M62.7,38.9c0,0.4,0,0.7-0.1,1c-0.1,0.3-0.2,0.6-0.4,0.9c-0.2,0.2-0.4,0.4-0.7,0.6c-0.3,0.1-0.6,0.2-1,0.2
	c-0.2,0-0.4,0-0.6,0s-0.4-0.1-0.7-0.1v1.9c0,0.1,0,0.1,0,0.1c0,0-0.1,0-0.1,0h-0.5c-0.1,0-0.1,0-0.1,0c0,0,0-0.1,0-0.1v-6.6
	c0-0.1,0-0.1,0.1-0.2c0.3-0.1,0.7-0.2,1-0.3c0.3,0,0.7-0.1,1-0.1c0.4,0,0.7,0.1,1,0.2c0.3,0.1,0.5,0.3,0.7,0.6
	c0.2,0.2,0.3,0.5,0.4,0.9C62.7,38.2,62.7,38.6,62.7,38.9 M61.8,38.9c0-0.4,0-0.7-0.1-0.9c-0.1-0.2-0.2-0.4-0.3-0.6
	c-0.1-0.1-0.3-0.3-0.5-0.3C60.7,37,60.5,37,60.3,37c-0.2,0-0.4,0-0.6,0c-0.2,0-0.4,0.1-0.5,0.1v3.5c0.2,0.1,0.5,0.1,0.6,0.1
	c0.2,0,0.3,0,0.5,0c0.2,0,0.4,0,0.6-0.1c0.2-0.1,0.3-0.2,0.5-0.3c0.1-0.2,0.2-0.4,0.3-0.6C61.8,39.6,61.8,39.3,61.8,38.9"/>
<path fill="#233772" d="M64.6,41.5c0,0-0.1,0-0.1,0H64c-0.1,0-0.1,0-0.1,0c0,0,0-0.1,0-0.1v-4.8c0-0.1,0-0.1,0-0.1c0,0,0.1,0,0.1,0
	h0.5c0.1,0,0.1,0,0.1,0c0,0,0,0.1,0,0.1v1.9h2.5v-1.9c0-0.1,0-0.1,0-0.1c0,0,0.1,0,0.1,0h0.5c0.1,0,0.1,0,0.1,0c0,0,0,0.1,0,0.1v4.8
	c0,0.1,0,0.1,0,0.1c0,0-0.1,0-0.1,0h-0.5c-0.1,0-0.1,0-0.1,0c0,0,0-0.1,0-0.1v-2.2h-2.5v2.2C64.7,41.4,64.7,41.5,64.6,41.5"/>
<path fill="#233772" d="M73.4,41.1c0,0.1-0.1,0.2-0.1,0.3c-0.3,0.1-0.6,0.2-1,0.3c-0.3,0-0.7,0.1-1,0.1c-0.4,0-0.8,0-1-0.1
	c-0.3-0.1-0.5-0.2-0.6-0.4c-0.2-0.2-0.3-0.3-0.3-0.5c-0.1-0.2-0.1-0.4-0.1-0.6c0-0.2,0-0.4,0.1-0.7c0.1-0.2,0.2-0.4,0.4-0.6
	c0.2-0.2,0.4-0.3,0.7-0.4c0.3-0.1,0.6-0.1,1-0.1h1.2V38c0-0.2,0-0.3,0-0.4c0-0.1-0.1-0.2-0.2-0.3c-0.1-0.1-0.2-0.2-0.4-0.2
	c-0.2,0-0.4-0.1-0.6-0.1c-0.2,0-0.5,0-0.7,0.1c-0.3,0-0.5,0.1-0.6,0.1c-0.1,0-0.1,0-0.1,0c0,0-0.1,0-0.1-0.1l-0.1-0.4
	c0,0,0-0.1,0-0.1c0,0,0-0.1,0.1-0.1c0.2-0.1,0.5-0.2,0.9-0.2c0.3,0,0.6-0.1,0.9-0.1c0.7,0,1.1,0.1,1.4,0.4c0.3,0.3,0.5,0.7,0.5,1.3
	V41.1z M72.5,39h-1.1c-0.1,0-0.3,0-0.4,0c-0.2,0-0.3,0.1-0.4,0.1c-0.1,0.1-0.3,0.2-0.3,0.3C70.1,39.6,70,39.8,70,40
	c0,0.2,0,0.3,0.1,0.4c0.1,0.1,0.2,0.2,0.3,0.3c0.1,0.1,0.2,0.1,0.4,0.1c0.2,0,0.3,0,0.5,0c0.1,0,0.1,0,0.2,0c0.1,0,0.2,0,0.3,0
	c0.1,0,0.2,0,0.3-0.1c0.1,0,0.2-0.1,0.3-0.1V39z"/>
<path fill="#233772" d="M76.7,42.4c-0.2,0.5-0.3,0.8-0.6,0.9c-0.2,0.2-0.5,0.3-0.9,0.3c-0.1,0-0.2,0-0.3,0c-0.1,0-0.3,0-0.5-0.1
	c-0.1,0-0.1-0.1-0.1-0.2l0.1-0.4c0-0.1,0-0.1,0.1-0.1c0,0,0.1,0,0.1,0c0.1,0,0.2,0.1,0.3,0.1c0.1,0,0.1,0,0.2,0c0.2,0,0.4,0,0.5-0.1
	c0.1-0.1,0.2-0.3,0.3-0.5c0,0,0-0.1,0-0.1c0-0.1,0.1-0.1,0.1-0.2c0-0.1,0.1-0.2,0.1-0.2c0-0.1,0-0.1,0-0.1H76c-0.1,0-0.2,0-0.2,0
	c-0.1,0-0.1-0.1-0.2-0.3l-1.5-4.7c0-0.1,0-0.1,0.1-0.1h0.7c0.1,0,0.1,0,0.1,0.1c0,0,0,0.1,0.1,0.3c0,0.1,0.1,0.3,0.2,0.5
	c0.1,0.2,0.1,0.4,0.2,0.6s0.1,0.4,0.2,0.6c0.1,0.2,0.1,0.3,0.2,0.5c0,0.1,0.1,0.2,0.1,0.3l0.5,1.7h0.1c0-0.1,0.1-0.2,0.1-0.4
	c0.1-0.2,0.1-0.4,0.2-0.6c0.1-0.2,0.1-0.4,0.2-0.6c0.1-0.2,0.1-0.3,0.1-0.3c0,0,0-0.1,0.1-0.2c0-0.1,0.1-0.2,0.1-0.4
	c0.1-0.2,0.1-0.3,0.2-0.5c0.1-0.2,0.1-0.4,0.2-0.6c0.1-0.2,0.1-0.4,0.2-0.5c0.1-0.2,0.1-0.3,0.1-0.4c0-0.1,0.1-0.1,0.1-0.1h0.6
	c0.1,0,0.1,0,0.1,0.1L76.7,42.4z"/>
<path fill="#233772" d="M79.9,36.9c0-0.2,0.1-0.3,0.1-0.4c0.1-0.1,0.2-0.1,0.4-0.1h2.5c0.2,0,0.3,0,0.4,0.1c0.1,0.1,0.1,0.2,0.1,0.4
	v4.5c0,0.1,0,0.1,0,0.1c0,0-0.1,0-0.1,0h-0.5c-0.1,0-0.1,0-0.1,0c0,0,0-0.1,0-0.1v-4.3h-1.9l-0.1,0.7c-0.1,0.7-0.1,1.2-0.2,1.6
	c-0.1,0.4-0.1,0.8-0.3,1.1c-0.1,0.3-0.3,0.5-0.4,0.7c-0.2,0.2-0.4,0.3-0.7,0.4c0,0-0.1,0-0.1,0c0,0-0.1,0-0.1-0.1l-0.1-0.4
	c0-0.1,0-0.2,0.1-0.2c0.2-0.1,0.3-0.2,0.4-0.3c0.1-0.1,0.2-0.3,0.3-0.5s0.1-0.5,0.2-0.9c0-0.4,0.1-0.8,0.1-1.4L79.9,36.9z"/>
<path fill="#EC1C24" d="M23.9,21.2l-0.5,0.4c-0.4,0.3-0.8,0.6-1.2,0.9c1,2.9,2.8,4.9,3.3,7.9c0.5,3.1-1.6,6.3-5.1,6.9
	c-2.5,0.4-5.4-1.1-6.4-3.9c-0.3,1.1-0.4,2.2-0.4,3.4c0,7.1,5.5,9.7,10.2,9.7c4.4,0,7.9-2.1,11-5c1.7-3.2,2.3-6.8,1.9-10.1
	c-0.9-8.2-6.6-9-10.9-17.4C25.8,17.3,25.7,19.8,23.9,21.2z"/>
<path fill="#0071BB" d="M24.9,0.8c0.2-0.5-0.4-1-0.9-0.7C14.1,7.9,0.2,21.3,0.2,34.6c0,10.8,8.6,16.1,18,16.1
	c9.9,0,15.4-5.1,17.6-11.4c-5.1,11.1-24.2,10.6-24.2-3.1c0-8.2,6.5-13.2,10.8-16.7C25.4,17.1,22.3,9.4,24.9,0.8z"/>
</svg>
