<svg version="1.1" id="Layer_1" xmlns="http://www.w3.org/2000/svg" xmlns:xlink="http://www.w3.org/1999/xlink" x="0px" y="0px"
	 viewBox="0 0 597.8 170.1" style="enable-background:new 0 0 597.8 170.1;" xml:space="preserve">
<style type="text/css">
	.st0{fill:#445078;}
	.st1{fill:#D24A43;}
	.st2{fill:#4B79BB;}
</style>
<g>
	<g>
		<path class="st0" d="M159.2,138.8c-0.6,0-1.1-0.1-1.3-0.4c-0.3-0.3-0.4-0.7-0.4-1.3v-19.4c0-0.7,0.2-1.2,0.5-1.6
			c0.3-0.3,0.8-0.5,1.4-0.5h12.1c0.2,0,0.4,0,0.4,0.1c0.1,0.1,0.1,0.2,0.1,0.4v1.6c0,0.2,0,0.3-0.1,0.4c-0.1,0.1-0.2,0.1-0.4,0.1
			h-11v6.1h6c1.8,0,3.2,0.3,4.3,0.8c1,0.5,1.8,1.2,2.4,1.9c0.5,0.7,0.9,1.5,1,2.4c0.2,0.8,0.2,1.5,0.2,2.1c0,1-0.2,2-0.6,2.9
			c-0.4,0.9-0.9,1.6-1.6,2.2c-0.7,0.6-1.5,1.1-2.4,1.5c-0.9,0.4-1.9,0.5-3,0.5H159.2z M171.4,131.5c0-0.6-0.1-1.2-0.3-1.7
			c-0.2-0.5-0.5-1-0.9-1.4c-0.4-0.4-0.9-0.7-1.5-0.9c-0.6-0.2-1.3-0.3-2-0.3h-6v9h6c0.9,0,1.7-0.2,2.3-0.5c0.6-0.3,1.1-0.7,1.5-1.2
			c0.4-0.5,0.6-1,0.8-1.5C171.3,132.4,171.4,131.9,171.4,131.5z"/>
		<path class="st0" d="M191.3,137.2c0,0.4-0.2,0.7-0.5,0.9c-1,0.4-2.1,0.7-3.2,0.9c-1.2,0.2-2.3,0.2-3.3,0.2c-1.4,0-2.6-0.1-3.5-0.4
			c-0.9-0.3-1.6-0.7-2.2-1.2c-0.5-0.5-0.9-1.1-1.1-1.8c-0.2-0.7-0.3-1.4-0.3-2.1c0-0.8,0.1-1.5,0.4-2.2c0.3-0.7,0.7-1.3,1.2-1.9
			c0.6-0.5,1.3-1,2.2-1.3c0.9-0.3,2-0.5,3.4-0.5h4v-0.7c0-0.5,0-1-0.1-1.4c-0.1-0.4-0.3-0.8-0.6-1.1c-0.3-0.3-0.7-0.5-1.2-0.7
			c-0.5-0.2-1.2-0.2-2-0.2c-0.8,0-1.6,0.1-2.5,0.2c-0.9,0.1-1.6,0.3-2.1,0.5c-0.2,0.1-0.3,0.1-0.4,0.1c-0.1,0-0.2-0.1-0.2-0.3
			l-0.4-1.4c0-0.1,0-0.2,0-0.3c0-0.1,0.1-0.2,0.3-0.2c0.8-0.4,1.8-0.6,2.9-0.7c1.1-0.1,2.1-0.2,3-0.2c2.2,0,3.8,0.5,4.8,1.5
			c1,1,1.5,2.4,1.5,4.3V137.2z M188.4,130.3h-3.8c-0.4,0-0.9,0-1.4,0.1c-0.5,0.1-1,0.2-1.5,0.4c-0.5,0.2-0.9,0.6-1.2,1
			c-0.3,0.5-0.5,1.1-0.5,1.9c0,0.6,0.1,1.1,0.3,1.5c0.2,0.4,0.5,0.7,0.9,1c0.4,0.2,0.8,0.4,1.3,0.5c0.5,0.1,1.1,0.1,1.7,0.1
			c0.2,0,0.5,0,0.8,0c0.3,0,0.7,0,1.1-0.1c0.4-0.1,0.8-0.1,1.2-0.2c0.4-0.1,0.8-0.2,1.1-0.3V130.3z"/>
		<path class="st0" d="M210.5,130.1c0,1.3-0.2,2.4-0.5,3.5c-0.3,1.1-0.8,2-1.4,2.9c-0.6,0.8-1.4,1.5-2.4,1.9c-1,0.5-2.1,0.7-3.4,0.7
			c-0.6,0-1.3,0-2-0.1c-0.7-0.1-1.5-0.2-2.3-0.5v6.4c0,0.2,0,0.3-0.1,0.4c-0.1,0.1-0.2,0.1-0.4,0.1h-1.9c-0.2,0-0.3,0-0.4-0.1
			c-0.1-0.1-0.1-0.2-0.1-0.4v-22.1c0-0.3,0.1-0.5,0.4-0.6c1.1-0.5,2.2-0.8,3.4-1c1.2-0.2,2.3-0.2,3.3-0.2c1.3,0,2.5,0.2,3.4,0.7
			c1,0.5,1.8,1.1,2.4,1.9c0.6,0.8,1.1,1.8,1.4,2.9C210.3,127.6,210.5,128.8,210.5,130.1z M207.5,130.1c0-1.2-0.1-2.2-0.4-3.1
			c-0.2-0.8-0.6-1.5-1-2c-0.5-0.5-1-0.9-1.6-1.1c-0.6-0.2-1.3-0.3-2.1-0.3c-0.6,0-1.2,0.1-1.9,0.2c-0.7,0.1-1.3,0.3-1.9,0.5v11.8
			c0.8,0.2,1.6,0.4,2.2,0.5c0.6,0.1,1.2,0.1,1.7,0.1c0.7,0,1.4-0.1,2.1-0.3c0.6-0.2,1.2-0.6,1.6-1.1c0.5-0.5,0.8-1.2,1.1-2
			C207.3,132.4,207.5,131.3,207.5,130.1z"/>
		<path class="st0" d="M216.9,138.7c-0.1,0.1-0.3,0.1-0.5,0.1h-1.6c-0.2,0-0.4,0-0.5-0.1c-0.1-0.1-0.2-0.2-0.2-0.5V122
			c0-0.2,0.1-0.4,0.2-0.5c0.1-0.1,0.3-0.1,0.5-0.1h1.6c0.2,0,0.4,0,0.5,0.1c0.1,0.1,0.1,0.2,0.1,0.5v6.2h8.6V122
			c0-0.2,0-0.4,0.2-0.5c0.1-0.1,0.3-0.1,0.5-0.1h1.6c0.2,0,0.4,0,0.5,0.1c0.1,0.1,0.1,0.2,0.1,0.5v16.2c0,0.2,0,0.4-0.1,0.5
			c-0.1,0.1-0.2,0.1-0.5,0.1h-1.6c-0.2,0-0.4,0-0.5-0.1c-0.1-0.1-0.2-0.2-0.2-0.5v-7.5H217v7.5C217,138.5,217,138.6,216.9,138.7z"/>
		<path class="st0" d="M246.3,137.2c0,0.4-0.2,0.7-0.5,0.9c-1,0.4-2.1,0.7-3.2,0.9c-1.2,0.2-2.3,0.2-3.3,0.2c-1.4,0-2.6-0.1-3.5-0.4
			c-0.9-0.3-1.6-0.7-2.2-1.2s-0.9-1.1-1.1-1.8c-0.2-0.7-0.3-1.4-0.3-2.1c0-0.8,0.1-1.5,0.4-2.2c0.3-0.7,0.7-1.3,1.2-1.9
			c0.6-0.5,1.3-1,2.2-1.3c0.9-0.3,2-0.5,3.4-0.5h4v-0.7c0-0.5,0-1-0.1-1.4c-0.1-0.4-0.3-0.8-0.6-1.1c-0.3-0.3-0.7-0.5-1.2-0.7
			c-0.5-0.2-1.2-0.2-2-0.2c-0.8,0-1.6,0.1-2.5,0.2c-0.9,0.1-1.6,0.3-2.1,0.5c-0.2,0.1-0.3,0.1-0.4,0.1c-0.1,0-0.2-0.1-0.2-0.3
			l-0.4-1.4c0-0.1,0-0.2,0-0.3c0-0.1,0.1-0.2,0.3-0.2c0.8-0.4,1.8-0.6,2.9-0.7c1.1-0.1,2.1-0.2,3-0.2c2.2,0,3.8,0.5,4.8,1.5
			c1,1,1.5,2.4,1.5,4.3V137.2z M243.3,130.3h-3.8c-0.4,0-0.9,0-1.4,0.1c-0.5,0.1-1,0.2-1.5,0.4c-0.5,0.2-0.9,0.6-1.2,1
			c-0.3,0.5-0.5,1.1-0.5,1.9c0,0.6,0.1,1.1,0.3,1.5c0.2,0.4,0.5,0.7,0.9,1c0.4,0.2,0.8,0.4,1.3,0.5c0.5,0.1,1.1,0.1,1.7,0.1
			c0.2,0,0.5,0,0.8,0c0.3,0,0.7,0,1.1-0.1c0.4-0.1,0.8-0.1,1.2-0.2c0.4-0.1,0.8-0.2,1.1-0.3V130.3z"/>
		<path class="st0" d="M257.6,141.7c-0.5,1.5-1.2,2.6-1.9,3.2c-0.8,0.6-1.8,0.9-3,0.9c-0.3,0-0.7,0-1.2-0.1c-0.5,0-1-0.1-1.5-0.3
			c-0.4-0.1-0.5-0.3-0.4-0.5l0.4-1.5c0-0.2,0.1-0.3,0.2-0.3c0.1,0,0.2,0,0.4,0c0.4,0.1,0.7,0.2,0.9,0.2c0.2,0,0.5,0,0.7,0
			c0.7,0,1.4-0.1,1.8-0.4c0.5-0.3,0.8-0.9,1.1-1.8c0-0.1,0.1-0.2,0.2-0.5c0.1-0.2,0.2-0.5,0.3-0.8c0.1-0.3,0.2-0.5,0.3-0.8
			c0.1-0.2,0.1-0.4,0.1-0.5h-0.6c-0.3,0-0.6,0-0.8-0.1c-0.2-0.1-0.4-0.4-0.6-1l-5.1-15.7c-0.1-0.2,0-0.4,0.3-0.4h2.2
			c0.2,0,0.4,0.1,0.5,0.3c0,0.2,0.1,0.5,0.3,0.9c0.1,0.5,0.3,1,0.5,1.6c0.2,0.6,0.4,1.3,0.6,1.9c0.2,0.7,0.4,1.3,0.6,1.9
			c0.2,0.6,0.4,1.1,0.5,1.6c0.1,0.5,0.2,0.8,0.3,0.9l1.7,5.8h0.2c0.1-0.2,0.2-0.6,0.4-1.2c0.2-0.6,0.4-1.3,0.6-2
			c0.2-0.7,0.4-1.3,0.6-1.9c0.2-0.6,0.3-0.9,0.3-0.9c0,0,0.1-0.2,0.2-0.6c0.1-0.4,0.3-0.8,0.5-1.4c0.2-0.6,0.4-1.2,0.6-1.8
			c0.2-0.6,0.4-1.3,0.6-1.9c0.2-0.6,0.4-1.2,0.6-1.8c0.2-0.5,0.3-1,0.4-1.3c0.1-0.2,0.2-0.3,0.5-0.3h2.1c0.3,0,0.4,0.1,0.3,0.4
			L257.6,141.7z"/>
		<path class="st0" d="M269.1,123.1c0-0.6,0.2-1,0.5-1.3c0.3-0.3,0.7-0.4,1.2-0.4h8.5c0.6,0,1.1,0.1,1.3,0.4
			c0.2,0.3,0.3,0.7,0.3,1.2v15.2c0,0.2,0,0.4-0.1,0.4c-0.1,0.1-0.3,0.1-0.5,0.1h-1.6c-0.2,0-0.4,0-0.5-0.1c-0.1-0.1-0.2-0.2-0.2-0.4
			V124h-6.4l-0.2,2.5c-0.2,2.2-0.4,4-0.6,5.5c-0.2,1.5-0.5,2.7-0.9,3.7c-0.4,1-0.9,1.7-1.5,2.3c-0.6,0.5-1.4,1-2.5,1.3
			c-0.1,0-0.3,0.1-0.4,0.1c-0.2,0-0.3-0.1-0.3-0.3l-0.4-1.3c-0.1-0.3,0-0.6,0.4-0.7c0.6-0.3,1.1-0.6,1.5-1c0.4-0.4,0.7-0.9,1-1.7
			c0.3-0.7,0.5-1.7,0.6-2.9c0.2-1.2,0.3-2.8,0.5-4.8L269.1,123.1z"/>
	</g>
	<g>
		<path class="st1" d="M79.5,71.1l-1.8,1.5c-1.2,1-2.5,2.1-3.9,3.2c3.5,9.6,9.4,16.5,10.9,26.6c1.5,10.4-5.3,21.1-17,23.1
			c-8.5,1.4-18.1-3.7-21.6-13c-1,3.6-1.5,7.5-1.5,11.6c0,23.9,18.4,32.4,34.1,32.4c14.9,0,26.4-7.2,36.9-16.7
			c5.7-10.7,7.7-22.8,6.5-33.8c-3-27.6-22-30.1-36.6-58.3C85.7,58.1,85.3,66.4,79.5,71.1"/>
		<path class="st2" d="M82.7,2.6c0.6-1.8-1.5-3.4-3-2.2C46.5,26.6,0,71.4,0,116c0,36.1,28.8,54,60.4,54c33.3,0,51.7-17.1,58.9-38.3
			C102,169,38.1,167.2,38.1,121.5c0-27.5,21.9-44.2,36.3-56C84.3,57.5,73.9,31.7,82.7,2.6"/>
	</g>
	<g>
		<g>
			<path class="st0" d="M163.7,100c0,0.5-0.1,0.8-0.2,0.9c-0.2,0.1-0.5,0.2-1,0.2h-4c-0.4,0-0.7-0.1-0.9-0.2
				c-0.2-0.1-0.3-0.4-0.3-0.9V66.6c0-1,0.2-1.8,0.6-2.3c0.4-0.5,1.2-0.8,2.4-0.8h12.7c1.8,0,3.4,0.3,4.9,0.8
				c1.5,0.6,2.7,1.3,3.8,2.4c1.1,1,1.9,2.2,2.5,3.6c0.6,1.4,0.9,2.9,0.9,4.6c0,1-0.2,2.1-0.5,3.4c-0.3,1.3-0.9,2.6-1.8,3.9
				c-0.9,1.2-2.2,2.3-3.8,3.2c-1.6,0.9-3.8,1.3-6.5,1.3h-8.7V100z M178.2,75.5c0-0.6-0.1-1.3-0.3-2c-0.2-0.7-0.5-1.4-1-2
				c-0.5-0.6-1.1-1.1-2-1.5c-0.9-0.4-1.9-0.6-3.3-0.6h-7.9v11.9h8c2.2,0,3.9-0.6,4.9-1.7C177.7,78.6,178.2,77.2,178.2,75.5z"/>
			<path class="st0" d="M223.4,82.3c0,6.2-1.4,11-4.1,14.4c-2.7,3.4-6.9,5.1-12.4,5.1c-5.4,0-9.4-1.6-12.1-4.9c-2.7-3.3-4-8-4-14.4
				c0-3.1,0.4-5.8,1.2-8.2c0.8-2.4,1.9-4.4,3.4-6.1c1.4-1.7,3.2-2.9,5.1-3.8c2-0.9,4.2-1.3,6.5-1.3c2.7,0,5,0.4,7.1,1.3
				c2,0.9,3.8,2.1,5.1,3.8c1.4,1.7,2.4,3.7,3.1,6C223.1,76.6,223.4,79.3,223.4,82.3z M216.7,82.5c0-1.8-0.1-3.5-0.4-5.1
				c-0.3-1.6-0.7-3.1-1.4-4.3c-0.7-1.2-1.7-2.2-2.9-3c-1.2-0.7-2.8-1.1-4.7-1.1c-1.6,0-3.1,0.3-4.3,1c-1.2,0.7-2.2,1.6-3,2.9
				c-0.8,1.2-1.4,2.6-1.8,4.2c-0.4,1.6-0.6,3.3-0.6,5.1c0,2.1,0.2,3.9,0.5,5.6c0.3,1.7,0.8,3.1,1.6,4.3c0.7,1.2,1.7,2.1,3,2.8
				c1.2,0.6,2.8,1,4.6,1s3.3-0.4,4.6-1.1c1.2-0.7,2.2-1.7,3-3c0.7-1.2,1.3-2.6,1.6-4.2C216.5,85.9,216.7,84.2,216.7,82.5z"/>
			<path class="st0" d="M248,95.7c1.6,0,3.1-0.2,4.4-0.6c1.4-0.4,2.6-0.8,3.8-1.3c0.5-0.2,0.8-0.2,1-0.1c0.2,0.1,0.3,0.4,0.5,0.6
				l1.4,3c0.2,0.5,0.3,0.8,0.3,1c-0.1,0.2-0.2,0.4-0.5,0.6c-1.8,1.1-3.8,1.8-5.8,2.1c-2.1,0.4-4.1,0.5-6,0.5
				c-5.4,0-9.5-1.6-12.3-4.7c-2.8-3.1-4.1-7.9-4.1-14.2c0-3,0.4-5.6,1.2-8.1c0.8-2.4,2-4.5,3.4-6.2c1.5-1.7,3.2-3,5.3-4
				c2.1-0.9,4.4-1.4,6.9-1.4c1.6,0,3.3,0.1,4.9,0.4c1.7,0.3,3.4,0.9,5.2,1.8c0.3,0.1,0.5,0.3,0.6,0.5c0.1,0.2,0,0.5-0.2,1l-1.5,3.1
				c-0.1,0.4-0.3,0.6-0.4,0.7c-0.1,0.1-0.4,0.1-0.8-0.1c-1.2-0.5-2.4-0.8-3.6-1.1c-1.2-0.3-2.5-0.4-3.9-0.4c-1.8,0-3.3,0.4-4.6,1.1
				c-1.3,0.7-2.4,1.8-3.2,3c-0.8,1.3-1.5,2.7-1.9,4.4c-0.4,1.7-0.6,3.4-0.6,5.2c0,1.8,0.2,3.4,0.5,5c0.3,1.6,0.9,2.9,1.7,4.1
				c0.8,1.2,1.9,2.1,3.3,2.8C244.3,95.3,246,95.7,248,95.7z"/>
			<path class="st0" d="M288.9,80.6c1,0.4,1.9,0.9,2.6,1.6c0.7,0.7,1.4,1.4,1.8,2.2c0.5,0.8,0.8,1.7,1,2.6c0.2,0.9,0.3,1.9,0.3,2.8
				c0,1.7-0.3,3.2-1,4.6c-0.7,1.4-1.5,2.6-2.7,3.6c-1.1,1-2.4,1.8-4,2.3c-1.5,0.5-3.1,0.8-4.9,0.8h-13c-1.1,0-1.9-0.2-2.4-0.7
				c-0.4-0.5-0.6-1.3-0.6-2.3V66.7c0-1,0.2-1.8,0.6-2.3c0.4-0.5,1.2-0.7,2.4-0.7l12.4-0.1c1.6,0,3.2,0.2,4.6,0.5
				c1.4,0.4,2.6,0.9,3.7,1.7c1,0.7,1.8,1.7,2.4,2.9c0.6,1.2,0.9,2.6,0.9,4.2c0,1.6-0.4,3.1-1.2,4.4c-0.8,1.3-1.8,2.3-3,3V80.6z
				 M272.7,78.2h8.7c0.5,0,1-0.1,1.6-0.2c0.6-0.1,1.1-0.4,1.6-0.7c0.5-0.3,0.9-0.8,1.2-1.4c0.3-0.6,0.5-1.4,0.5-2.3
				c0-1.3-0.4-2.3-1.3-3c-0.8-0.7-2-1.1-3.4-1.1h-9V78.2z M288,89.4c0-1.7-0.5-3.1-1.6-4.2c-1.1-1.1-2.7-1.6-4.8-1.6h-8.9v11.7h8.8
				c1.3,0,2.3-0.2,3.2-0.6s1.5-0.8,2-1.4c0.5-0.6,0.8-1.2,1-1.9C287.9,90.7,288,90,288,89.4z"/>
			<path class="st0" d="M334.5,82.3c0,6.2-1.4,11-4.1,14.4c-2.7,3.4-6.9,5.1-12.4,5.1c-5.4,0-9.4-1.6-12.1-4.9c-2.7-3.3-4-8-4-14.4
				c0-3.1,0.4-5.8,1.2-8.2c0.8-2.4,1.9-4.4,3.4-6.1c1.4-1.7,3.2-2.9,5.1-3.8c2-0.9,4.2-1.3,6.5-1.3c2.7,0,5,0.4,7.1,1.3
				c2,0.9,3.8,2.1,5.1,3.8c1.4,1.7,2.4,3.7,3.1,6C334.1,76.6,334.5,79.3,334.5,82.3z M327.8,82.5c0-1.8-0.1-3.5-0.4-5.1
				c-0.3-1.6-0.7-3.1-1.4-4.3c-0.7-1.2-1.7-2.2-2.9-3c-1.2-0.7-2.8-1.1-4.7-1.1c-1.6,0-3.1,0.3-4.3,1c-1.2,0.7-2.2,1.6-3,2.9
				c-0.8,1.2-1.4,2.6-1.8,4.2c-0.4,1.6-0.6,3.3-0.6,5.1c0,2.1,0.2,3.9,0.5,5.6c0.3,1.7,0.8,3.1,1.6,4.3c0.7,1.2,1.7,2.1,3,2.8
				c1.2,0.6,2.8,1,4.6,1c1.8,0,3.3-0.4,4.6-1.1c1.2-0.7,2.2-1.7,3-3c0.7-1.2,1.3-2.6,1.6-4.2C327.6,85.9,327.8,84.2,327.8,82.5z"/>
			<path class="st0" d="M344.9,101.1l-0.6,7.9c0,0.4-0.1,0.6-0.3,0.8c-0.1,0.1-0.4,0.2-0.6,0.2h-3.5c-0.3,0-0.4-0.1-0.6-0.2
				c-0.1-0.1-0.2-0.4-0.3-0.8l-0.7-11c0-0.6,0.1-1.2,0.3-1.7c0.2-0.5,0.8-0.8,1.6-0.9l1.9-0.2c0.6-0.7,1.2-1.5,1.6-2.2
				c0.4-0.8,0.7-1.6,1-2.5c0.3-0.9,0.5-1.9,0.7-3c0.2-1.1,0.4-2.3,0.5-3.7l2.2-17c0.2-1.1,0.6-1.9,1.2-2.5c0.6-0.5,1.5-0.8,2.8-0.8
				h16.5c1.3,0,2.2,0.3,2.8,0.9c0.5,0.6,0.8,1.5,0.8,2.7v28.1l2.2,0.1c0.9,0.1,1.4,0.3,1.6,0.7c0.2,0.4,0.3,0.8,0.2,1.3l-0.7,11.4
				c0,0.4-0.1,0.6-0.2,0.8c-0.1,0.1-0.3,0.2-0.6,0.2h-3.6c-0.3,0-0.5-0.1-0.6-0.2c-0.1-0.1-0.2-0.4-0.2-0.8l-0.3-7.9H344.9z
				 M365.6,69.4h-11.7L352.7,80c-0.3,2.8-0.6,5-0.9,6.7c-0.3,1.7-0.5,3.1-0.7,4.2c-0.2,1.1-0.5,1.9-0.8,2.5c-0.3,0.6-0.6,1.3-1,1.9
				h16.3V69.4z"/>
			<path class="st0" d="M414.5,82.3c0,6.2-1.4,11-4.1,14.4c-2.7,3.4-6.9,5.1-12.4,5.1c-5.4,0-9.4-1.6-12.1-4.9c-2.7-3.3-4-8-4-14.4
				c0-3.1,0.4-5.8,1.2-8.2c0.8-2.4,1.9-4.4,3.4-6.1c1.4-1.7,3.2-2.9,5.1-3.8c2-0.9,4.2-1.3,6.5-1.3c2.7,0,5,0.4,7.1,1.3
				c2,0.9,3.8,2.1,5.1,3.8c1.4,1.7,2.4,3.7,3.1,6C414.1,76.6,414.5,79.3,414.5,82.3z M407.7,82.5c0-1.8-0.1-3.5-0.4-5.1
				c-0.3-1.6-0.7-3.1-1.4-4.3c-0.7-1.2-1.7-2.2-2.9-3c-1.2-0.7-2.8-1.1-4.7-1.1c-1.6,0-3.1,0.3-4.3,1c-1.2,0.7-2.2,1.6-3,2.9
				c-0.8,1.2-1.4,2.6-1.8,4.2c-0.4,1.6-0.6,3.3-0.6,5.1c0,2.1,0.2,3.9,0.5,5.6c0.3,1.7,0.8,3.1,1.6,4.3c0.7,1.2,1.7,2.1,3,2.8
				c1.2,0.6,2.8,1,4.6,1c1.8,0,3.3-0.4,4.6-1.1c1.2-0.7,2.2-1.7,3-3c0.7-1.2,1.3-2.6,1.6-4.2C407.6,85.9,407.7,84.2,407.7,82.5z"/>
			<path class="st0" d="M442.9,81.1c0.9,0.3,1.7,0.7,2.3,1.1c0.6,0.4,1.1,0.9,1.5,1.4c0.4,0.6,0.7,1.2,0.9,1.8
				c0.2,0.7,0.5,1.4,0.7,2.2l3.3,12.4c0.1,0.2,0.1,0.4,0,0.7c-0.1,0.3-0.3,0.4-0.8,0.4h-4.7c-0.2,0-0.4,0-0.6-0.1
				c-0.2-0.1-0.4-0.3-0.5-0.6l-3.2-11.7c-0.5-1.9-1.3-3.2-2.4-3.8c-1.1-0.6-2.5-0.9-4.4-0.9h-6l0.1,16.4c0,0.4-0.1,0.6-0.2,0.7
				c-0.1,0.1-0.4,0.1-0.7,0.1h-4.5c-0.3,0-0.6,0-0.7-0.1c-0.2-0.1-0.2-0.3-0.2-0.7V64.6c0-0.4,0.1-0.6,0.2-0.7
				c0.2-0.1,0.4-0.1,0.7-0.1h4.6c0.4,0,0.6,0,0.7,0.1c0.1,0.1,0.2,0.3,0.1,0.7v13.9h5.7c0.5,0,1.1,0,1.7-0.1
				c0.6-0.1,1.2-0.3,1.8-0.7c0.6-0.4,1.1-0.9,1.6-1.6c0.5-0.7,0.9-1.6,1.2-2.7l2.4-9c0.1-0.4,0.2-0.6,0.5-0.6
				c0.2-0.1,0.4-0.1,0.6-0.1h4.4c0.5,0,0.7,0.1,0.8,0.4c0.1,0.3,0,0.5,0,0.7l-2.4,9.6c-0.4,1.5-0.9,2.8-1.6,3.9
				c-0.7,1.1-1.7,2-2.8,2.7V81.1z"/>
			<path class="st0" d="M478.3,92.9h-13.6l-2.4,7.3c-0.1,0.3-0.3,0.6-0.5,0.7c-0.2,0.1-0.5,0.2-0.9,0.2h-4.9c-0.4,0-0.6-0.1-0.7-0.3
				c-0.1-0.2-0.1-0.5,0-0.8l11.5-33.8c0.2-0.5,0.4-1,0.5-1.3c0.2-0.3,0.4-0.6,0.7-0.7c0.3-0.2,0.6-0.3,0.9-0.4
				c0.4-0.1,0.8-0.1,1.3-0.1h2.3c1.1,0,1.9,0.2,2.4,0.5c0.5,0.3,0.9,1,1.2,2.1l11.6,33.8c0.1,0.3,0.1,0.5,0,0.8
				c-0.1,0.2-0.3,0.3-0.7,0.3h-4.9c-0.4,0-0.7,0-0.9-0.1c-0.2-0.1-0.4-0.3-0.6-0.7L478.3,92.9z M466.4,87.4h10.3l-2.8-9l-2.2-7.6
				h-0.3l-2.2,7.4L466.4,87.4z"/>
			<path class="st0" d="M523.5,100.9c-0.2,0.1-0.5,0.2-1,0.2h-4.1c-0.4,0-0.7-0.1-0.9-0.2c-0.2-0.1-0.3-0.4-0.3-0.9V84.3h-16.6V100
				c0,0.5-0.1,0.8-0.3,0.9c-0.2,0.1-0.5,0.2-1,0.2h-4.1c-0.4,0-0.7-0.1-0.9-0.2c-0.2-0.1-0.3-0.4-0.3-0.9V64.8
				c0-0.5,0.1-0.8,0.3-0.9c0.2-0.1,0.5-0.2,0.9-0.2h4.1c0.5,0,0.8,0.1,1,0.2c0.2,0.1,0.3,0.4,0.3,0.9v13.8h16.6V64.8
				c0-0.5,0.1-0.8,0.3-0.9c0.2-0.1,0.5-0.2,0.9-0.2h4.1c0.5,0,0.8,0.1,1,0.2c0.2,0.1,0.2,0.4,0.2,0.9V100
				C523.7,100.5,523.6,100.8,523.5,100.9z"/>
			<path class="st0" d="M552.9,92.9h-13.6l-2.4,7.3c-0.1,0.3-0.3,0.6-0.5,0.7c-0.2,0.1-0.5,0.2-0.9,0.2h-4.9c-0.4,0-0.6-0.1-0.7-0.3
				c-0.1-0.2-0.1-0.5,0-0.8l11.5-33.8c0.2-0.5,0.4-1,0.5-1.3c0.2-0.3,0.4-0.6,0.7-0.7c0.3-0.2,0.6-0.3,0.9-0.4
				c0.4-0.1,0.8-0.1,1.3-0.1h2.3c1.1,0,1.9,0.2,2.4,0.5c0.5,0.3,0.9,1,1.2,2.1l11.6,33.8c0.1,0.3,0.1,0.5,0,0.8
				c-0.1,0.2-0.3,0.3-0.7,0.3h-4.9c-0.4,0-0.7,0-0.9-0.1c-0.2-0.1-0.4-0.3-0.6-0.7L552.9,92.9z M540.9,87.4h10.3l-2.8-9l-2.2-7.6
				h-0.3l-2.2,7.4L540.9,87.4z"/>
			<path class="st0" d="M573.5,67.3c0.1-1.3,0.4-2.2,0.9-2.8c0.6-0.6,1.4-0.8,2.5-0.8h17.5c2.3,0,3.4,1.2,3.4,3.6v32.9
				c0,0.4-0.1,0.6-0.2,0.7c-0.1,0.1-0.4,0.2-0.8,0.2h-4.5c-0.4,0-0.6-0.1-0.8-0.2c-0.2-0.1-0.2-0.4-0.2-0.7V69.4h-11.8l-0.3,4.7
				c-0.3,4-0.6,7.6-0.9,10.7c-0.3,3.1-0.8,5.9-1.6,8.2c-0.7,2.3-1.8,4.2-3.2,5.7c-1.4,1.5-3.4,2.6-5.9,3.4c-0.4,0.1-0.7,0.1-0.9,0
				c-0.2-0.1-0.4-0.3-0.6-0.7l-1.1-3.2c-0.1-0.3-0.1-0.6,0-0.8c0.1-0.2,0.3-0.4,0.7-0.6c1.5-0.6,2.7-1.5,3.5-2.5c0.8-1,1.5-2.3,2-4
				c0.5-1.7,0.8-3.8,1-6.3c0.2-2.5,0.5-5.6,0.8-9.3L573.5,67.3z"/>
		</g>
	</g>
</g>
</svg>
