<?xml version="1.0" encoding="utf-8"?>
<!-- Generator: Adobe Illustrator 23.0.3, SVG Export Plug-In . SVG Version: 6.00 Build 0)  -->
<svg version="1.1" id="Layer_1" xmlns="http://www.w3.org/2000/svg" xmlns:xlink="http://www.w3.org/1999/xlink" x="0px" y="0px"
	 viewBox="0 0 24.8 34.4" style="enable-background:new 0 0 24.8 34.4;" xml:space="preserve">
<style type="text/css">
	.st0{fill:#E30613;}
	.st1{fill:#0069B4;}
</style>
<path class="st0" d="M16.1,14.4l-0.4,0.3c-0.2,0.2-0.5,0.4-0.8,0.6c0.7,1.9,1.9,3.3,2.2,5.4c0.3,2.1-1.1,4.3-3.4,4.7
	c-1.7,0.3-3.7-0.7-4.4-2.6C9.1,23.5,9,24.3,9,25.1c0,4.8,3.7,6.6,6.9,6.6c3,0,5.3-1.5,7.5-3.4c1.2-2.2,1.6-4.6,1.3-6.8
	c-0.6-5.6-4.5-6.1-7.4-11.8C17.4,11.8,17.3,13.5,16.1,14.4"/>
<path class="st1" d="M16.8,0.5c0.1-0.4-0.3-0.7-0.6-0.4C9.4,5.4,0,14.5,0,23.5c0,7.3,5.8,10.9,12.2,10.9c6.7,0,10.5-3.5,11.9-7.8
	c-3.5,7.6-16.4,7.2-16.4-2.1c0-5.6,4.4-9,7.4-11.3C17.1,11.7,15,6.4,16.8,0.5"/>
</svg>
