<svg version="1.1" id="Layer_3" xmlns="http://www.w3.org/2000/svg" xmlns:xlink="http://www.w3.org/1999/xlink" x="0px" y="0px"
	 viewBox="0 0 53.2 52" style="enable-background:new 0 0 53.2 52;" xml:space="preserve">
<style type="text/css">
	.st0{fill:none;stroke:#000000;stroke-width:2;stroke-linecap:round;stroke-linejoin:round;stroke-miterlimit:10;}
</style>
<g>
	<path class="st0" d="M25.2,41h22c2.8,0,5,2.2,5,5v0c0,2.8-2.2,5-5,5h-22c-2.8,0-5-2.2-5-5v0C20.2,43.2,22.4,41,25.2,41z"/>
	<line class="st0" x1="26.2" y1="40" x2="26.2" y2="37"/>
	<line class="st0" x1="32.2" y1="40" x2="32.2" y2="37"/>
	<line class="st0" x1="25.2" y1="37" x2="33.2" y2="37"/>
	<line class="st0" x1="40.2" y1="40" x2="40.2" y2="37"/>
	<line class="st0" x1="46.2" y1="40" x2="46.2" y2="37"/>
	<line class="st0" x1="39.2" y1="37" x2="47.2" y2="37"/>
	<line class="st0" x1="36.2" y1="41" x2="36.2" y2="51"/>
	<circle cx="26.2" cy="49" r="1"/>
	<circle cx="27.2" cy="47" r="1"/>
	<circle cx="30.2" cy="47" r="1"/>
	<circle cx="29.2" cy="49" r="1"/>
	<circle cx="32.2" cy="49" r="1"/>
</g>
<g>
	<path class="st0" d="M13.7,7.4l-5.1,5.1L2.8,6.8c-0.4,1-0.6,2.1-0.6,3.2c0,5,4,9,9,9c5,0,9-4,9-9s-4-9-9-9C10,1,8.9,1.2,7.9,1.6
		L13.7,7.4z"/>
</g>
<line class="st0" x1="15.2" y1="18.7" x2="30.3" y2="33.9"/>
<line class="st0" x1="20.2" y1="14" x2="40.2" y2="34"/>
<line class="st0" x1="20.2" y1="19" x2="35.2" y2="34"/>
<polyline class="st0" points="29.2,23 39.2,13 44.2,11 48.2,3 46.2,1 38.2,5 36.2,10 26.2,20 "/>
<line class="st0" x1="19.2" y1="27" x2="21.2" y2="25"/>
<path class="st0" d="M23.2,32L7.6,47.6c-0.8,0.8-2,0.8-2.8,0l-3.2-3.2c-0.8-0.8-0.8-2,0-2.8L17.2,26L23.2,32z"/>
<line class="st0" x1="24.2" y1="28" x2="22.2" y2="30"/>
<line class="st0" x1="17.2" y1="32" x2="6.2" y2="43"/>
</svg>
