<svg version="1.1" id="Layer_2" xmlns="http://www.w3.org/2000/svg" xmlns:xlink="http://www.w3.org/1999/xlink" x="0px" y="0px"
	 viewBox="0 0 56 54" style="enable-background:new 0 0 56 54;" xml:space="preserve">
<style type="text/css">
	.st0{fill:none;stroke:#000000;stroke-width:2;stroke-linecap:round;stroke-linejoin:round;stroke-miterlimit:10;}
	.st1{fill:none;stroke:#000000;stroke-linecap:round;stroke-linejoin:round;stroke-miterlimit:10;}
</style>
<circle class="st0" cx="42" cy="40" r="13"/>
<path class="st0" d="M35.5,46.5c-3.6-3.6-3.6-9.4,0-13s9.4-3.6,13,0s3.6,9.4,0,13"/>
<circle class="st0" cx="42" cy="40" r="1"/>
<line class="st0" x1="42" y1="40" x2="42" y2="36"/>
<rect x="39" y="45" class="st0" width="6" height="4"/>
<path class="st0" d="M11,29C5,31,1,33.9,1,40v9h27"/>
<path class="st0" d="M20,27L20,27c-6.1,0-11-4.9-11-11v-5C9,5.5,13.5,1,19,1h2c5.5,0,10,4.5,10,10v5C31,22.1,26.1,27,20,27z"/>
<polyline class="st0" points="16,49 18,41 22,41 24,49 "/>
<path class="st0" d="M9,13l3.8-5c0,0,2.9,4,8.6,4S30,8,30,8"/>
<path class="st1" d="M21,21c0,0-0.3,0.2-1,0.2S19,21,19,21"/>
<circle cx="15" cy="15" r="1"/>
<circle cx="25" cy="15" r="1"/>
<line class="st0" x1="11" y1="29" x2="15" y2="26"/>
<polyline class="st0" points="15,26 20,35 25,26 "/>
<path class="st0" d="M33,29"/>
<polyline class="st0" points="11,29 15,38 20,35 "/>
<line class="st0" x1="29" y1="29" x2="25" y2="26"/>
<polyline class="st0" points="29,29 25,38 20,35 "/>
<line class="st0" x1="18" y1="41" x2="16.5" y2="37.1"/>
<line class="st0" x1="22" y1="41" x2="23.5" y2="37.1"/>
</svg>
