<svg version="1.1" id="Слой_1" xmlns="http://www.w3.org/2000/svg" xmlns:xlink="http://www.w3.org/1999/xlink" x="0px" y="0px"
	 viewBox="0 0 32 56" style="enable-background:new 0 0 32 56;" xml:space="preserve">
<style type="text/css">
	.st0{fill:none;stroke:#FFFFFF;stroke-width:2;stroke-linecap:round;stroke-miterlimit:10;}
	.st1{fill:none;stroke:#FFFFFF;stroke-width:2;stroke-linecap:round;stroke-linejoin:round;stroke-miterlimit:10;}
	.st2{fill:#FFFFFF;}
</style>
<g>
	<path class="st0" d="M1,37.1V5c0-2.2,1.8-4,4-4h22c2.2,0,4,1.8,4,4v46c0,2.2-1.8,4-4,4H5c-2.2,0-4-1.8-4-4v-5.9"/>
	<line class="st1" x1="8" y1="21" x2="21" y2="21"/>
	<line class="st1" x1="13" y1="25" x2="19" y2="25"/>
	<path class="st1" d="M23,35H10c-1.1,0-2-0.9-2-2c0-1.1,0.9-2,2-2h13c1.1,0,2,0.9,2,2C25,34.1,24.1,35,23,35z"/>
	<circle class="st1" cx="16" cy="47" r="2"/>
	<path class="st2" d="M2,41c0,0.6-0.4,1-1,1c-0.6,0-1-0.4-1-1c0-0.6,0.4-1,1-1C1.6,40,2,40.4,2,41"/>
	<path class="st2" d="M25,21c0,0.6-0.4,1-1,1c-0.6,0-1-0.4-1-1c0-0.6,0.4-1,1-1C24.6,20,25,20.4,25,21"/>
	<path class="st2" d="M17.2,10.6l-0.1,0.1c-0.1,0.1-0.2,0.1-0.2,0.2c0.2,0.6,0.6,1.1,0.7,1.7c0.1,0.7-0.3,1.4-1.1,1.5
		c-0.5,0.1-1.2-0.2-1.4-0.8c-0.1,0.2-0.1,0.5-0.1,0.7c0,1.5,1.2,2.1,2.2,2.1c1,0,1.7-0.5,2.4-1.1c0.4-0.7,0.5-1.5,0.4-2.2
		c-0.2-1.8-1.4-1.9-2.4-3.8C17.6,9.8,17.6,10.3,17.2,10.6"/>
	<path class="st2" d="M17.4,6.2c0-0.1-0.1-0.2-0.2-0.1c-2.1,1.7-5.1,4.6-5.1,7.4c0,2.3,1.9,3.5,3.9,3.5c2.1,0,3.3-1.1,3.8-2.5
		c-1.1,2.4-5.2,2.3-5.2-0.7c0-1.8,1.4-2.8,2.3-3.6C17.5,9.8,16.8,8.1,17.4,6.2"/>
</g>
</svg>
