<svg version="1.1" id="Layer_1" xmlns="http://www.w3.org/2000/svg" xmlns:xlink="http://www.w3.org/1999/xlink" x="0px" y="0px"
	 viewBox="0 0 46 60" style="enable-background:new 0 0 46 60;" xml:space="preserve">
<style type="text/css">
	.st0{fill:none;stroke:#000000;stroke-width:2;stroke-linecap:round;stroke-linejoin:round;stroke-miterlimit:10;}
</style>
<path class="st0" d="M1,56.2V7.8C1,6.3,2.3,5,3.8,5h34.3C39.7,5,41,6.3,41,7.8v48.3c0,1.6-1.3,2.8-2.8,2.8H3.8C2.3,59,1,57.7,1,56.2
	z"/>
<path class="st0" d="M5,3.8C5,2.3,6.3,1,7.8,1h34.3C43.7,1,45,2.3,45,3.8v48.3c0,1.6-1.3,2.8-2.8,2.8"/>
<line class="st0" x1="13" y1="21" x2="33" y2="21"/>
<line class="st0" x1="9" y1="13" x2="23" y2="13"/>
<line class="st0" x1="13" y1="25" x2="33" y2="25"/>
<line class="st0" x1="13" y1="29" x2="33" y2="29"/>
<path d="M10,21c0,0.6-0.4,1-1,1c-0.6,0-1-0.4-1-1c0-0.6,0.4-1,1-1C9.6,20,10,20.4,10,21"/>
<path d="M10,25c0,0.6-0.4,1-1,1c-0.6,0-1-0.4-1-1c0-0.6,0.4-1,1-1C9.6,24,10,24.4,10,25"/>
<path d="M10,29c0,0.6-0.4,1-1,1c-0.6,0-1-0.4-1-1c0-0.6,0.4-1,1-1C9.6,28,10,28.4,10,29"/>
<line class="st0" x1="13" y1="33" x2="33" y2="33"/>
<path d="M10,33c0,0.6-0.4,1-1,1c-0.6,0-1-0.4-1-1c0-0.6,0.4-1,1-1C9.6,32,10,32.4,10,33"/>
<line class="st0" x1="13" y1="37" x2="33" y2="37"/>
<path d="M10,37c0,0.6-0.4,1-1,1c-0.6,0-1-0.4-1-1c0-0.6,0.4-1,1-1C9.6,36,10,36.4,10,37"/>
<path class="st0" d="M22.7,50.5c1.2,0.1,2.3-0.6,3.2-1.4c0.9-0.7,1.9-1.5,2.5-2.5c0.6-1,0.8-2.3,0.3-3.4c-0.2-0.3-0.5-0.6-0.8-0.5
	c-0.1,0-0.3,0.1-0.4,0.3c-0.6,0.6-1.2,1.3-1.2,2.1c0,0.8,0.7,1.7,1.5,1.5c0.2,1.7,0.4,3.3,0.4,5c0.6-0.1,1-0.5,1.4-0.9
	c1.7-1.9,2.8-4.2,3.1-6.7l-1.6,8.6c-0.1-0.8,0.1-1.7,0.8-2c0.7-0.3,1.6,0.2,1.7,1c0.6-0.9,1-2,1.2-3"/>
<circle class="st0" cx="12" cy="48" r="3"/>
</svg>
