<?xml version="1.0" encoding="utf-8"?>
<!-- Generator: Adobe Illustrator 23.0.3, SVG Export Plug-In . SVG Version: 6.00 Build 0)  -->
<svg version="1.1" id="Layer_1" xmlns="http://www.w3.org/2000/svg" xmlns:xlink="http://www.w3.org/1999/xlink" x="0px" y="0px"
	 viewBox="0 0 46 54" style="enable-background:new 0 0 46 54;" xml:space="preserve">
<style type="text/css">
	.st0{fill:none;stroke:#000000;stroke-width:2;stroke-linecap:round;stroke-linejoin:round;stroke-miterlimit:10;}
	.st1{fill:none;stroke:#000000;stroke-width:2;stroke-linecap:round;stroke-miterlimit:10;}
</style>
<polyline class="st0" points="42,7 42,53 4,53 4,7 "/>
<path d="M15.1,40.1l-0.1,0.1c-0.1,0.1-0.2,0.1-0.2,0.2c0.2,0.6,0.6,1,0.6,1.6c0.1,0.6-0.3,1.2-1,1.4c-0.5,0.1-1.1-0.2-1.3-0.8
	C13,42.8,13,43,13,43.3c0,1.4,1.1,1.9,2,1.9c0.9,0,1.6-0.4,2.2-1c0.3-0.6,0.5-1.3,0.4-2c-0.2-1.6-1.3-1.8-2.2-3.5
	C15.4,39.4,15.4,39.9,15.1,40.1"/>
<path d="M15.2,36.1c0-0.1-0.1-0.2-0.2-0.1c-2,1.6-4.7,4.2-4.7,6.9c0,2.1,1.7,3.2,3.6,3.2c2,0,3.1-1,3.5-2.3c-1,2.2-4.8,2.1-4.8-0.6
	c0-1.6,1.3-2.6,2.2-3.3C15.3,39.3,14.7,37.8,15.2,36.1"/>
<path class="st1" d="M24,53V39c0-1.1,0.8-2,1.7-2h8.6c0.9,0,1.7,0.9,1.7,2v14"/>
<line class="st0" x1="12" y1="49" x2="16" y2="49"/>
<polygon class="st0" points="45,7 1,7 4,1 42,1 "/>
<path class="st1" d="M15,31h-4c-0.6,0-1-0.4-1-1v-4c0-0.6,0.4-1,1-1h4c0.6,0,1,0.4,1,1v4C16,30.6,15.6,31,15,31z"/>
<path class="st1" d="M25,31h-4c-0.6,0-1-0.4-1-1v-4c0-0.6,0.4-1,1-1h4c0.6,0,1,0.4,1,1v4C26,30.6,25.6,31,25,31z"/>
<path class="st1" d="M35,31h-4c-0.6,0-1-0.4-1-1v-4c0-0.6,0.4-1,1-1h4c0.6,0,1,0.4,1,1v4C36,30.6,35.6,31,35,31z"/>
<path class="st1" d="M15,19h-4c-0.6,0-1-0.4-1-1v-4c0-0.6,0.4-1,1-1h4c0.6,0,1,0.4,1,1v4C16,18.6,15.6,19,15,19z"/>
<path class="st1" d="M25,19h-4c-0.6,0-1-0.4-1-1v-4c0-0.6,0.4-1,1-1h4c0.6,0,1,0.4,1,1v4C26,18.6,25.6,19,25,19z"/>
<path class="st1" d="M35,19h-4c-0.6,0-1-0.4-1-1v-4c0-0.6,0.4-1,1-1h4c0.6,0,1,0.4,1,1v4C36,18.6,35.6,19,35,19z"/>
</svg>
