<svg version="1.1" id="Layer_2" xmlns="http://www.w3.org/2000/svg" xmlns:xlink="http://www.w3.org/1999/xlink" x="0px" y="0px"
	 viewBox="0 0 60 38" style="enable-background:new 0 0 60 38;" xml:space="preserve">
<style type="text/css">
	.st0{fill:none;stroke:#000000;stroke-width:2;stroke-linecap:round;stroke-linejoin:round;stroke-miterlimit:10;}
</style>
<circle class="st0" cx="50" cy="34" r="3"/>
<circle cx="50" cy="34" r="1"/>
<circle class="st0" cx="22" cy="34" r="3"/>
<circle cx="22" cy="34" r="1"/>
<circle class="st0" cx="10" cy="34" r="3"/>
<circle cx="10" cy="34" r="1"/>
<path class="st0" d="M56,33L56,33c1.7,0,3-1.3,3-3v-8.5c0-0.9-0.2-1.8-0.6-2.6L52.8,7.3C52.1,5.9,50.7,5,49.2,5H43c-2.2,0-4,1.8-4,4
	v22c0,1.1,0.9,2,2,2h3"/>
<rect x="1" y="5" class="st0" width="34" height="22"/>
<line class="st0" x1="31" y1="1" x2="31" y2="4"/>
<line class="st0" x1="27" y1="4" x2="27" y2="1"/>
<line class="st0" x1="13" y1="4" x2="13" y2="28"/>
<line class="st0" x1="23" y1="4" x2="23" y2="28"/>
<line class="st0" x1="34" y1="31" x2="27" y2="31"/>
<line class="st0" x1="5" y1="31" x2="2" y2="31"/>
<line class="st0" x1="17" y1="31" x2="15" y2="31"/>
<path class="st0" d="M43,11v12c0,1.1,0.9,2,2,2h8c1.1,0,2-0.9,2-2v-1.1c0-0.6-0.1-1.2-0.4-1.8l-5-10c-0.3-0.7-1-1.1-1.8-1.1H45
	C43.9,9,43,9.9,43,11z"/>
<line class="st0" x1="26" y1="1" x2="32" y2="1"/>
<path class="st0" d="M31,17c0,1.1-0.9,2-2,2s-2-0.9-2-2s2-4,2-4S31,15.9,31,17z"/>
</svg>
