<svg version="1.1" id="Layer_1" xmlns="http://www.w3.org/2000/svg" xmlns:xlink="http://www.w3.org/1999/xlink" x="0px" y="0px"
	 viewBox="0 0 97.8 86.5" style="enable-background:new 0 0 97.8 86.5;" xml:space="preserve">
<style type="text/css">
	.st0{fill-rule:evenodd;clip-rule:evenodd;fill:#429D68;}
	.st1{fill:none;stroke:#429D68;stroke-width:0.693;stroke-miterlimit:2.613;}
	.st2{fill-rule:evenodd;clip-rule:evenodd;fill:#429D68;stroke:#429D68;stroke-width:0.693;stroke-miterlimit:2.613;}
</style>
<path class="st0" d="M64.4,6.2c0.4,0.6,0.8,1.2,1.1,1.8L64.4,6.2z"/>
<path class="st1" d="M64.4,6.2c0.4,0.6,0.8,1.2,1.1,1.8"/>
<path class="st0" d="M33.6,4.5c0.5-0.5,1-1.1,1.5-1.6l13.2,7.7L61.6,3c0.5,0.5,1,1,1.5,1.6L48.4,13L33.6,4.5L33.6,4.5z"/>
<path class="st1" d="M33.6,4.5c0.5-0.5,1-1.1,1.5-1.6 M35.1,3l13.2,7.7L61.6,3 M61.6,3c0.5,0.5,1,1,1.5,1.6 M63.1,4.5L48.4,13
	L33.6,4.5"/>
<path class="st0" d="M36.9,1.6c0.6-0.5,1.3-0.9,2-1.3l9.5,5.5l9.5-5.5c0.7,0.4,1.3,0.8,2,1.3L48.4,8.2L36.9,1.6L36.9,1.6L36.9,1.6z"
	/>
<path class="st1" d="M36.9,1.6c0.6-0.5,1.3-0.9,2-1.3 M38.9,0.3l9.5,5.5l9.5-5.5 M57.8,0.3c0.7,0.4,1.3,0.8,2,1.3 M59.8,1.6
	L48.4,8.2L36.9,1.6"/>
<path class="st0" d="M65.6,8l-17.3,9.9L31.2,8c0.3-0.6,0.7-1.2,1.1-1.8l16.1,9.3l16-9.2L65.6,8z"/>
<path class="st1" d="M65.6,8l-17.3,9.9L31.2,8 M31.2,8c0.3-0.6,0.7-1.2,1.1-1.8 M32.3,6.2l16.1,9.3l16-9.2"/>
<path class="st2" d="M66.5,9.8c1.1,2.4,1.6,5.1,1.6,7.7c0,10.8-8.9,19.7-19.7,19.7c-10.8,0-19.7-8.9-19.7-19.7
	c0-2.7,0.5-5.3,1.6-7.7l18.1,10.5C48.4,20.3,58.9,14.2,66.5,9.8L66.5,9.8z M67.5,44.8H29v-1.1h38.5V44.8z M10.1,68.9L7.9,69
	c-1.9,0-3.8-0.4-5.3-1.6c-1.6-1.3-2.3-3.2-2.3-5.1c0-1.6,0.6-3.2,1.8-4.2C3.4,57,5,56.7,6.6,56.7l2,0.2l0.6,0.1
	c0.3,0,0.6-0.1,0.7-0.4l0.8,3.4L10.6,60c-0.7-1.6-2.3-2.4-4-2.4c-1.2,0-2.1,0.3-3,1.2c-0.8,0.9-1.2,2.1-1.2,3.3c0,3.1,2.1,6,5.4,6
	c1.9,0,3.2-1.1,4-2.8l0.2,0.1l-1.4,3.6C10.5,68.9,10.3,68.9,10.1,68.9L10.1,68.9z M16.4,66.6v-4.8c3.8,0,5.1,1.8,5.1,3.5
	c0,1.5-1.3,2.6-3.6,2.6C16.3,67.9,16.4,67.9,16.4,66.6z M14.4,59.1v7.4c0,1,0,1.9-1.2,2.1v0.2h5.4c3.5,0,5-1.3,5-3.4
	c0-2.2-2.3-4.4-7.2-4.4v-1.7c0-1.4-0.4-1.4,1.9-1.4c2.2,0,3.6,0.7,4.3,2.5l0.2-0.1l-0.9-3.6c-0.2,0.3-0.7,0.2-1.1,0.2h-7.5v0.2
	C14.4,57.2,14.4,58.2,14.4,59.1L14.4,59.1z M34.6,60.4c-0.8-1.8-2.7-2.6-4.5-2.6c-1.2,0-1.7,0.2-1.7,1.5v1h1.4c0.8,0,2,0.1,2-1.1
	l0.2-0.1l0.7,4l-0.1,0.1c-0.6-2.1-1.8-2.1-3.7-2.1h-0.4v4.8c0,1.4,0,2,1.9,2c2.6,0,4.3-1.2,5.4-3.5l0.2,0.1L34.3,69
	c-0.2-0.3-0.5-0.2-0.8-0.2h-8.3v-0.2c1.2-0.2,1.2-1.1,1.2-2.1v-7.3c0-1,0-2-1.2-2.2v-0.2h7.7c0.3,0,0.7,0,1-0.2l0.8,3.6L34.6,60.4
	L34.6,60.4z M40,62.4v-3c0-1.3,0-1.7,1.7-1.7c1.5,0,2.6,0.3,2.6,1.5C44.3,61,41.4,62,40,62.4L40,62.4z M43.5,56.9h-6.6v0.2
	c1.2,0.1,1.2,1.2,1.2,2.2v7.3c0,1,0,1.9-1.2,2.1v0.2h4.3v-0.2C40,68.5,40,67.4,40,66.4v-3.1c1.9-0.5,6.3-1.9,6.3-4.4
	C46.3,57.2,44.9,56.9,43.5,56.9z M50.9,66.6v-4.8c3.8,0,5.1,1.8,5.1,3.5c0,1.5-1.3,2.6-3.6,2.6C50.8,67.9,50.9,67.9,50.9,66.6z
	 M48.9,59.1v7.4c0,1,0,1.9-1.2,2.1v0.2h5.4c3.5,0,5-1.3,5-3.4c0-2.2-2.3-4.4-7.2-4.4v-1.7c0-1.4-0.4-1.4,1.9-1.4
	c2.2,0,3.6,0.7,4.3,2.5l0.2-0.1l-0.9-3.6c-0.2,0.3-0.7,0.2-1.1,0.2h-7.5v0.2C48.9,57.2,48.9,58.2,48.9,59.1L48.9,59.1z M64.7,58.2
	l2,5.8c-0.9-1-2.3-1.5-3.6-1.4L64.7,58.2z M61.8,66.3l1-2.9c2.9,0.1,5,2.2,5,3.9c0,0.6-0.2,1.1-0.9,1.3v0.2H71v-0.2
	c-0.7-0.2-0.8-0.7-1.1-1.3l-3.1-8.9c-0.1-0.2-0.2-0.5-0.2-0.7c0-0.4,0.2-0.6,0.5-0.7v-0.2h-4v0.2c0.3,0.1,0.6,0.3,0.6,0.6
	c0,0.4-0.1,0.7-0.3,1l-2.9,7.7c-0.2,0.5-0.5,1.2-0.8,1.7c-0.3,0.4-0.5,0.5-0.9,0.6v0.2h3.7v-0.2c-0.5,0-1-0.4-1-1
	C61.5,67.2,61.6,66.8,61.8,66.3z M76.4,68.6v0.2h-4.3v-0.2c1.2-0.2,1.2-1.1,1.2-2.1v-7.3c0-1,0-2-1.2-2.2v-0.2h4.3v0.2
	c-1.2,0.1-1.2,1.1-1.2,2.1v1.1h5.4v-0.9c0-1,0-2.1-1.2-2.2v-0.2h4.3V57c-1.2,0.1-1.2,1.1-1.2,2.1v7.3c0,1,0,2.1,1.2,2.2v0.2h-4.3
	v-0.2c1.2-0.1,1.2-1,1.2-2.1v-5.5h-5.4v5.3C75.2,67.4,75.2,68.5,76.4,68.6z M85.5,57.1v-0.2h4.3v0.2c-1.2,0.1-1.2,1.1-1.2,2.1v2.2
	l1.6-1.2c0.5-0.4,2.4-1.9,2.4-2.6c0-0.3-0.2-0.4-0.5-0.4v-0.2h4.3v0.2c-1.4,0.1-2.3,0.9-3.4,1.8l-1.4,1.1c1.9,1.7,3,3.8,4,6.1
	l0.3,0.8c0.3,0.7,0.5,1.6,1.4,1.7v0.2h-4v-0.2c0.4-0.1,0.6-0.3,0.6-0.7c0-1-0.8-2.7-1.3-3.6c-0.7-1.2-1.5-2.2-2.4-3.2l-1.7,1.4v3.9
	c0,1,0,2.1,1.2,2.2v0.2h-4.3v-0.2c1.2-0.2,1.2-1.1,1.2-2.1v-7.3C86.7,58.3,86.7,57.2,85.5,57.1L85.5,57.1z M13.6,79.5v-3
	c0-1.3,0-1.7,1.7-1.7c1.5,0,2.6,0.3,2.6,1.5C17.9,78.1,15,79.1,13.6,79.5L13.6,79.5z M17.1,74h-6.6v0.2c1.2,0.1,1.2,1.2,1.2,2.2v7.3
	c0,1,0,1.9-1.2,2.1v0.2h4.3v-0.2c-1.2-0.1-1.2-1.2-1.2-2.2v-3.1c1.9-0.5,6.3-1.9,6.3-4.4C20,74.2,18.5,74,17.1,74L17.1,74z M28,85.1
	c-3,0-4.6-3.2-4.6-5.8c0-2.3,1.2-4.6,3.8-4.6c2.5,0,4.7,2.7,4.7,5.9C31.8,82.9,30.5,85.1,28,85.1z M23.1,84.4
	c1.2,1.1,2.8,1.7,4.4,1.7c3.4,0,6.4-2.5,6.4-6c0-3.7-2.8-6.3-6.4-6.3c-3.6,0-6.4,2.6-6.4,6.2C21.2,81.6,21.9,83.3,23.1,84.4z
	 M45.9,86l-2.2,0.1c-1.9,0-3.8-0.4-5.3-1.6c-1.6-1.3-2.3-3.2-2.3-5.1c0-1.6,0.6-3.2,1.8-4.2c1.3-1.1,2.9-1.4,4.5-1.4l2,0.2l0.6,0.1
	c0.3,0,0.6-0.1,0.7-0.4l0.8,3.4L46.3,77c-0.7-1.6-2.3-2.4-4-2.4c-1.2,0-2.1,0.3-3,1.2c-0.8,0.9-1.2,2.1-1.2,3.3c0,3.1,2.1,6,5.4,6
	c1.9,0,3.2-1.1,4-2.8l0.2,0.1L46.4,86C46.3,85.9,46,86,45.9,86L45.9,86z M58.6,86l-2.2,0.1c-1.9,0-3.8-0.4-5.3-1.6
	c-1.6-1.3-2.3-3.2-2.3-5.1c0-1.6,0.6-3.2,1.8-4.2c1.3-1.1,2.9-1.4,4.5-1.4l2,0.2l0.6,0.1c0.3,0,0.6-0.1,0.7-0.4l0.8,3.4L59,77
	c-0.7-1.6-2.3-2.4-4-2.4c-1.2,0-2.1,0.3-3,1.2C51.4,76.8,51,78,51,79.2c0,3.1,2.1,6,5.4,6c1.9,0,3.2-1.1,4-2.8l0.2,0.1L59.2,86
	C59,85.9,58.8,86,58.6,86L58.6,86z M66,85.7v0.2h-4.3v-0.2c1.2-0.2,1.2-1.1,1.2-2.1v-7.3c0-1,0-2-1.2-2.2V74H66v0.2
	c-1.2,0.1-1.2,1.1-1.2,2.1V80l5.4-4.7c0-0.5,0-1.1-1.2-1.2V74h4.3v0.2c-1.2,0.1-1.2,1.1-1.2,2.1v7.3c0,1,0,2.1,1.2,2.2v0.2h-4.3
	v-0.2c1.2-0.1,1.2-1,1.2-2.1v-7.1l-5.4,4.7v2.2C64.9,84.5,64.9,85.6,66,85.7L66,85.7z M79.5,85.7v0.2h-4.3v-0.2
	c1.2-0.2,1.2-1.1,1.2-2.1v-7.3c0-1,0-2-1.2-2.2V74h4.3v0.2c-1.2,0.1-1.2,1.1-1.2,2.1V80l5.4-4.7c0-0.5,0-1.1-1.2-1.2V74h4.3v0.2
	c-1.2,0.1-1.2,1.1-1.2,2.1v7.3c0,1,0,2.1,1.2,2.2v0.2h-4.3v-0.2c1.2-0.1,1.2-1,1.2-2.1v-7.1l-5.4,4.7v2.2
	C78.3,84.5,78.3,85.6,79.5,85.7L79.5,85.7z"/>
</svg>
