<svg version="1.1" id="Layer_2" xmlns="http://www.w3.org/2000/svg" xmlns:xlink="http://www.w3.org/1999/xlink" x="0px" y="0px"
	 viewBox="0 0 60 54" style="enable-background:new 0 0 60 54;" xml:space="preserve">
<style type="text/css">
	.st0{fill:none;stroke:#000000;stroke-width:2;stroke-linecap:round;stroke-linejoin:round;stroke-miterlimit:10;}
</style>
<g>
	<circle class="st0" cx="48" cy="50" r="3"/>
	<circle class="st0" cx="32" cy="50" r="3"/>
	<path class="st0" d="M41,37H29c-2.2,0-4,1.8-4,4v4c0,2.2,1.8,4,4,4l0,0"/>
	<line class="st0" x1="35" y1="49" x2="42" y2="49"/>
	<path class="st0" d="M51,49c1.1,0,2-0.9,2-2v-3.8c0-0.7-0.2-1.4-0.5-2L50.1,37c-0.7-1.3-2-2-3.5-2H43c-1.1,0-2,0.9-2,2v10
		c0,1.1,0.9,2,2,2h1.2"/>
	<path class="st0" d="M33,37v-2c0-1.1,0.9-2,2-2h2c1.1,0,2,0.9,2,2v2"/>
	<path class="st0" d="M25,39h-1c-1.1,0-2,0.9-2,2v0c0,1.1,0.9,2,2,2h16"/>
	<path class="st0" d="M47.4,43H45v-4h2l1.3,2.6C48.6,42.2,48.1,43,47.4,43z"/>
</g>
<line class="st0" x1="1" y1="9" x2="7" y2="9"/>
<line class="st0" x1="22" y1="9" x2="38" y2="9"/>
<line class="st0" x1="59" y1="9" x2="53" y2="9"/>
<path class="st0" d="M23,5H5V3c0-1.1,0.9-2,2-2h14c1.1,0,2,0.9,2,2V5z"/>
<path class="st0" d="M55,5H37V3c0-1.1,0.9-2,2-2h14c1.1,0,2,0.9,2,2V5z"/>
<path class="st0" d="M19,37H5c-1.1,0-2-0.9-2-2V19c0-1.1,0.9-2,2-2h2L7,5h14v12h18l0-12h14v12h2c1.1,0,2,0.9,2,2v16c0,1.1-0.9,2-2,2
	h0"/>
<circle cx="32" cy="12" r="1"/>
<circle cx="28" cy="13" r="1"/>
<circle cx="24" cy="12" r="1"/>
<circle cx="35" cy="14" r="1"/>
<circle cx="3" cy="13" r="1"/>
<circle cx="57" cy="13" r="1"/>
<line class="st0" x1="3" y1="23" x2="57" y2="23"/>
</svg>
