<svg version="1.1" id="Layer_2" xmlns="http://www.w3.org/2000/svg" xmlns:xlink="http://www.w3.org/1999/xlink" x="0px" y="0px"
	 viewBox="0 0 56.2 48" style="enable-background:new 0 0 56.2 48;" xml:space="preserve">
<style type="text/css">
	.st0{fill:none;stroke:#000000;stroke-width:2;stroke-linecap:round;stroke-linejoin:round;stroke-miterlimit:10;}
</style>
<path class="st0" d="M12,12.8l1.6,1.6c0.8,0.8,0.8,2,0,2.8l-8.2,8.2c-0.8,0.8-2,0.8-2.8,0L1,23.8L12,12.8z"/>
<path class="st0" d="M44.2,12.8l-1.6,1.6c-0.8,0.8-0.8,2,0,2.8l8.2,8.2c0.8,0.8,2,0.8,2.8,0l1.6-1.6L44.2,12.8z"/>
<path class="st0" d="M35,47H21V18.8c0-0.5-0.2-1-0.6-1.4l-1.8-1.8c-0.4-0.4-0.6-0.9-0.6-1.4V11"/>
<path class="st0" d="M35,47V18.8c0-0.5,0.2-1,0.6-1.4l1.8-1.8c0.4-0.4,0.6-0.9,0.6-1.4V11"/>
<path class="st0" d="M39,11H17c-1.1,0-2-0.9-2-2V5h26v4C41,10.1,40.1,11,39,11z"/>
<rect x="17" y="1" class="st0" width="22" height="4"/>
<line class="st0" x1="6" y1="26" x2="21" y2="41"/>
<line class="st0" x1="50" y1="26" x2="35" y2="41"/>
<line class="st0" x1="14" y1="18" x2="21" y2="25"/>
<line class="st0" x1="42" y1="18" x2="35" y2="25"/>
</svg>
