<svg version="1.1" id="Layer_1" xmlns="http://www.w3.org/2000/svg" xmlns:xlink="http://www.w3.org/1999/xlink" x="0px" y="0px"
	 viewBox="0 0 56 42" style="enable-background:new 0 0 56 42;" xml:space="preserve">
<style type="text/css">
	.st0{fill:none;stroke:#000000;stroke-width:2;stroke-linecap:round;stroke-linejoin:round;stroke-miterlimit:10;}
	.st1{fill:none;stroke:#000000;stroke-width:2;stroke-miterlimit:10;}
	.st2{fill:none;stroke:#000000;stroke-width:2;stroke-linecap:round;stroke-miterlimit:10;}
</style>
<path class="st0" d="M52.2,41H3.8C2.3,41,1,39.7,1,38.2V3.8C1,2.3,2.3,1,3.8,1h48.3C53.7,1,55,2.3,55,3.8v34.3
	C55,39.7,53.7,41,52.2,41z"/>
<line class="st1" x1="2" y1="11" x2="54" y2="11"/>
<line class="st2" x1="50" y1="5" x2="48" y2="7"/>
<line class="st2" x1="50" y1="7" x2="48" y2="5"/>
<path class="st0" d="M47.2,22.9l-9.4-1.4l1.4,9.4l2.6-2.6l4.2,4.2c0.4,0.4,1,0.4,1.4,0l1.4-1.4c0.4-0.4,0.4-1,0-1.4l-4.2-4.2
	L47.2,22.9z"/>
<line class="st0" x1="7" y1="21" x2="31" y2="21"/>
<line class="st0" x1="7" y1="25" x2="28" y2="25"/>
<line class="st0" x1="7" y1="29" x2="28" y2="29"/>
<line class="st0" x1="7" y1="33" x2="23" y2="33"/>
<polyline class="st0" points="7,5 8,7 9,5 10,7 11,5 "/>
<polyline class="st0" points="13,5 14,7 15,5 16,7 17,5 "/>
<polyline class="st0" points="19,5 20,7 21,5 22,7 23,5 "/>
</svg>
