<svg version="1.1" id="Layer_1" xmlns="http://www.w3.org/2000/svg" xmlns:xlink="http://www.w3.org/1999/xlink" x="0px" y="0px"
	 viewBox="0 0 56 44" style="enable-background:new 0 0 56 44;" xml:space="preserve">
<style type="text/css">
	.st0{fill:none;stroke:#000000;stroke-width:2;stroke-linecap:round;stroke-linejoin:round;stroke-miterlimit:10;}
</style>
<path class="st0" d="M51,37h-6.1l0.1,6l-8.3-6H5c-2.2,0-4-1.8-4-4V5c0-2.2,1.8-4,4-4h46c2.2,0,4,1.8,4,4v28C55,35.2,53.2,37,51,37z"
	/>
<path class="st0" d="M21,13h-3c-1.7,0-3,1.3-3,3c0,1.7,1.3,3,3,3c1.7,0,3,1.3,3,3s-1.3,3-3,3h-3"/>
<path class="st0" d="M41,13h-3c-1.7,0-3,1.3-3,3c0,1.7,1.3,3,3,3c1.7,0,3,1.3,3,3s-1.3,3-3,3h-3"/>
<polyline class="st0" points="25,25 25,13 28,20 31,13 31,25 "/>
</svg>
