<svg version="1.1" id="Layer_3" xmlns="http://www.w3.org/2000/svg" xmlns:xlink="http://www.w3.org/1999/xlink" x="0px" y="0px"
	 viewBox="0 0 54 52" style="enable-background:new 0 0 54 52;" xml:space="preserve">
<style type="text/css">
	.st0{fill:none;stroke:#000000;stroke-width:2;stroke-linecap:round;stroke-linejoin:round;stroke-miterlimit:10;}
	.st1{fill:none;stroke:#000000;stroke-width:2;stroke-linejoin:round;stroke-miterlimit:10;}
	.st2{fill:none;stroke:#000000;stroke-width:2;stroke-linecap:round;stroke-miterlimit:10;}
</style>
<path class="st0" d="M9,45H7c-1.1,0-2-0.9-2-2V29c0-1.1,0.9-2,2-2h2c1.1,0,2,0.9,2,2v14C11,44.1,10.1,45,9,45z"/>
<path class="st0" d="M4,43H3c-1.1,0-2-0.9-2-2V31c0-1.1,0.9-2,2-2h1"/>
<path class="st0" d="M45,45h2c1.1,0,2-0.9,2-2V29c0-1.1-0.9-2-2-2h-2c-1.1,0-2,0.9-2,2v14C43,44.1,43.9,45,45,45z"/>
<path class="st0" d="M17,15v2c0,1.1,0.9,2,2,2h16c1.1,0,2-0.9,2-2v-2c0-1.1-0.9-2-2-2H19C17.9,13,17,13.9,17,15z"/>
<path class="st0" d="M50,43h1c1.1,0,2-0.9,2-2V31c0-1.1-0.9-2-2-2h-1"/>
<path class="st0" d="M39,5H15c-1.1,0-2-0.9-2-2v0c0-1.1,0.9-2,2-2h24c1.1,0,2,0.9,2,2v0C41,4.1,40.1,5,39,5z"/>
<line class="st0" x1="27" y1="9" x2="27" y2="5"/>
<polyline class="st0" points="22.1,13 25,9 29,9 32,13 "/>
<path class="st0" d="M20.2,19c0,0,0.6,5-2.3,8s-6.7,4-6.7,4"/>
<path class="st0" d="M33.3,19c0,0-0.6,5,2.3,8s6.7,4,6.7,4"/>
<path class="st1" d="M11,42c2,0,4,0,5,2.5c0.9,2.3,4.9,6.5,11,6.5s10.1-4.2,11-6.5c1-2.5,2-2.5,5-2.5"/>
<circle cx="35" cy="41" r="1"/>
<path class="st2" d="M33.1,44.3c0,0-2.1,2.7-6.1,2.7s-6.1-2.8-6.1-2.8"/>
</svg>
