<?xml version="1.0" encoding="utf-8"?>
<!-- Generator: Adobe Illustrator 23.0.3, SVG Export Plug-In . SVG Version: 6.00 Build 0)  -->
<svg version="1.1" id="Layer_1_copy" xmlns="http://www.w3.org/2000/svg" xmlns:xlink="http://www.w3.org/1999/xlink" x="0px"
	 y="0px" viewBox="0 0 120 40" style="enable-background:new 0 0 120 40;" xml:space="preserve">
<style type="text/css">
	.st0{fill:#FFFFFF;}
	.st1{font-family:'PFBeauSansPro-SemiBold';}
	.st2{font-size:12px;}
	.st3{font-family:'PFBeauSansPro-Regular';}
	.st4{font-size:9px;}
	.st5{fill:none;stroke:#FFFFFF;stroke-width:3;stroke-miterlimit:10;}
	.st6{fill:#7F40BD;}
</style>
<circle class="st0" cx="100" cy="20" r="19"/>
<text transform="matrix(1 0 0 1 16 20.1484)" class="st0 st1 st2">ЧАТ-БОТ</text>
<text transform="matrix(1 0 0 1 17 29.1484)" class="st0 st3 st4">VIBER</text>
<path class="st5" d="M100,38.5H20C9.78,38.5,1.5,30.22,1.5,20v0C1.5,9.78,9.78,1.5,20,1.5h80c10.22,0,18.5,8.28,18.5,18.5v0
	C118.5,30.22,110.22,38.5,100,38.5z"/>
<g>
	<path class="st6" d="M107.3,19.35c0.02-2.9-2.44-5.55-5.5-5.92c-0.06-0.01-0.13-0.02-0.2-0.03c-0.15-0.03-0.31-0.05-0.47-0.05
		c-0.63,0-0.79,0.44-0.84,0.7c-0.04,0.26,0,0.47,0.12,0.64c0.21,0.28,0.57,0.33,0.87,0.37c0.09,0.01,0.17,0.02,0.23,0.04
		c2.75,0.61,3.67,1.58,4.12,4.3c0.01,0.07,0.02,0.15,0.02,0.24c0.02,0.33,0.06,1,0.79,1h0c0.06,0,0.13-0.01,0.19-0.02
		c0.68-0.1,0.66-0.72,0.65-1.02c0-0.08-0.01-0.16,0-0.22C107.3,19.38,107.3,19.36,107.3,19.35z"/>
	<path class="st6" d="M100.96,12.37c0.08,0.01,0.16,0.01,0.22,0.02c4.51,0.69,6.58,2.83,7.16,7.37c0.01,0.08,0.01,0.17,0.01,0.27
		c0.01,0.36,0.02,1.09,0.81,1.11l0.02,0c0.25,0,0.45-0.08,0.59-0.22c0.25-0.26,0.23-0.64,0.22-0.95c0-0.08-0.01-0.15-0.01-0.21
		c0.06-4.65-3.97-8.86-8.61-9.02c-0.02,0-0.04,0-0.06,0c-0.01,0-0.03,0-0.06,0c-0.05,0-0.1,0-0.16-0.01
		c-0.07-0.01-0.16-0.01-0.24-0.01c-0.74,0-0.88,0.53-0.9,0.84C99.93,12.29,100.63,12.35,100.96,12.37z"/>
	<path class="st6" d="M108.12,25.64c-0.1-0.07-0.19-0.15-0.29-0.22c-0.49-0.4-1.02-0.76-1.52-1.11c-0.11-0.07-0.21-0.15-0.31-0.22
		c-0.65-0.46-1.23-0.68-1.78-0.68c-0.74,0-1.39,0.41-1.92,1.22c-0.24,0.36-0.52,0.53-0.88,0.53c-0.21,0-0.45-0.06-0.71-0.18
		c-2.09-0.95-3.59-2.41-4.44-4.33c-0.41-0.93-0.28-1.54,0.45-2.03c0.41-0.28,1.18-0.8,1.13-1.8c-0.06-1.14-2.57-4.55-3.62-4.94
		c-0.45-0.16-0.92-0.17-1.4,0c-1.21,0.41-2.08,1.12-2.52,2.07c-0.42,0.92-0.4,1.99,0.05,3.11c1.32,3.23,3.17,6.05,5.5,8.37
		c2.28,2.28,5.09,4.14,8.35,5.54c0.29,0.13,0.6,0.19,0.83,0.25c0.08,0.02,0.14,0.03,0.19,0.05c0.03,0.01,0.05,0.01,0.08,0.01l0.03,0
		c0,0,0,0,0,0c1.53,0,3.37-1.4,3.93-2.99C109.75,26.88,108.85,26.19,108.12,25.64z"/>
	<path class="st6" d="M101.64,16.06c-0.26,0.01-0.81,0.02-1,0.58c-0.09,0.26-0.08,0.48,0.03,0.67c0.16,0.27,0.47,0.35,0.76,0.4
		c1.03,0.16,1.55,0.73,1.66,1.79c0.05,0.49,0.38,0.83,0.8,0.83h0c0.03,0,0.06,0,0.1-0.01c0.51-0.06,0.76-0.44,0.74-1.12
		c0.01-0.71-0.36-1.51-0.99-2.16C103.1,16.41,102.33,16.04,101.64,16.06z"/>
</g>
</svg>
