<?xml version="1.0" encoding="utf-8"?>
<!-- Generator: Adobe Illustrator 23.0.3, SVG Export Plug-In . SVG Version: 6.00 Build 0)  -->
<svg version="1.1" id="Isolation_Mode" xmlns="http://www.w3.org/2000/svg" xmlns:xlink="http://www.w3.org/1999/xlink" x="0px"
	 y="0px" viewBox="0 0 40.67 40.67" style="enable-background:new 0 0 40.67 40.67;" xml:space="preserve">
<g>
	<g>
		<g>
			<g>
				<g>
					<path d="M21.18,7.44c0,1.35-0.4,2.48-0.85,2.48c-0.45,0-0.84-1.13-0.84-2.48c0-1.37,0.4-2.43,0.84-2.43
						C20.78,5.01,21.18,6.07,21.18,7.44z"/>
				</g>
			</g>
			<g>
				<g>
					<g>
						<path d="M29.9,11.79c-0.97,0.97-1.99,1.48-2.32,1.08c-0.34-0.29,0.17-1.3,1.13-2.26c0.97-0.97,1.99-1.48,2.32-1.19
							C31.37,9.75,30.86,10.83,29.9,11.79z"/>
					</g>
				</g>
				<g>
					<g>
						<path d="M33.01,21.02c-1.35,0-2.42-0.46-2.42-0.91s1.07-0.79,2.42-0.79c1.36,0,2.49,0.35,2.49,0.79S34.37,21.02,33.01,21.02z"
							/>
					</g>
				</g>
				<g>
					<g>
						<path d="M23.79,6.14c-0.06,0.4-0.46,0.62-0.85,0.56c-0.4-0.05-0.68-0.45-0.63-0.85c0.12-0.4,0.51-0.68,0.91-0.57
							C23.61,5.34,23.84,5.74,23.79,6.14z"/>
					</g>
				</g>
				<g>
					<g>
						<path d="M26.39,7.04c-0.16,0.4-0.62,0.51-0.96,0.4c-0.4-0.17-0.57-0.57-0.45-0.97c0.16-0.4,0.62-0.56,0.96-0.4
							C26.33,6.25,26.51,6.65,26.39,7.04z"/>
					</g>
				</g>
				<g>
					<g>
						<path d="M28.71,8.4c-0.16,0.34-0.67,0.45-1.02,0.22c-0.34-0.22-0.4-0.67-0.16-1.02c0.16-0.34,0.62-0.45,0.96-0.22
							C28.88,7.6,28.93,8.06,28.71,8.4z"/>
					</g>
				</g>
				<g>
					<g>
						<path d="M32.5,12.36c-0.34,0.22-0.78,0.17-1.02-0.17c-0.28-0.34-0.16-0.79,0.17-1.02c0.34-0.29,0.79-0.16,1.02,0.17
							C32.89,11.63,32.84,12.14,32.5,12.36z"/>
					</g>
				</g>
				<g>
					<g>
						<path d="M33.75,14.79c-0.4,0.16-0.79,0-0.97-0.35c-0.16-0.39,0-0.84,0.35-0.96c0.39-0.17,0.78-0.06,0.96,0.34
							C34.26,14.22,34.09,14.62,33.75,14.79z"/>
					</g>
				</g>
				<g>
					<g>
						<path d="M34.48,17.39c-0.4,0.11-0.79-0.11-0.85-0.51c-0.12-0.4,0.11-0.78,0.51-0.91c0.39-0.05,0.78,0.17,0.9,0.57
							C35.17,16.94,34.88,17.34,34.48,17.39z"/>
					</g>
				</g>
			</g>
			<g>
				<g>
					<g>
						<path d="M10.72,11.63c0.96,0.96,2.04,1.47,2.31,1.18c0.35-0.34-0.16-1.42-1.13-2.37C10.94,9.48,9.93,8.97,9.58,9.3
							C9.24,9.64,9.75,10.66,10.72,11.63z"/>
					</g>
				</g>
				<g>
					<g>
						<path d="M7.6,20.84c1.35,0,2.49-0.34,2.49-0.79c0-0.51-1.13-0.9-2.49-0.9c-1.35,0-2.48,0.39-2.48,0.9
							C5.12,20.51,6.25,20.84,7.6,20.84z"/>
					</g>
				</g>
				<g>
					<g>
						<path d="M16.83,6.02c0.11,0.4,0.45,0.67,0.85,0.56c0.45-0.05,0.68-0.45,0.62-0.84c-0.11-0.4-0.45-0.68-0.84-0.62
							C17.06,5.23,16.77,5.63,16.83,6.02z"/>
					</g>
				</g>
				<g>
					<g>
						<path d="M14.28,6.93c0.11,0.34,0.56,0.56,0.9,0.39c0.4-0.11,0.57-0.56,0.46-0.96c-0.17-0.34-0.62-0.57-0.97-0.4
							C14.28,6.07,14.11,6.53,14.28,6.93z"/>
					</g>
				</g>
				<g>
					<g>
						<path d="M11.9,8.28c0.17,0.34,0.62,0.45,0.97,0.22c0.4-0.22,0.45-0.68,0.22-1.02c-0.17-0.34-0.68-0.45-1.02-0.22
							C11.79,7.49,11.68,7.95,11.9,8.28z"/>
					</g>
				</g>
				<g>
					<g>
						<path d="M8.17,12.25c0.28,0.22,0.73,0.16,1.02-0.17c0.22-0.34,0.11-0.79-0.23-1.02c-0.27-0.22-0.78-0.17-1.02,0.17
							C7.71,11.56,7.78,12.02,8.17,12.25z"/>
					</g>
				</g>
				<g>
					<g>
						<path d="M6.87,14.68c0.4,0.16,0.85,0,1.02-0.35c0.11-0.4,0-0.78-0.4-1.02c-0.4-0.16-0.79,0-0.97,0.4
							C6.36,14.06,6.52,14.51,6.87,14.68z"/>
					</g>
				</g>
				<g>
					<g>
						<path d="M6.08,17.34c0.45,0.05,0.84-0.17,0.91-0.57c0.11-0.4-0.11-0.79-0.51-0.85c-0.4-0.17-0.79,0.11-0.91,0.51
							C5.5,16.83,5.74,17.23,6.08,17.34z"/>
					</g>
				</g>
			</g>
			<g>
				<g>
					<polygon points="16.43,19.32 18.63,18.98 16.09,10.15 					"/>
				</g>
			</g>
			<g>
				<g>
					<path d="M20.33,20.11c-5.83,0-10.98,2.72-14.43,6.91c2.49,5.43,8.04,9.28,14.43,9.28c6.4,0,11.94-3.85,14.43-9.28
						C31.32,22.83,26.16,20.11,20.33,20.11z M21.53,35.1V21.35c4.52,0.35,8.77,2.38,11.83,5.83C31.03,31.65,26.56,34.66,21.53,35.1z
						"/>
				</g>
			</g>
		</g>
	</g>
	<g>
		<path d="M20.34,40.67C9.12,40.67,0,31.55,0,20.34S9.12,0,20.34,0s20.34,9.12,20.34,20.34S31.55,40.67,20.34,40.67z M20.34,2.11
			c-10.05,0-18.22,8.17-18.22,18.22c0,10.05,8.17,18.22,18.22,18.22c10.05,0,18.22-8.17,18.22-18.22
			C38.56,10.29,30.38,2.11,20.34,2.11z"/>
	</g>
</g>
</svg>
