<svg version="1.1" id="Layer_2" xmlns="http://www.w3.org/2000/svg" xmlns:xlink="http://www.w3.org/1999/xlink" x="0px" y="0px"
	 viewBox="0 0 59 60" style="enable-background:new 0 0 59 60;" xml:space="preserve">
<style type="text/css">
	.st0{fill:none;stroke:#000000;stroke-width:2;stroke-linecap:round;stroke-linejoin:round;stroke-miterlimit:10;}
</style>
<circle class="st0" cx="24" cy="24" r="23"/>
<circle cx="24" cy="24" r="2"/>
<path class="st0" d="M12,36c-6.6-6.6-6.6-17.4,0-24s17.4-6.6,24,0s6.6,17.4,0,24"/>
<line class="st0" x1="24" y1="24" x2="24" y2="14"/>
<rect x="20" y="35" class="st0" width="8" height="4"/>
<path class="st0" d="M16,13"/>
<circle class="st0" cx="49" cy="50" r="5"/>
<path class="st0" d="M47,45c-2-3-4-1-7-4c0,0,0,4,2,5s2,3.9,2,4.4"/>
<path class="st0" d="M53,53c0,0,3,0,5,2"/>
<path class="st0" d="M52,54c0,0,2,2,3,5"/>
</svg>
