<svg version="1.1" id="Layer_1" xmlns="http://www.w3.org/2000/svg" xmlns:xlink="http://www.w3.org/1999/xlink" x="0px" y="0px"
	 viewBox="0 0 1440 198.2" style="enable-background:new 0 0 1440 198.2;" xml:space="preserve">
<path d="M0,70.2l40-5.3c40-5.7,120-15.7,200-32c80-15.7,160-37.7,240-32c80,5.3,160,37.3,240,69.3s160,64,240,53.3
	c80-10.3,160-64.3,240-74.6c80-10.7,160,21.3,200,37.3l40,16v96h-40c-40,0-120,0-200,0s-160,0-240,0s-160,0-240,0s-160,0-240,0
	s-160,0-240,0s-160,0-200,0H0V70.2z"/>
</svg>
