<svg version="1.1" id="Layer_1" xmlns="http://www.w3.org/2000/svg" xmlns:xlink="http://www.w3.org/1999/xlink" x="0px" y="0px"
	 viewBox="0 0 1440 258.8" style="enable-background:new 0 0 1440 258.8;" xml:space="preserve">
<path d="M0,226.8l34.3-26.7C68.6,173.8,137,119.8,206,72.1c68.3-48.3,137-90.3,205-64c69,26.7,138,122.7,206,154.7
	c68.7,32,137,0,206-42.7c68.4-42.3,137-96.3,206-90.6c68.1,5.3,137,69.3,205,112c68.9,42.3,137,64.3,172,74.6l34,10.7v32h-34.3
	c-34.3,0-102.7,0-171.7,0c-68.3,0-137,0-205,0c-69,0-138,0-206,0c-68.7,0-137,0-206,0c-68.4,0-137,0-206,0c-68.1,0-137,0-205,0
	c-68.9,0-137,0-172,0H0V226.8z"/>
</svg>
