<svg version="1.1" id="Layer_5" xmlns="http://www.w3.org/2000/svg" xmlns:xlink="http://www.w3.org/1999/xlink" x="0px" y="0px"
	 viewBox="0 0 48 58" style="enable-background:new 0 0 48 58;" xml:space="preserve">
<style type="text/css">
	.st0{fill:none;stroke:#000000;stroke-width:2;stroke-linecap:round;stroke-linejoin:round;stroke-miterlimit:10;}
	.st1{fill:none;stroke:#000000;stroke-width:2;stroke-miterlimit:10;}
	.st2{fill:none;stroke:#000000;stroke-width:2;stroke-linecap:round;stroke-miterlimit:10;}
</style>
<path class="st0" d="M13,37C6.9,37,1,41.9,1,48v9h46v-9c0-6.1-5.9-11-12-11"/>
<path class="st0" d="M21,29c0,0,1,1,3,1s3-1,3-1"/>
<line class="st0" x1="13" y1="37" x2="17" y2="33"/>
<line class="st0" x1="31" y1="33" x2="35" y2="37"/>
<polyline class="st0" points="17,33 24,43 31,33 "/>
<polyline class="st0" points="13,37 17,47 24,43 31,47 35,37 "/>
<path class="st0" d="M23,15c7,2,13,2,13,2s1,1,1,5c0,7-5.8,13-13,13h0c-7.2,0-13-5.8-13-13c0,0-1-7,3.7-11.2
	C14.7,10.8,16.2,13.1,23,15z"/>
<path class="st0" d="M13,29.3c-4.3-0.8-7-2.3-7-5.3C6,13.5,11,1,24,1s18,12.5,18,23c0,2.3-2.7,4-7,5"/>
<path class="st1" d="M17,23h4c0.6,0,1-0.4,1-1v-2c0-0.6-0.4-1-1-1h-4c-0.6,0-1,0.4-1,1v2C16,22.6,16.4,23,17,23z"/>
<path class="st1" d="M27,23h4c0.6,0,1-0.4,1-1v-2c0-0.6-0.4-1-1-1h-4c-0.6,0-1,0.4-1,1v2C26,22.6,26.4,23,27,23z"/>
<line class="st1" x1="22" y1="21" x2="26" y2="21"/>
<line class="st2" x1="16" y1="21" x2="11" y2="20"/>
<line class="st1" x1="32" y1="21" x2="37" y2="20"/>
<polyline class="st0" points="7.7,38.3 9,49 13,47 19,57 "/>
<polyline class="st0" points="8,39 9,49 13,47 19,57 "/>
<polyline class="st0" points="40,39 38.7,49 34.7,47 28.7,57 "/>
<polyline class="st0" points="20.4,45.1 24,57 27.6,45.1 "/>
</svg>
