<?xml version="1.0" standalone="no"?>
<!DOCTYPE svg PUBLIC "-//W3C//DTD SVG 20010904//EN"
 "http://www.w3.org/TR/2001/REC-SVG-20010904/DTD/svg10.dtd">
<svg version="1.0" xmlns="http://www.w3.org/2000/svg"
 width="705.000000pt" height="705.000000pt" viewBox="0 0 705.000000 705.000000"
 preserveAspectRatio="xMidYMid meet">
<metadata>
Created by potrace 1.11, written by Peter Selinger 2001-2013
</metadata>
<g transform="translate(0.000000,705.000000) scale(0.100000,-0.100000)"
fill="#000000" stroke="none">
<path d="M4150 6988 c-638 -526 -1058 -909 -1439 -1313 -641 -678 -1055 -1242
-1360 -1855 -282 -567 -411 -1059 -411 -1571 0 -785 329 -1419 945 -1822 173
-112 451 -238 671 -302 647 -189 1456 -159 2044 75 306 122 560 290 781 516
349 360 560 815 640 1384 21 144 18 506 -5 655 -50 331 -160 604 -344 851 -79
108 -170 212 -381 439 -395 425 -529 599 -720 935 l-71 125 0 -185 c0 -289
-26 -443 -99 -595 -49 -102 -92 -150 -252 -281 -70 -57 -130 -108 -133 -112
-8 -13 61 -168 205 -457 194 -389 251 -561 252 -770 3 -446 -350 -824 -798
-851 -306 -20 -639 182 -778 468 -17 37 -35 68 -38 68 -7 0 -34 -132 -49 -243
-15 -115 -12 -364 6 -484 21 -145 56 -259 118 -388 171 -356 492 -585 948
-677 99 -20 142 -23 343 -23 210 1 241 3 356 28 295 62 556 180 819 368 111
81 82 47 -39 -45 -360 -271 -795 -416 -1246 -416 -637 0 -1169 293 -1420 781
-112 219 -154 396 -162 679 -10 365 54 655 216 980 202 408 506 753 1076 1224
121 99 237 199 258 221 50 52 93 143 120 257 21 91 22 108 23 748 0 656 5 769
40 1024 20 145 57 326 95 462 17 62 29 122 27 135 -3 23 -7 24 -83 26 l-80 2
-75 -61z"/>
</g>
</svg>
