<?xml version="1.0" encoding="utf-8"?>
<!-- Generator: Adobe Illustrator 23.0.3, SVG Export Plug-In . SVG Version: 6.00 Build 0)  -->
<svg version="1.1" id="Layer_1" xmlns="http://www.w3.org/2000/svg" xmlns:xlink="http://www.w3.org/1999/xlink" x="0px" y="0px"
	 viewBox="0 0 122.4 170" style="enable-background:new 0 0 122.4 170;" xml:space="preserve">
<g>
	<g>
		<path d="M79.5,71.1l-1.8,1.5c-1.2,1-2.5,2.1-3.9,3.2c3.5,9.6,9.4,16.5,10.9,26.6c1.5,10.4-5.3,21.1-17,23.1
			c-8.5,1.4-18.1-3.7-21.6-13c-1,3.6-1.5,7.5-1.5,11.6c0,23.9,18.4,32.4,34.1,32.4c14.9,0,26.4-7.2,36.9-16.7
			c5.7-10.7,7.7-22.8,6.5-33.8c-3-27.6-22-30.1-36.6-58.3C85.7,58.1,85.3,66.4,79.5,71.1"/>
		<path d="M82.7,2.6c0.6-1.8-1.5-3.4-3-2.2C46.5,26.6,0,71.4,0,116c0,36.1,28.8,54,60.4,54c33.3,0,51.7-17.1,58.9-38.3
			C102,169,38.1,167.2,38.1,121.5c0-27.5,21.9-44.2,36.3-56C84.3,57.5,73.9,31.7,82.7,2.6"/>
	</g>
</g>
</svg>
