<?xml version="1.0" encoding="utf-8"?>
<!-- Generator: Adobe Illustrator 16.0.0, SVG Export Plug-In . SVG Version: 6.00 Build 0)  -->
<!DOCTYPE svg PUBLIC "-//W3C//DTD SVG 1.1//EN" "http://www.w3.org/Graphics/SVG/1.1/DTD/svg11.dtd">
<svg version="1.1" id="Слой_1" xmlns="http://www.w3.org/2000/svg" xmlns:xlink="http://www.w3.org/1999/xlink" x="0px" y="0px"
	 width="120px" height="108.421px" viewBox="0 0 120 108.421" style="enable-background:new 0 0 120 108.421;" xml:space="preserve"
	>
<style type="text/css">
<![CDATA[
	
		.st0{clip-path:url(#SVGID_4_);fill:none;stroke:#243970;stroke-width:3;stroke-linecap:round;stroke-linejoin:round;stroke-miterlimit:10;}

	.st2{clip-path:url(#SVGID_2_);fill:#243970;}
	.st3{clip-path:url(#SVGID_4_);fill:#243970;}
	.st4{clip-path:url(#SVGID_2_);fill:none;stroke:#EFF3F4;stroke-width:10;stroke-linecap:round;stroke-miterlimit:10;}
	.st5{clip-path:url(#SVGID_4_);fill:#30AFCF;}

.st1{clip-path:url(#SVGID_2_);fill:none;stroke:#2AB4D3;
stroke-width:10;stroke-linecap:round;stroke-miterlimit:10;
animation-direction: reverse;}

	path.st2.arrow {
  transition: 0.5s;
  transform: rotate(50deg);
  transform-origin: 60px 61px;
  transition:1s;
  animation: speedo 1.5s ease;
    animation-fill-mode: forwards;
}
@keyframes speedo {
  from {
    transform: rotate(-120deg);
  }
  to {
    transform: rotate(50deg);
  }
}

]]>
</style>
<g>
	<defs>
		<rect id="SVGID_1_" width="120" height="108.421"/>
	</defs>
	<clipPath id="SVGID_2_">
		<use xlink:href="#SVGID_1_"  style="overflow:visible;"/>
	</clipPath>
	<path class="st2 arrow" d="M65.128,60.939H54.873l4.096-26.032c0.017-0.54,0.46-0.968,0.999-0.968h0.064c0.539,0,0.981,0.428,0.999,0.968
		L65.128,60.939z"/>
	<path class="st4" d="M107.648,88.449c4.676-8.09,7.352-17.483,7.352-27.51c0-30.4-24.6-55-55-55s-55,24.6-55,55
		c0,10.026,2.675,19.42,7.352,27.51"/>
	<path class="st1 bar" fill="none" stroke="deeppink"
		   stroke-dasharray= "200" stroke-dashoffset="200"
		  stroke-width="14" stroke-miterlimit="0"
		  d="M12.339,88.755c-4.677-8.09-7.352-17.483-7.352-27.51c0-30.4,24.599-55,55-55
		c15.567,0,29.614,6.451,39.615,16.828">

   <animate id="p1" attributeName="stroke-dashoffset"
         values="200; 0" dur="1.5s" repeatCount="1"  fill="freeze"  calcMode="linear"/>

	</path>
</g>
<g>
	<defs>
		<rect id="SVGID_3_" width="120" height="108.421"/>
	</defs>
	<clipPath id="SVGID_4_">
		<use xlink:href="#SVGID_3_"  style="overflow:visible;"/>
	</clipPath>
	<line class="st0" x1="98.833" y1="60.939" x2="103" y2="60.939"/>
	<line class="st0" x1="17" y1="60.939" x2="21.167" y2="60.939"/>
	<line class="st0" x1="93.631" y1="41.523" x2="97.239" y2="39.44"/>
	<line class="st0" x1="22.761" y1="82.439" x2="26.369" y2="80.356"/>
	<line class="st0" x1="79.417" y1="27.309" x2="81.5" y2="23.701"/>
	<line class="st0" x1="60" y1="22.106" x2="60" y2="17.939"/>
	<line class="st0" x1="40.583" y1="27.309" x2="38.5" y2="23.701"/>
	<line class="st0" x1="26.369" y1="41.523" x2="22.761" y2="39.44"/>
	<line class="st0" x1="97.239" y1="82.439" x2="93.631" y2="80.356"/>
	<path class="st3" d="M65.128,60.939c0,2.832-2.296,5.128-5.128,5.128s-5.127-2.296-5.127-5.128s2.295-5.127,5.127-5.127
		S65.128,58.107,65.128,60.939"/>
	<path class="st5" d="M62.051,60.939c0,1.134-0.918,2.052-2.051,2.052c-1.133,0-2.051-0.918-2.051-2.052
		c0-1.133,0.918-2.051,2.051-2.051C61.133,58.889,62.051,59.807,62.051,60.939"/>
</g>

</svg>
